<svg width="3922" height="1905" xmlns="http://www.w3.org/2000/svg" xmlns:xlink="http://www.w3.org/1999/xlink" xml:space="preserve" overflow="hidden"><defs><clipPath id="clip0"><rect x="141" y="237" width="3922" height="1905"/></clipPath></defs><g clip-path="url(#clip0)" transform="translate(-141 -237)"><path d="M0 0 2.20289 387.623" stroke="#A6A6A6" stroke-width="20.625" stroke-miterlimit="8" fill="none" fill-rule="evenodd" transform="matrix(1 0 0 -1 2630.5 1946.12)"/><path d="M2632.5 1285.5 2632.59 1373.43" stroke="#A6A6A6" stroke-width="20.625" stroke-miterlimit="8" fill="none" fill-rule="evenodd"/><path d="M0 0 514.74 511.736" stroke="#A6A6A6" stroke-width="20.625" stroke-miterlimit="8" fill="none" fill-rule="evenodd" transform="matrix(-1 0 0 1 2055.24 890.5)"/><path d="M0 0 1072.65 511.736" stroke="#A6A6A6" stroke-width="20.625" stroke-miterlimit="8" fill="none" fill-rule="evenodd" transform="matrix(-1 0 0 1 2055.15 890.5)"/><path d="M2240.5 890.5 2633.11 1101.14" stroke="#A6A6A6" stroke-width="20.625" stroke-miterlimit="8" fill="none" fill-rule="evenodd"/><path d="M2146.5 694.5 2148.06 797.388" stroke="#A6A6A6" stroke-width="20.625" stroke-miterlimit="8" fill="none" fill-rule="evenodd"/><rect x="144.5" y="474.5" width="256" height="256" stroke="#000000" stroke-width="6.875" stroke-miterlimit="8" fill="#B4BB22"/><path d="M277.518 558.148 281.466 558.148C281.179 562.742 281.035 569.106 281.035 577.241L281.035 638.538C281.035 641.314 281.191 643.407 281.502 644.819 281.813 646.231 282.363 647.379 283.152 648.264 283.942 649.15 285.078 649.843 286.562 650.346 288.045 650.848 289.911 651.231 292.16 651.494 294.41 651.757 297.376 651.937 301.061 652.033L301.061 657.272 248.017 657.272 248.017 652.033C253.329 651.793 257.121 651.47 259.394 651.064 261.667 650.657 263.402 650.047 264.598 649.233 265.794 648.42 266.668 647.271 267.218 645.788 267.768 644.305 268.043 641.888 268.043 638.538L268.043 580.327C268.043 578.413 267.708 577.013 267.038 576.128 266.368 575.243 265.388 574.8 264.096 574.8 262.564 574.8 260.387 575.59 257.564 577.169 254.741 578.748 251.247 580.925 247.084 583.701L243.926 578.174Z" fill="#FFFFFF" fill-rule="evenodd"/><text fill="#000000" fill-opacity="0" font-family="Arial,Arial_MSFontService,sans-serif" font-size="99.1245" x="243.926" y="644.882">1</text><path d="M373.338 675.86 375.057 675.86C374.932 677.86 374.87 680.631 374.87 684.172L374.87 710.86C374.87 712.068 374.937 712.98 375.073 713.594 375.208 714.209 375.448 714.709 375.792 715.094 376.135 715.48 376.63 715.782 377.276 716.001 377.922 716.219 378.734 716.386 379.713 716.501 380.693 716.615 381.984 716.693 383.588 716.735L383.588 719.016 360.495 719.016 360.495 716.735C362.807 716.631 364.458 716.49 365.448 716.313 366.437 716.136 367.193 715.87 367.713 715.516 368.234 715.162 368.614 714.662 368.854 714.016 369.094 713.37 369.213 712.318 369.213 710.86L369.213 685.516C369.213 684.683 369.068 684.073 368.776 683.688 368.484 683.303 368.057 683.11 367.495 683.11 366.828 683.11 365.88 683.454 364.651 684.141 363.422 684.829 361.901 685.777 360.088 686.985L358.713 684.579Z" fill="#FFFFFF" fill-rule="evenodd"/><text fill="#000000" fill-opacity="0" font-family="Arial,Arial_MSFontService,sans-serif" font-size="43.1562" x="358.713" y="713.622">1</text><rect x="439.5" y="762.5" width="256" height="256" stroke="#000000" stroke-width="6.875" stroke-miterlimit="8" fill="#B4BB22"/><path d="M567.503 846.333C576.404 846.333 583.127 848.283 587.673 852.182 592.219 856.082 594.492 861.741 594.492 869.158 594.492 871.694 594.24 874.027 593.738 876.156 593.235 878.286 592.446 880.391 591.369 882.473 590.293 884.554 588.845 886.791 587.027 889.184 585.208 891.576 583.199 894.005 580.997 896.469 578.796 898.933 574.992 903.037 569.585 908.779 560.493 918.397 553.818 926.795 549.559 933.973L576.619 933.973C578.964 933.973 580.854 933.829 582.289 933.542 583.725 933.255 584.873 932.776 585.735 932.107 586.596 931.437 587.278 930.563 587.78 929.487 588.283 928.41 588.917 926.747 589.682 924.498L595.784 924.498 594.563 945.457 535.491 945.457 535.491 942.012C537.548 936.987 540.324 931.843 543.817 926.58 547.31 921.316 552.263 915.119 558.675 907.989 564.225 901.864 568.221 897.223 570.661 894.065 573.341 890.619 575.339 887.641 576.655 885.128 577.971 882.616 578.916 880.247 579.49 878.022 580.064 875.797 580.351 873.56 580.351 871.311 580.351 867.722 579.777 864.552 578.629 861.801 577.48 859.049 575.722 856.884 573.353 855.305 570.984 853.726 568.006 852.936 564.417 852.936 555.469 852.936 549.439 857.913 546.329 867.866L537.644 867.866 537.644 854.085C543.434 851.357 548.853 849.383 553.901 848.163 558.95 846.943 563.484 846.333 567.503 846.333Z" fill="#FFFFFF" fill-rule="evenodd"/><text fill="#000000" fill-opacity="0" font-family="Arial,Arial_MSFontService,sans-serif" font-size="99.1245" x="535.491" y="933.067">2</text><path d="M666.956 964.044C670.831 964.044 673.758 964.893 675.737 966.591 677.716 968.289 678.706 970.753 678.706 973.982 678.706 975.086 678.596 976.102 678.378 977.029 678.159 977.956 677.815 978.872 677.346 979.779 676.878 980.685 676.247 981.659 675.456 982.701 674.664 983.742 673.789 984.8 672.831 985.872 671.872 986.945 670.216 988.732 667.862 991.232 663.904 995.419 660.997 999.076 659.143 1002.2L670.924 1002.2C671.945 1002.2 672.768 1002.14 673.393 1002.01 674.018 1001.89 674.518 1001.68 674.893 1001.39 675.268 1001.1 675.565 1000.72 675.784 1000.25 676.003 999.779 676.279 999.055 676.612 998.076L679.268 998.076 678.737 1007.2 653.018 1007.2 653.018 1005.7C653.914 1003.51 655.122 1001.27 656.643 998.982 658.164 996.69 660.32 993.992 663.112 990.888 665.529 988.221 667.268 986.201 668.331 984.826 669.497 983.326 670.367 982.029 670.94 980.935 671.513 979.841 671.924 978.81 672.174 977.841 672.424 976.872 672.549 975.899 672.549 974.919 672.549 973.357 672.299 971.977 671.799 970.779 671.299 969.581 670.534 968.638 669.503 967.951 668.471 967.263 667.174 966.919 665.612 966.919 661.716 966.919 659.091 969.086 657.737 973.419L653.956 973.419 653.956 967.419C656.477 966.232 658.836 965.372 661.034 964.841 663.232 964.31 665.206 964.044 666.956 964.044Z" fill="#FFFFFF" fill-rule="evenodd"/><text fill="#000000" fill-opacity="0" font-family="Arial,Arial_MSFontService,sans-serif" font-size="43.1562" x="653.018" y="1001.81">2</text><path d="M144.5 385.188 3947.52 385.188 3947.52 405.813 144.5 405.813ZM3937.21 364.563 3999.08 395.501 3937.21 426.438Z"/><path d="M2245.18 312.135C2241.57 312.135 2238.09 313.961 2234.74 317.614 2231.39 321.266 2228.82 326.207 2227.03 332.438 2232.08 332.402 2236.41 331.946 2240.03 331.068 2243.65 330.191 2246.42 328.794 2248.35 326.879 2250.29 324.963 2251.25 322.376 2251.25 319.118 2251.25 316.933 2250.74 315.224 2249.72 313.988 2248.7 312.753 2247.19 312.135 2245.18 312.135ZM2105.94 308.322 2109.11 308.322 2101.37 342.804C2100.59 346.313 2100.19 348.963 2100.19 350.753 2100.19 352.186 2100.42 353.224 2100.89 353.869 2101.36 354.513 2102.09 354.835 2103.09 354.835 2104.17 354.835 2105.31 354.397 2106.53 353.519 2107.75 352.642 2109.47 350.968 2111.69 348.497L2114.75 351.505C2111.24 355.193 2108.39 357.7 2106.21 359.025 2104.02 360.35 2101.57 361.012 2098.85 361.012 2096.52 361.012 2094.66 360.162 2093.26 358.461 2091.87 356.76 2091.17 354.585 2091.17 351.935 2091.17 349.214 2091.67 345.74 2092.67 341.515L2096.7 323.952C2097.52 320.371 2097.94 317.685 2097.94 315.895 2097.94 314.284 2097.55 313.191 2096.78 312.619 2096.01 312.046 2094.5 311.723 2092.24 311.652L2092.83 308.805ZM2247.12 307.892C2251.45 307.892 2254.7 308.769 2256.87 310.524 2259.03 312.278 2260.12 315.018 2260.12 318.742 2260.12 324.829 2257.26 329.394 2251.55 332.438 2245.84 335.481 2237.36 337.003 2226.12 337.003 2225.69 339.152 2225.47 341.479 2225.47 343.986 2225.47 347.745 2226.21 350.476 2227.67 352.177 2229.14 353.877 2231.54 354.728 2234.87 354.728 2238.17 354.728 2241.15 354.012 2243.81 352.579 2246.48 351.147 2249.3 348.945 2252.27 345.973L2255.6 349.464C2252.13 353.296 2248.61 356.178 2245.05 358.112 2241.49 360.045 2237.34 361.012 2232.62 361.012 2227.42 361.012 2223.4 359.428 2220.56 356.259 2217.71 353.09 2216.29 348.676 2216.29 343.019 2216.29 339.188 2216.98 335.079 2218.36 330.692 2219.73 326.306 2221.82 322.367 2224.61 318.876 2227.41 315.385 2230.75 312.681 2234.66 310.766 2238.56 308.85 2242.71 307.892 2247.12 307.892ZM2134.57 307.892C2136.82 307.892 2138.6 308.635 2139.91 310.121 2141.22 311.607 2141.87 313.55 2141.87 315.949 2141.87 317.918 2141.46 320.013 2140.64 322.233L2141.28 322.448C2144.58 317.542 2147.85 313.899 2151.11 311.517 2154.37 309.136 2157.66 307.946 2160.99 307.946 2164.43 307.946 2167.04 308.921 2168.83 310.873 2170.63 312.824 2171.52 315.644 2171.52 319.332L2171.52 320.084C2171.52 320.335 2171.5 320.604 2171.47 320.89 2174.55 316.522 2177.62 313.272 2180.68 311.141 2183.74 309.011 2186.92 307.946 2190.21 307.946 2193.51 307.946 2196.05 308.895 2197.84 310.792 2199.63 312.69 2200.52 315.358 2200.52 318.795 2200.52 321.051 2200.01 324.256 2198.97 328.41L2195.48 342.482C2194.51 346.385 2194.03 349.142 2194.03 350.753 2194.03 352.186 2194.26 353.224 2194.72 353.869 2195.19 354.513 2195.92 354.835 2196.93 354.835 2198 354.835 2199.15 354.397 2200.36 353.519 2201.58 352.642 2203.3 350.968 2205.52 348.497L2208.58 351.505C2205.5 354.764 2202.82 357.163 2200.52 358.703 2198.23 360.242 2195.62 361.012 2192.68 361.012 2190.36 361.012 2188.49 360.18 2187.1 358.515 2185.7 356.849 2185 354.728 2185 352.15 2185 349.822 2185.59 346.403 2186.77 341.891L2189.14 332.599C2190 329.233 2190.56 326.745 2190.83 325.133 2191.1 323.522 2191.23 322.215 2191.23 321.212 2191.23 318.742 2190.82 316.96 2190 315.868 2189.17 314.776 2187.83 314.23 2185.97 314.23 2184.46 314.23 2182.85 314.794 2181.13 315.922 2179.42 317.05 2177.61 318.804 2175.71 321.185 2173.81 323.567 2172.26 325.912 2171.06 328.222 2169.86 330.531 2168.91 333.351 2168.19 336.681L2163.3 360.153 2154.01 360.153 2160.19 332.868C2160.94 329.537 2161.45 327.076 2161.72 325.482 2161.99 323.889 2162.12 322.519 2162.12 321.373 2162.12 318.795 2161.66 316.96 2160.75 315.868 2159.84 314.776 2158.42 314.23 2156.48 314.23 2155.12 314.23 2153.57 314.794 2151.84 315.922 2150.1 317.05 2148.25 318.858 2146.28 321.347 2144.31 323.835 2142.77 326.225 2141.66 328.517 2140.55 330.809 2139.62 333.602 2138.86 336.896L2133.76 360.153 2124.47 360.153 2132.31 326.1C2133.1 322.662 2133.49 320.013 2133.49 318.151 2133.49 316.718 2133.26 315.68 2132.79 315.036 2132.33 314.391 2131.6 314.069 2130.59 314.069 2129.48 314.069 2128.31 314.525 2127.07 315.438 2125.84 316.351 2124.15 318.008 2122 320.407L2118.94 317.399C2122.09 314.105 2124.8 311.697 2127.07 310.175 2129.35 308.653 2131.85 307.892 2134.57 307.892ZM2060.65 295.538 2068.06 295.538 2065.11 308.805 2081.44 308.805 2080.25 314.23 2063.93 314.23 2059.15 335.07C2058.21 339.116 2057.62 342.025 2057.37 343.798 2057.12 345.57 2057 346.994 2057 348.068 2057 352.508 2058.84 354.728 2062.53 354.728 2064.1 354.728 2065.78 354.128 2067.55 352.929 2069.32 351.729 2071.43 349.679 2073.86 346.779L2076.98 350.001C2073.86 353.761 2070.86 356.536 2067.98 358.327 2065.1 360.117 2062.08 361.012 2058.93 361.012 2051.45 361.012 2047.71 357.234 2047.71 349.679 2047.71 347.28 2048.01 344.756 2048.62 342.106L2054.96 314.23 2045.93 314.23 2046.74 310.524C2048.85 310.488 2050.45 310.327 2051.55 310.04 2052.64 309.754 2053.55 309.36 2054.28 308.859 2055.02 308.357 2055.69 307.641 2056.3 306.71 2056.91 305.779 2057.5 304.589 2058.07 303.139 2058.64 301.688 2059.5 299.155 2060.65 295.538ZM2104.49 287.75 2114 287.75 2111.52 298.17 2102.02 298.17Z" fill-rule="evenodd"/><text fill="#000000" fill-opacity="0" font-family="Arial,Arial_MSFontService,sans-serif" font-size="73.2617" x="2045.93" y="351.854">𝑡𝑖𝑚𝑒</text><path d="M425.781 596.844 467.031 596.844 467.031 607.156 425.781 607.156ZM497.968 596.844 539.218 596.844 539.218 607.156 497.968 607.156ZM570.156 596.844 611.406 596.844 611.406 607.156 570.156 607.156ZM642.343 596.844 683.593 596.844 683.593 607.156 642.343 607.156ZM714.531 596.844 755.781 596.844 755.781 607.156 714.531 607.156ZM786.718 596.844 827.968 596.844 827.968 607.156 786.718 607.156ZM858.906 596.844 900.156 596.844 900.156 607.156 858.906 607.156ZM931.093 596.844 972.343 596.844 972.343 607.156 931.093 607.156ZM1003.28 596.844 1044.53 596.844 1044.53 607.156 1003.28 607.156ZM1075.47 596.844 1116.72 596.844 1116.72 607.156 1075.47 607.156ZM1147.66 596.844 1188.91 596.844 1188.91 607.156 1147.66 607.156ZM1219.84 596.844 1261.09 596.844 1261.09 607.156 1219.84 607.156ZM1292.03 596.844 1333.28 596.844 1333.28 607.156 1292.03 607.156ZM1364.22 596.844 1405.47 596.844 1405.47 607.156 1364.22 607.156ZM1436.41 596.844 1477.66 596.844 1477.66 607.156 1436.41 607.156ZM1508.59 596.844 1549.84 596.844 1549.84 607.156 1508.59 607.156ZM1580.78 596.844 1622.03 596.844 1622.03 607.156 1580.78 607.156ZM1652.97 596.844 1694.22 596.844 1694.22 607.156 1652.97 607.156ZM1725.16 596.844 1766.41 596.844 1766.41 607.156 1725.16 607.156ZM1797.34 596.844 1838.59 596.844 1838.59 607.156 1797.34 607.156ZM1869.53 596.844 1910.78 596.844 1910.78 607.156 1869.53 607.156ZM1941.72 596.844 1982.97 596.844 1982.97 607.156 1941.72 607.156ZM2013.91 596.844 2055.16 596.844 2055.16 607.156 2013.91 607.156ZM2086.09 596.844 2127.34 596.844 2127.34 607.156 2086.09 607.156ZM2158.28 596.844 2199.53 596.844 2199.53 607.156 2158.28 607.156ZM2230.47 596.844 2271.72 596.844 2271.72 607.156 2230.47 607.156ZM2302.66 596.844 2343.91 596.844 2343.91 607.156 2302.66 607.156ZM2374.84 596.844 2416.09 596.844 2416.09 607.156 2374.84 607.156ZM2447.03 596.844 2488.28 596.844 2488.28 607.156 2447.03 607.156ZM2519.22 596.844 2560.47 596.844 2560.47 607.156 2519.22 607.156ZM2591.41 596.844 2632.66 596.844 2632.66 607.156 2591.41 607.156ZM2663.59 596.844 2704.84 596.844 2704.84 607.156 2663.59 607.156ZM2735.78 596.844 2777.03 596.844 2777.03 607.156 2735.78 607.156ZM2807.97 596.844 2849.22 596.844 2849.22 607.156 2807.97 607.156ZM2880.16 596.844 2921.41 596.844 2921.41 607.156 2880.16 607.156ZM2952.34 596.844 2993.59 596.844 2993.59 607.156 2952.34 607.156ZM3024.53 596.844 3065.78 596.844 3065.78 607.156 3024.53 607.156ZM3096.72 596.844 3137.97 596.844 3137.97 607.156 3096.72 607.156ZM3168.91 596.844 3210.16 596.844 3210.16 607.156 3168.91 607.156ZM3241.09 596.844 3282.34 596.844 3282.34 607.156 3241.09 607.156ZM3313.28 596.844 3354.53 596.844 3354.53 607.156 3313.28 607.156ZM3385.47 596.844 3426.72 596.844 3426.72 607.156 3385.47 607.156ZM3457.66 596.844 3498.91 596.844 3498.91 607.156 3457.66 607.156ZM3529.84 596.844 3571.09 596.844 3571.09 607.156 3529.84 607.156ZM3602.03 596.844 3643.28 596.844 3643.28 607.156 3602.03 607.156ZM3674.22 596.844 3715.47 596.844 3715.47 607.156 3674.22 607.156ZM430.938 617.469 400 602 430.938 586.531ZM3711.55 586.531 3742.49 602 3711.55 617.469Z" fill="#595959"/><path d="M25.7749-5.14892 67.0249-5.13718 67.022 5.17532 25.772 5.16358ZM97.9624-5.12838 139.212-5.11664 139.209 5.19586 97.9595 5.18412ZM170.15-5.10784 211.4-5.0961 211.397 5.2164 170.147 5.20466ZM242.337-5.0873 283.587-5.07556 283.584 5.23693 242.334 5.2252ZM314.525-5.06676 355.775-5.05503 355.772 5.25747 314.522 5.24574ZM386.712-5.04622 427.962-5.03449 427.959 5.27801 386.709 5.26627ZM458.9-5.02569 500.15-5.01395 500.147 5.29855 458.897 5.28681ZM531.087-5.00515 572.337-4.99341 572.334 5.31909 531.084 5.30735ZM603.275-4.98461 644.525-4.97287 644.522 5.33963 603.272 5.32789ZM675.462-4.96407 716.712-4.95233 716.709 5.36017 675.459 5.34843ZM747.65-4.94353 788.9-4.9318 788.897 5.3807 747.647 5.36897ZM819.837-4.92299 861.087-4.91126 861.084 5.40124 819.834 5.38951ZM892.025-4.90245 933.275-4.89072 933.272 5.42178 892.022 5.41004ZM964.212-4.88192 1005.46-4.87018 1005.46 5.44232 964.209 5.43058ZM1036.4-4.86138 1077.65-4.84964 1077.65 5.46286 1036.4 5.45112ZM1108.59-4.84084 1149.84-4.8291 1149.83 5.4834 1108.58 5.47166ZM1180.77-4.8203 1222.02-4.80856 1222.02 5.50393 1180.77 5.4922ZM1252.96-4.79976 1294.21-4.78803 1294.21 5.52447 1252.96 5.51274ZM1325.15-4.77922 1366.4-4.76749 1366.4 5.54501 1325.15 5.53328ZM1397.34-4.75869 1438.59-4.74695 1438.58 5.56555 1397.33 5.55381ZM1469.52-4.73815 1510.77-4.72641 1510.77 5.58609 1469.52 5.57435ZM1541.71-4.71761 1582.96-4.70587 1582.96 5.60663 1541.71 5.59489ZM1613.9-4.69707 1655.15-4.68533 1655.15 5.62717 1613.9 5.61543ZM1686.09-4.67653 1727.34-4.6648 1727.33 5.6477 1686.08 5.63597ZM1758.27-4.65599 1799.52-4.64426 1799.52 5.66824 1758.27 5.65651ZM1830.46-4.63545 1871.71-4.62372 1871.71 5.68878 1830.46 5.67704ZM1902.65-4.61492 1943.9-4.60318 1943.9 5.70932 1902.65 5.69758ZM1974.84-4.59438 2016.09-4.58264 2016.08 5.72986 1974.83 5.71812ZM2047.02-4.57384 2088.27-4.5621 2088.27 5.7504 2047.02 5.73866ZM2119.21-4.5533 2160.46-4.54156 2160.46 5.77094 2119.21 5.7592ZM2191.4-4.53276 2232.65-4.52103 2232.65 5.79147 2191.4 5.77974ZM2263.59-4.51222 2304.84-4.50049 2304.83 5.81201 2263.58 5.80028ZM2335.77-4.49169 2377.02-4.47995 2377.02 5.83255 2335.77 5.82081ZM2407.96-4.47115 2449.21-4.45941 2449.21 5.85309 2407.96 5.84135ZM2480.15-4.45061 2521.4-4.43887 2521.4 5.87363 2480.15 5.86189ZM2552.34-4.43007 2593.59-4.41833 2593.58 5.89417 2552.33 5.88243ZM2624.52-4.40953 2665.77-4.3978 2665.77 5.9147 2624.52 5.90297ZM2696.71-4.38899 2737.96-4.37726 2737.96 5.93524 2696.71 5.92351ZM2768.9-4.36845 2810.15-4.35672 2810.15 5.95578 2768.9 5.94405ZM2841.09-4.34792 2882.34-4.33618 2882.33 5.97632 2841.08 5.96458ZM2913.27-4.32738 2954.52-4.31564 2954.52 5.99686 2913.27 5.98512ZM2985.46-4.30684 2995.65-4.30394 2995.65 6.00856 2985.46 6.00566ZM30.9331 15.4776 0 0 30.9419-15.4599ZM2990.5-14.6179 3021.43 0.859646 2990.49 16.3196Z" fill="#595959" transform="matrix(1 0 0 -1 695 890.86)"/><path d="M25.802-5.0573 67.0517-4.89905 67.0121 5.41337 25.7624 5.25512ZM97.989-4.78037 139.239-4.62212 139.199 5.69031 97.9494 5.53206ZM170.176-4.50343 211.426-4.34518 211.386 5.96724 170.136 5.80899ZM242.363-4.2265 283.613-4.06825 283.573 6.24418 242.323 6.08593ZM314.55-3.94956 355.8-3.79131 355.76 6.52111 314.51 6.36286ZM386.737-3.67262 427.987-3.51437 427.947 6.79805 386.697 6.6398ZM458.924-3.39569 500.174-3.23744 500.134 7.07498 458.884 6.91674ZM531.111-3.11875 572.36-2.9605 572.321 7.35192 531.071 7.19367ZM603.298-2.84182 644.547-2.68357 644.508 7.62886 603.258 7.47061ZM675.485-2.56488 716.734-2.40663 716.695 7.90579 675.445 7.74754ZM747.672-2.28795 788.921-2.1297 788.882 8.18273 747.632 8.02448ZM819.859-2.01101 861.108-1.85276 861.069 8.45966 819.819 8.30141ZM892.046-1.73407 933.295-1.57583 933.256 8.7366 892.006 8.57835ZM964.233-1.45714 1005.48-1.29889 1005.44 9.01353 964.193 8.85528ZM1036.42-1.1802 1077.67-1.02195 1077.63 9.29047 1036.38 9.13222ZM30.8779 15.5873 0 0 30.9966-15.3499ZM1089.51-11.2891 1120.39 4.29823 1089.39 19.6482Z" fill="#595959" transform="matrix(1 0 0 -1 2072 1195.3)"/><path d="M869.781 1343.84 911.031 1343.84 911.031 1354.16 869.781 1354.16ZM941.969 1343.84 983.219 1343.84 983.219 1354.16 941.969 1354.16ZM1014.16 1343.84 1055.41 1343.84 1055.41 1354.16 1014.16 1354.16ZM1086.34 1343.84 1109.07 1343.84 1109.07 1354.16 1086.34 1354.16ZM874.937 1364.47 844 1349 874.937 1333.53ZM1103.91 1333.53 1134.85 1349 1103.91 1364.47Z" fill="#595959"/><path d="M1447.5 1494C1447.5 1442.91 1488.91 1401.5 1540 1401.5 1591.09 1401.5 1632.5 1442.91 1632.5 1494 1632.5 1545.09 1591.09 1586.5 1540 1586.5 1488.91 1586.5 1447.5 1545.09 1447.5 1494Z" stroke="#29ABCA" stroke-width="20.625" stroke-miterlimit="8" fill="#236B8E" fill-rule="evenodd"/><path d="M1560.78 1452.48 1565.66 1452.48 1564.72 1466.98 1528.78 1466.98 1528.78 1494.42C1530.95 1493.5 1533.3 1492.82 1535.85 1492.36 1538.39 1491.9 1540.93 1491.67 1543.47 1491.67 1548.43 1491.67 1552.82 1492.68 1556.66 1494.7 1560.49 1496.72 1563.45 1499.6 1565.53 1503.33 1567.62 1507.06 1568.66 1511.38 1568.66 1516.3 1568.66 1521.88 1567.49 1526.67 1565.16 1530.67 1562.82 1534.67 1559.45 1537.71 1555.03 1539.8 1550.62 1541.88 1545.39 1542.92 1539.35 1542.92 1532.14 1542.92 1524.6 1541.44 1516.72 1538.48L1516.72 1525.23 1524.28 1525.23C1525.53 1529.48 1527.42 1532.61 1529.94 1534.61 1532.46 1536.61 1535.72 1537.61 1539.72 1537.61 1545.26 1537.61 1549.45 1535.94 1552.28 1532.61 1555.12 1529.27 1556.53 1524.3 1556.53 1517.67 1556.53 1513.25 1555.78 1509.6 1554.28 1506.7 1552.78 1503.81 1550.76 1501.71 1548.22 1500.42 1545.68 1499.13 1542.72 1498.48 1539.35 1498.48 1536.51 1498.48 1534.07 1498.66 1532.03 1499.01 1529.99 1499.37 1527.8 1499.92 1525.47 1500.67L1520.47 1497.73 1520.47 1456.61 1554.91 1456.61C1556.32 1456.61 1557.35 1456.49 1557.97 1456.26 1558.6 1456.04 1559.1 1455.68 1559.47 1455.2 1559.85 1454.72 1560.28 1453.82 1560.78 1452.48Z" fill="#FFFFFF" fill-rule="evenodd"/><text fill="#000000" fill-opacity="0" font-family="Arial,Arial_MSFontService,sans-serif" font-size="90.4375" x="1516.72" y="1531.62">5</text><path d="M2055.5 890C2055.5 838.914 2096.91 797.5 2148 797.5 2199.09 797.5 2240.5 838.914 2240.5 890 2240.5 941.086 2199.09 982.5 2148 982.5 2096.91 982.5 2055.5 941.086 2055.5 890Z" stroke="#29ABCA" stroke-width="20.625" stroke-miterlimit="8" fill="#236B8E" fill-rule="evenodd"/><path d="M2150.6 851.295C2158.35 851.295 2164.2 852.993 2168.16 856.389 2172.12 859.785 2174.1 864.712 2174.1 871.17 2174.1 873.379 2173.88 875.41 2173.44 877.264 2173.01 879.118 2172.32 880.952 2171.38 882.764 2170.44 884.577 2169.18 886.524 2167.6 888.608 2166.02 890.691 2164.27 892.806 2162.35 894.952 2160.43 897.097 2157.12 900.67 2152.41 905.67 2144.5 914.045 2138.68 921.358 2134.98 927.608L2158.54 927.608C2160.58 927.608 2162.23 927.483 2163.48 927.233 2164.73 926.983 2165.73 926.566 2166.48 925.983 2167.23 925.399 2167.82 924.639 2168.26 923.702 2168.69 922.764 2169.25 921.316 2169.91 919.358L2175.23 919.358 2174.16 937.608 2122.73 937.608 2122.73 934.608C2124.52 930.233 2126.93 925.754 2129.98 921.17 2133.02 916.587 2137.33 911.191 2142.91 904.983 2147.75 899.649 2151.23 895.608 2153.35 892.858 2155.68 889.858 2157.42 887.264 2158.57 885.077 2159.71 882.889 2160.54 880.827 2161.04 878.889 2161.54 876.952 2161.79 875.004 2161.79 873.045 2161.79 869.92 2161.29 867.16 2160.29 864.764 2159.29 862.368 2157.76 860.483 2155.69 859.108 2153.63 857.733 2151.04 857.045 2147.91 857.045 2140.12 857.045 2134.87 861.379 2132.16 870.045L2124.6 870.045 2124.6 858.045C2129.64 855.67 2134.36 853.952 2138.76 852.889 2143.15 851.827 2147.1 851.295 2150.6 851.295Z" fill="#FFFFFF" fill-rule="evenodd"/><text fill="#000000" fill-opacity="0" font-family="Arial,Arial_MSFontService,sans-serif" font-size="86.3125" x="2122.73" y="926.819">2</text><path d="M2540.5 1193C2540.5 1141.91 2581.91 1100.5 2633 1100.5 2684.09 1100.5 2725.5 1141.91 2725.5 1193 2725.5 1244.09 2684.09 1285.5 2633 1285.5 2581.91 1285.5 2540.5 1244.09 2540.5 1193Z" stroke="#29ABCA" stroke-width="20.625" stroke-miterlimit="8" fill="#236B8E" fill-rule="evenodd"/><path d="M2635.53 1154.51C2640.24 1154.51 2644.37 1155.24 2647.91 1156.7 2651.45 1158.16 2654.16 1160.25 2656.03 1162.98 2657.91 1165.71 2658.85 1168.97 2658.85 1172.76 2658.85 1176.31 2658.14 1179.42 2656.72 1182.11 2655.3 1184.8 2653.31 1187.14 2650.75 1189.14 2648.19 1191.14 2644.87 1193.1 2640.78 1195.01L2640.78 1195.58C2643.32 1196.04 2645.77 1196.82 2648.13 1197.92 2650.48 1199.03 2652.57 1200.45 2654.41 1202.2 2656.24 1203.95 2657.71 1206.05 2658.81 1208.48 2659.92 1210.92 2660.47 1213.7 2660.47 1216.83 2660.47 1221.66 2659.42 1225.95 2657.31 1229.7 2655.21 1233.45 2651.99 1236.41 2647.66 1238.58 2643.32 1240.74 2638.05 1241.83 2631.85 1241.83 2628.26 1241.83 2624.4 1241.42 2620.25 1240.61 2616.11 1239.8 2612.3 1238.72 2608.85 1237.39L2608.85 1224.14 2616.35 1224.14C2617.8 1228.47 2619.73 1231.62 2622.13 1233.58 2624.52 1235.54 2627.78 1236.51 2631.91 1236.51 2637.32 1236.51 2641.42 1235.04 2644.19 1232.08 2646.96 1229.12 2648.35 1224.74 2648.35 1218.95 2648.35 1212.87 2646.51 1208.22 2642.85 1205.01 2639.18 1201.81 2633.8 1200.2 2626.72 1200.2L2621.1 1200.2 2621.1 1194.7C2626.72 1194.37 2631.46 1193.29 2635.31 1191.45 2639.17 1189.62 2642.03 1187.26 2643.91 1184.39 2645.78 1181.51 2646.72 1178.29 2646.72 1174.7 2646.72 1170.08 2645.49 1166.51 2643.03 1164.01 2640.57 1161.51 2636.99 1160.26 2632.28 1160.26 2628.37 1160.26 2625.18 1161.33 2622.72 1163.45 2620.26 1165.58 2618.45 1168.83 2617.28 1173.2L2609.78 1173.2 2609.78 1161.33C2614.62 1159.04 2619.14 1157.33 2623.35 1156.2 2627.55 1155.08 2631.62 1154.51 2635.53 1154.51Z" fill="#FFFFFF" fill-rule="evenodd"/><text fill="#000000" fill-opacity="0" font-family="Arial,Arial_MSFontService,sans-serif" font-size="87.3125" x="2608.85" y="1230.91">3</text><path d="M2053.5 602C2053.5 550.914 2094.91 509.5 2146 509.5 2197.09 509.5 2238.5 550.914 2238.5 602 2238.5 653.086 2197.09 694.5 2146 694.5 2094.91 694.5 2053.5 653.086 2053.5 602Z" stroke="#29ABCA" stroke-width="20.625" stroke-miterlimit="8" fill="#236B8E" fill-rule="evenodd"/><path d="M2153.47 563.254 2156.91 563.254C2156.66 567.254 2156.54 572.796 2156.54 579.879L2156.54 633.254C2156.54 635.671 2156.67 637.494 2156.94 638.723 2157.21 639.952 2157.69 640.952 2158.38 641.723 2159.07 642.494 2160.06 643.098 2161.35 643.535 2162.64 643.973 2164.27 644.306 2166.22 644.535 2168.18 644.765 2170.77 644.921 2173.97 645.004L2173.97 649.567 2127.79 649.567 2127.79 645.004C2132.41 644.796 2135.71 644.515 2137.69 644.16 2139.67 643.806 2141.18 643.275 2142.22 642.567 2143.27 641.858 2144.03 640.858 2144.51 639.567 2144.98 638.275 2145.22 636.171 2145.22 633.254L2145.22 582.567C2145.22 580.9 2144.93 579.681 2144.35 578.91 2143.77 578.14 2142.91 577.754 2141.79 577.754 2140.45 577.754 2138.56 578.442 2136.1 579.817 2133.64 581.192 2130.6 583.087 2126.97 585.504L2124.22 580.692Z" fill="#FFFFFF" fill-rule="evenodd"/><text fill="#000000" fill-opacity="0" font-family="Arial,Arial_MSFontService,sans-serif" font-size="86.3125" x="2124.22" y="638.778">1</text><path d="M889.5 1494C889.5 1442.91 930.914 1401.5 982 1401.5 1033.09 1401.5 1074.5 1442.91 1074.5 1494 1074.5 1545.09 1033.09 1586.5 982 1586.5 930.914 1586.5 889.5 1545.09 889.5 1494Z" stroke="#29ABCA" stroke-width="20.625" stroke-miterlimit="8" fill="#236B8E" fill-rule="evenodd"/><path d="M989.002 1470.3 964.564 1509.11 964.564 1509.98 989.002 1509.98 989.002 1494.42C989.002 1490.5 989.064 1486.12 989.189 1481.26 989.314 1476.41 989.46 1472.75 989.627 1470.3ZM990.814 1456.17 999.752 1456.17 999.752 1509.98 1001.06 1509.98C1003.48 1509.98 1005.21 1509.81 1006.25 1509.45 1007.29 1509.1 1008.16 1508.47 1008.85 1507.58 1009.53 1506.68 1010.17 1505.21 1010.75 1503.17L1015.5 1503.17 1014.75 1516.05 999.752 1516.05 999.752 1526.3C999.752 1529.09 999.846 1531.13 1000.03 1532.42 1000.22 1533.71 1000.53 1534.73 1000.97 1535.48 1001.41 1536.23 1002.05 1536.86 1002.91 1537.36 1003.76 1537.86 1005.15 1538.36 1007.06 1538.86L1007.06 1541.92 981.689 1541.92 981.689 1538.86C984.273 1538.19 986.002 1537.45 986.877 1536.64 987.752 1535.83 988.325 1534.67 988.596 1533.17 988.866 1531.67 989.002 1529.38 989.002 1526.3L989.002 1516.05 954.252 1516.05 954.252 1511.36Z" fill="#FFFFFF" fill-rule="evenodd"/><text fill="#000000" fill-opacity="0" font-family="Arial,Arial_MSFontService,sans-serif" font-size="85.75" x="954.252" y="1531.2">4</text><rect x="714.5" y="1067.5" width="256" height="256" stroke="#000000" stroke-width="6.875" stroke-miterlimit="8" fill="#B4BB22"/><path d="M842.791 1150.86C851.691 1150.86 858.414 1152.81 862.96 1156.71 867.506 1160.61 869.779 1166.27 869.779 1173.69 869.779 1176.22 869.528 1178.56 869.025 1180.69 868.523 1182.82 867.733 1184.92 866.657 1187 865.58 1189.08 864.133 1191.32 862.314 1193.71 860.496 1196.11 858.486 1198.54 856.285 1201 854.084 1203.46 850.28 1207.57 844.872 1213.31 835.781 1222.93 829.105 1231.33 824.846 1238.5L851.907 1238.5C854.251 1238.5 856.141 1238.36 857.577 1238.07 859.013 1237.79 860.161 1237.31 861.022 1236.64 861.884 1235.97 862.565 1235.09 863.068 1234.02 863.57 1232.94 864.204 1231.28 864.97 1229.03L871.071 1229.03 869.851 1249.99 810.778 1249.99 810.778 1246.54C812.836 1241.52 815.611 1236.37 819.104 1231.11 822.597 1225.85 827.55 1219.65 833.962 1212.52 839.513 1206.4 843.509 1201.75 845.949 1198.6 848.629 1195.15 850.627 1192.17 851.942 1189.66 853.258 1187.15 854.203 1184.78 854.778 1182.55 855.352 1180.33 855.639 1178.09 855.639 1175.84 855.639 1172.25 855.065 1169.08 853.916 1166.33 852.768 1163.58 851.009 1161.41 848.641 1159.84 846.272 1158.26 843.293 1157.47 839.704 1157.47 830.756 1157.47 824.727 1162.44 821.617 1172.4L812.931 1172.4 812.931 1158.62C818.721 1155.89 824.141 1153.91 829.189 1152.69 834.237 1151.47 838.771 1150.86 842.791 1150.86Z" fill="#FFFFFF" fill-rule="evenodd"/><text fill="#000000" fill-opacity="0" font-family="Arial,Arial_MSFontService,sans-serif" font-size="99.1245" x="810.778" y="1237.6">2</text><path d="M944.056 1275.92 931.837 1295.33 931.837 1295.76 944.056 1295.76 944.056 1287.98C944.056 1286.02 944.087 1283.83 944.15 1281.4 944.212 1278.98 944.285 1277.15 944.368 1275.92ZM944.962 1268.86 949.431 1268.86 949.431 1295.76 950.087 1295.76C951.295 1295.76 952.16 1295.67 952.681 1295.5 953.202 1295.32 953.634 1295.01 953.978 1294.56 954.321 1294.11 954.639 1293.38 954.931 1292.36L957.306 1292.36 956.931 1298.79 949.431 1298.79 949.431 1303.92C949.431 1305.31 949.478 1306.34 949.571 1306.98 949.665 1307.63 949.821 1308.14 950.04 1308.51 950.259 1308.89 950.582 1309.2 951.009 1309.45 951.436 1309.7 952.129 1309.95 953.087 1310.2L953.087 1311.73 940.4 1311.73 940.4 1310.2C941.691 1309.87 942.556 1309.5 942.993 1309.09 943.431 1308.68 943.717 1308.11 943.853 1307.36 943.988 1306.61 944.056 1305.46 944.056 1303.92L944.056 1298.79 926.681 1298.79 926.681 1296.45Z" fill="#FFFFFF" fill-rule="evenodd"/><text fill="#000000" fill-opacity="0" font-family="Arial,Arial_MSFontService,sans-serif" font-size="42.875" x="926.681" y="1306.37">4</text><rect x="990.5" y="1067.5" width="256" height="257" stroke="#000000" stroke-width="6.875" stroke-miterlimit="8" fill="#F86A7B"/><path d="M1122.24 1168.26 1094.18 1212.83 1094.18 1213.83 1122.24 1213.83 1122.24 1195.96C1122.24 1191.46 1122.31 1186.43 1122.46 1180.85 1122.6 1175.28 1122.77 1171.08 1122.96 1168.26ZM1124.32 1152.03 1134.59 1152.03 1134.59 1213.83 1136.09 1213.83C1138.87 1213.83 1140.86 1213.63 1142.05 1213.22 1143.25 1212.82 1144.24 1212.1 1145.03 1211.07 1145.82 1210.04 1146.55 1208.36 1147.22 1206.01L1152.68 1206.01 1151.81 1220.8 1134.59 1220.8 1134.59 1232.57C1134.59 1235.77 1134.69 1238.12 1134.91 1239.6 1135.13 1241.09 1135.48 1242.26 1135.99 1243.12 1136.49 1243.98 1137.23 1244.7 1138.21 1245.27 1139.19 1245.85 1140.78 1246.42 1142.99 1247L1142.99 1250.51 1113.84 1250.51 1113.84 1247C1116.81 1246.23 1118.8 1245.38 1119.8 1244.45 1120.81 1243.51 1121.46 1242.19 1121.78 1240.46 1122.09 1238.74 1122.24 1236.11 1122.24 1232.57L1122.24 1220.8 1082.33 1220.8 1082.33 1215.41Z" fill="#FFFFFF" fill-rule="evenodd"/><text fill="#000000" fill-opacity="0" font-family="Arial,Arial_MSFontService,sans-serif" font-size="98.4785" x="1082.33" y="1238.2">4</text><path d="M1219.34 1276.44 1207.12 1295.85 1207.12 1296.29 1219.34 1296.29 1219.34 1288.51C1219.34 1286.55 1219.37 1284.36 1219.44 1281.93 1219.5 1279.5 1219.57 1277.67 1219.66 1276.44ZM1220.25 1269.38 1224.72 1269.38 1224.72 1296.29 1225.37 1296.29C1226.58 1296.29 1227.45 1296.2 1227.97 1296.02 1228.49 1295.84 1228.92 1295.53 1229.27 1295.08 1229.61 1294.64 1229.93 1293.9 1230.22 1292.88L1232.59 1292.88 1232.22 1299.32 1224.72 1299.32 1224.72 1304.44C1224.72 1305.84 1224.77 1306.86 1224.86 1307.51 1224.95 1308.15 1225.11 1308.66 1225.33 1309.04 1225.55 1309.41 1225.87 1309.73 1226.3 1309.98 1226.72 1310.23 1227.42 1310.48 1228.37 1310.73L1228.37 1312.26 1215.69 1312.26 1215.69 1310.73C1216.98 1310.39 1217.84 1310.02 1218.28 1309.62 1218.72 1309.21 1219.01 1308.63 1219.14 1307.88 1219.28 1307.13 1219.34 1305.99 1219.34 1304.44L1219.34 1299.32 1201.97 1299.32 1201.97 1296.98Z" fill="#FFFFFF" fill-rule="evenodd"/><text fill="#000000" fill-opacity="0" font-family="Arial,Arial_MSFontService,sans-serif" font-size="42.875" x="1201.97" y="1306.9">4</text><rect x="1265.5" y="1066.5" width="256" height="257" stroke="#000000" stroke-width="6.875" stroke-miterlimit="8" fill="#B4BB22"/><path d="M1413.46 1147 1419.06 1147 1417.99 1163.65 1376.71 1163.65 1376.71 1195.16C1379.2 1194.11 1381.91 1193.32 1384.82 1192.79 1387.74 1192.26 1390.66 1192 1393.58 1192 1399.28 1192 1404.32 1193.16 1408.73 1195.48 1413.13 1197.8 1416.53 1201.1 1418.92 1205.39 1421.31 1209.67 1422.51 1214.64 1422.51 1220.28 1422.51 1226.69 1421.17 1232.2 1418.49 1236.79 1415.81 1241.38 1411.93 1244.88 1406.86 1247.27 1401.79 1249.66 1395.78 1250.86 1388.84 1250.86 1380.57 1250.86 1371.9 1249.16 1362.86 1245.76L1362.86 1230.55 1371.55 1230.55C1372.98 1235.43 1375.15 1239.02 1378.04 1241.31 1380.94 1243.61 1384.68 1244.76 1389.27 1244.76 1395.64 1244.76 1400.45 1242.84 1403.7 1239.02 1406.96 1235.19 1408.58 1229.47 1408.58 1221.86 1408.58 1216.79 1407.72 1212.59 1406 1209.26 1404.28 1205.94 1401.96 1203.53 1399.04 1202.05 1396.12 1200.57 1392.72 1199.82 1388.84 1199.82 1385.59 1199.82 1382.79 1200.03 1380.45 1200.44 1378.1 1200.84 1375.59 1201.48 1372.91 1202.34L1367.17 1198.96 1367.17 1151.73 1406.72 1151.73C1408.34 1151.73 1409.52 1151.6 1410.23 1151.34 1410.95 1151.08 1411.53 1150.67 1411.96 1150.12 1412.39 1149.57 1412.89 1148.53 1413.46 1147Z" fill="#FFFFFF" fill-rule="evenodd"/><text fill="#000000" fill-opacity="0" font-family="Arial,Arial_MSFontService,sans-serif" font-size="103.862" x="1362.86" y="1237.88">5</text><path d="M1501.57 1266.91 1504.01 1266.91 1503.54 1274.16 1485.57 1274.16 1485.57 1287.88C1486.65 1287.42 1487.83 1287.08 1489.1 1286.85 1490.37 1286.62 1491.64 1286.5 1492.91 1286.5 1495.39 1286.5 1497.59 1287.01 1499.51 1288.02 1501.42 1289.03 1502.9 1290.47 1503.94 1292.33 1504.99 1294.2 1505.51 1296.36 1505.51 1298.81 1505.51 1301.61 1504.92 1304 1503.76 1306 1502.59 1308 1500.9 1309.52 1498.69 1310.56 1496.49 1311.61 1493.87 1312.13 1490.85 1312.13 1487.25 1312.13 1483.47 1311.39 1479.54 1309.91L1479.54 1303.28 1483.32 1303.28C1483.94 1305.41 1484.89 1306.97 1486.15 1307.97 1487.41 1308.97 1489.04 1309.47 1491.04 1309.47 1493.81 1309.47 1495.9 1308.64 1497.32 1306.97 1498.74 1305.3 1499.44 1302.81 1499.44 1299.5 1499.44 1297.29 1499.07 1295.47 1498.32 1294.02 1497.57 1292.57 1496.56 1291.52 1495.29 1290.88 1494.02 1290.23 1492.54 1289.91 1490.85 1289.91 1489.43 1289.91 1488.21 1290 1487.19 1290.17 1486.17 1290.35 1485.08 1290.63 1483.91 1291L1481.41 1289.53 1481.41 1268.97 1498.63 1268.97C1499.34 1268.97 1499.85 1268.91 1500.16 1268.8 1500.47 1268.68 1500.72 1268.51 1500.91 1268.27 1501.1 1268.03 1501.32 1267.58 1501.57 1266.91Z" fill="#FFFFFF" fill-rule="evenodd"/><text fill="#000000" fill-opacity="0" font-family="Arial,Arial_MSFontService,sans-serif" font-size="45.2188" x="1479.54" y="1306.48">5</text><rect x="1540.5" y="1067.5" width="256" height="256" stroke="#000000" stroke-width="6.875" stroke-miterlimit="8" fill="#F86A7B"/><path d="M1671.38 1198.71C1669.04 1198.71 1666.78 1198.97 1664.6 1199.5 1662.42 1200.02 1660.38 1200.79 1658.46 1201.79 1656.55 1202.8 1654.68 1204.07 1652.86 1205.6 1652.29 1206.13 1651.86 1206.68 1651.57 1207.25 1651.09 1208.16 1650.78 1209.28 1650.64 1210.62 1650.49 1211.96 1650.42 1214.21 1650.42 1217.37 1650.42 1226.51 1651.95 1233.47 1655.02 1238.26 1658.08 1243.04 1662.72 1245.44 1668.94 1245.44 1672.53 1245.44 1675.54 1244.81 1677.98 1243.57 1680.43 1242.32 1682.4 1240.61 1683.91 1238.44 1685.41 1236.26 1686.49 1233.7 1687.14 1230.76 1687.78 1227.81 1688.11 1224.62 1688.11 1221.17 1688.11 1214.09 1686.65 1208.58 1683.73 1204.63 1680.81 1200.68 1676.69 1198.71 1671.38 1198.71ZM1689.83 1151.26 1692.77 1155.21 1692.77 1158.73C1685.4 1158.73 1678.87 1160.31 1673.18 1163.47 1667.48 1166.62 1662.76 1171.27 1659 1177.39 1655.24 1183.52 1652.6 1190.79 1651.07 1199.21L1651.79 1199.5C1655.81 1196.63 1659.77 1194.52 1663.67 1193.18 1667.57 1191.84 1671.79 1191.17 1676.33 1191.17 1681.74 1191.17 1686.35 1192.36 1690.15 1194.72 1693.96 1197.09 1696.81 1200.42 1698.73 1204.7 1700.64 1208.98 1701.6 1214 1701.6 1219.74 1701.6 1225.96 1700.4 1231.45 1698.01 1236.21 1695.62 1240.97 1691.92 1244.72 1686.92 1247.44 1681.92 1250.17 1675.76 1251.54 1668.44 1251.54 1657.96 1251.54 1650.05 1248.28 1644.72 1241.77 1639.38 1235.27 1636.71 1225.67 1636.71 1212.99 1636.71 1204.47 1638.05 1196.51 1640.73 1189.09 1643.41 1181.67 1647.22 1175.2 1652.14 1169.67 1657.07 1164.15 1662.79 1159.79 1669.3 1156.61 1675.81 1153.43 1682.65 1151.65 1689.83 1151.26Z" fill="#FFFFFF" fill-rule="evenodd"/><text fill="#000000" fill-opacity="0" font-family="Arial,Arial_MSFontService,sans-serif" font-size="100.273" x="1636.71" y="1239">6</text><path d="M1776.86 1267.41 1779.29 1267.41 1778.82 1274.66 1760.86 1274.66 1760.86 1288.38C1761.94 1287.92 1763.12 1287.58 1764.39 1287.35 1765.66 1287.12 1766.93 1287.01 1768.2 1287.01 1770.68 1287.01 1772.88 1287.51 1774.79 1288.52 1776.71 1289.53 1778.19 1290.97 1779.23 1292.83 1780.27 1294.7 1780.79 1296.86 1780.79 1299.32 1780.79 1302.11 1780.21 1304.51 1779.04 1306.51 1777.88 1308.51 1776.19 1310.03 1773.98 1311.07 1771.77 1312.11 1769.16 1312.63 1766.14 1312.63 1762.53 1312.63 1758.76 1311.89 1754.82 1310.41L1754.82 1303.79 1758.61 1303.79C1759.23 1305.91 1760.17 1307.47 1761.43 1308.47 1762.69 1309.47 1764.32 1309.97 1766.32 1309.97 1769.1 1309.97 1771.19 1309.14 1772.61 1307.47 1774.02 1305.81 1774.73 1303.32 1774.73 1300.01 1774.73 1297.8 1774.36 1295.97 1773.61 1294.52 1772.86 1293.07 1771.85 1292.03 1770.57 1291.38 1769.3 1290.74 1767.82 1290.41 1766.14 1290.41 1764.72 1290.41 1763.5 1290.5 1762.48 1290.68 1761.46 1290.86 1760.37 1291.13 1759.2 1291.51L1756.7 1290.04 1756.7 1269.47 1773.92 1269.47C1774.63 1269.47 1775.14 1269.42 1775.45 1269.3 1775.76 1269.19 1776.01 1269.01 1776.2 1268.77 1776.39 1268.53 1776.61 1268.08 1776.86 1267.41Z" fill="#FFFFFF" fill-rule="evenodd"/><text fill="#000000" fill-opacity="0" font-family="Arial,Arial_MSFontService,sans-serif" font-size="45.2188" x="1754.82" y="1306.98">5</text><rect x="1816.5" y="1068.5" width="256" height="256" stroke="#000000" stroke-width="6.875" stroke-miterlimit="8" fill="#B4BB22"/><path d="M1914.73 1152.74 1976.31 1152.74 1976.31 1156.18 1934.54 1251.22 1924.13 1251.22 1924.13 1247.7 1962.82 1165.8 1962.82 1164.73 1931.24 1164.73C1929.27 1164.73 1927.71 1164.91 1926.54 1165.26 1925.36 1165.62 1924.38 1166.14 1923.59 1166.81 1922.8 1167.48 1922.14 1168.36 1921.62 1169.46 1921.09 1170.56 1920.37 1172.74 1919.47 1176L1913.29 1176Z" fill="#FFFFFF" fill-rule="evenodd"/><text fill="#000000" fill-opacity="0" font-family="Arial,Arial_MSFontService,sans-serif" font-size="98.4785" x="1913.29" y="1238.91">7</text><path d="M2043.27 1269.3C2045.62 1269.3 2047.69 1269.67 2049.46 1270.4 2051.23 1271.13 2052.58 1272.17 2053.52 1273.54 2054.46 1274.9 2054.93 1276.53 2054.93 1278.43 2054.93 1280.2 2054.57 1281.76 2053.86 1283.1 2053.15 1284.44 2052.16 1285.62 2050.88 1286.62 2049.6 1287.62 2047.94 1288.59 2045.89 1289.55L2045.89 1289.83C2047.16 1290.06 2048.39 1290.45 2049.57 1291.01 2050.74 1291.56 2051.79 1292.27 2052.71 1293.15 2053.62 1294.02 2054.36 1295.07 2054.91 1296.29 2055.46 1297.51 2055.74 1298.9 2055.74 1300.46 2055.74 1302.88 2055.21 1305.02 2054.16 1306.9 2053.11 1308.77 2051.5 1310.25 2049.33 1311.33 2047.16 1312.42 2044.53 1312.96 2041.43 1312.96 2039.63 1312.96 2037.7 1312.76 2035.63 1312.35 2033.56 1311.94 2031.65 1311.41 2029.93 1310.74L2029.93 1304.12 2033.68 1304.12C2034.4 1306.28 2035.37 1307.85 2036.57 1308.83 2037.76 1309.81 2039.39 1310.3 2041.46 1310.3 2044.16 1310.3 2046.21 1309.56 2047.6 1308.08 2048.98 1306.6 2049.68 1304.42 2049.68 1301.52 2049.68 1298.48 2048.76 1296.16 2046.93 1294.55 2045.09 1292.95 2042.4 1292.15 2038.86 1292.15L2036.05 1292.15 2036.05 1289.4C2038.86 1289.23 2041.23 1288.69 2043.16 1287.77 2045.09 1286.85 2046.52 1285.68 2047.46 1284.24 2048.39 1282.8 2048.86 1281.19 2048.86 1279.4 2048.86 1277.08 2048.25 1275.3 2047.02 1274.05 2045.79 1272.8 2044 1272.18 2041.64 1272.18 2039.69 1272.18 2038.09 1272.71 2036.86 1273.77 2035.63 1274.83 2034.73 1276.46 2034.14 1278.65L2030.39 1278.65 2030.39 1272.71C2032.81 1271.56 2035.07 1270.71 2037.18 1270.15 2039.28 1269.58 2041.31 1269.3 2043.27 1269.3Z" fill="#FFFFFF" fill-rule="evenodd"/><text fill="#000000" fill-opacity="0" font-family="Arial,Arial_MSFontService,sans-serif" font-size="43.6562" x="2029.93" y="1307.5">3</text><rect x="2091.5" y="1352.5" width="256" height="256" stroke="#000000" stroke-width="6.875" stroke-miterlimit="8" fill="#B4BB22"/><path d="M2218.65 1487.27C2215.11 1487.27 2212.14 1487.82 2209.72 1488.92 2207.3 1490.02 2205.34 1491.51 2203.83 1493.37 2202.33 1495.24 2201.25 1497.43 2200.6 1499.94 2199.96 1502.45 2199.63 1505.14 2199.63 1508.01 2199.63 1511.12 2199.99 1514.03 2200.71 1516.74 2201.43 1519.44 2202.56 1521.77 2204.12 1523.73 2205.68 1525.7 2207.67 1527.25 2210.11 1528.4 2212.55 1529.55 2215.52 1530.12 2219.01 1530.12 2222.94 1530.12 2226.3 1529.32 2229.1 1527.72 2231.9 1526.11 2234.03 1523.73 2235.49 1520.58 2236.95 1517.42 2237.68 1513.68 2237.68 1509.38 2237.68 1504.78 2236.89 1500.82 2235.31 1497.5 2233.73 1494.17 2231.5 1491.64 2228.63 1489.89 2225.76 1488.14 2222.44 1487.27 2218.65 1487.27ZM2219.01 1442.05C2212.98 1442.05 2208.38 1443.69 2205.2 1446.97 2202.01 1450.25 2200.42 1454.9 2200.42 1460.93 2200.42 1463.75 2200.76 1466.41 2201.43 1468.9 2202.1 1471.38 2203.17 1473.54 2204.66 1475.36 2206.14 1477.17 2208.07 1478.62 2210.44 1479.7 2212.8 1480.77 2215.71 1481.31 2219.16 1481.31 2223.13 1481.31 2226.47 1480.54 2229.17 1478.98 2231.87 1477.43 2233.88 1475.15 2235.2 1472.16 2236.52 1469.17 2237.17 1465.71 2237.17 1461.79 2237.17 1457.48 2236.4 1453.83 2234.84 1450.84 2233.29 1447.85 2231.14 1445.64 2228.42 1444.2 2225.69 1442.77 2222.55 1442.05 2219.01 1442.05ZM2219.16 1435.95C2226.05 1435.95 2231.84 1436.92 2236.53 1438.86 2241.22 1440.79 2244.75 1443.59 2247.11 1447.25 2249.48 1450.92 2250.67 1455.31 2250.67 1460.43 2250.67 1465.69 2249.38 1470.22 2246.79 1474.03 2244.21 1477.83 2240.21 1480.93 2234.8 1483.32L2234.95 1484.26C2240.36 1486.36 2244.45 1489.44 2247.22 1493.48 2250 1497.52 2251.39 1502.39 2251.39 1508.09 2251.39 1513.68 2250.05 1518.61 2247.37 1522.87 2244.69 1527.13 2240.8 1530.42 2235.7 1532.74 2230.61 1535.06 2224.66 1536.22 2217.87 1536.22 2211.5 1536.22 2205.91 1535.16 2201.11 1533.03 2196.3 1530.9 2192.56 1527.79 2189.91 1523.7 2187.25 1519.61 2185.92 1514.79 2185.92 1509.23 2185.92 1505.07 2186.64 1501.46 2188.08 1498.4 2189.51 1495.33 2191.39 1492.81 2193.71 1490.82 2196.03 1488.84 2198.96 1487.03 2202.5 1485.4L2202.36 1484.47C2192.07 1480.02 2186.93 1472.39 2186.93 1461.57 2186.93 1456.65 2188.28 1452.24 2190.98 1448.37 2193.69 1444.49 2197.54 1441.45 2202.54 1439.25 2207.54 1437.05 2213.08 1435.95 2219.16 1435.95Z" fill="#FFFFFF" fill-rule="evenodd"/><text fill="#000000" fill-opacity="0" font-family="Arial,Arial_MSFontService,sans-serif" font-size="100.273" x="2185.92" y="1523.69">8</text><path d="M2319.87 1574.32C2318.85 1574.32 2317.86 1574.43 2316.92 1574.66 2315.97 1574.89 2315.08 1575.22 2314.24 1575.66 2313.41 1576.1 2312.6 1576.65 2311.81 1577.32 2311.56 1577.55 2311.37 1577.79 2311.24 1578.04 2311.04 1578.43 2310.9 1578.92 2310.84 1579.51 2310.78 1580.09 2310.74 1581.07 2310.74 1582.44 2310.74 1586.42 2311.41 1589.45 2312.74 1591.54 2314.08 1593.62 2316.1 1594.66 2318.81 1594.66 2320.37 1594.66 2321.68 1594.39 2322.74 1593.85 2323.81 1593.31 2324.67 1592.56 2325.32 1591.61 2325.98 1590.67 2326.45 1589.55 2326.73 1588.27 2327.01 1586.99 2327.15 1585.6 2327.15 1584.1 2327.15 1581.02 2326.51 1578.61 2325.24 1576.9 2323.97 1575.18 2322.18 1574.32 2319.87 1574.32ZM2327.9 1553.66 2329.18 1555.38 2329.18 1556.91C2325.97 1556.91 2323.13 1557.6 2320.65 1558.97 2318.17 1560.35 2316.11 1562.37 2314.48 1565.04 2312.84 1567.7 2311.69 1570.87 2311.03 1574.54L2311.34 1574.66C2313.09 1573.41 2314.81 1572.49 2316.51 1571.91 2318.21 1571.33 2320.05 1571.04 2322.03 1571.04 2324.38 1571.04 2326.38 1571.55 2328.04 1572.58 2329.7 1573.61 2330.94 1575.06 2331.78 1576.93 2332.61 1578.79 2333.03 1580.97 2333.03 1583.47 2333.03 1586.18 2332.5 1588.57 2331.46 1590.65 2330.42 1592.72 2328.81 1594.35 2326.63 1595.54 2324.46 1596.72 2321.78 1597.32 2318.59 1597.32 2314.03 1597.32 2310.58 1595.9 2308.26 1593.07 2305.94 1590.23 2304.78 1586.06 2304.78 1580.54 2304.78 1576.83 2305.36 1573.36 2306.53 1570.13 2307.69 1566.9 2309.35 1564.08 2311.49 1561.68 2313.64 1559.27 2316.13 1557.38 2318.96 1555.99 2321.8 1554.6 2324.78 1553.83 2327.9 1553.66Z" fill="#FFFFFF" fill-rule="evenodd"/><text fill="#000000" fill-opacity="0" font-family="Arial,Arial_MSFontService,sans-serif" font-size="43.6562" x="2304.78" y="1591.86">6</text><rect x="2366.5" y="1647.5" width="256" height="256" stroke="#000000" stroke-width="6.875" stroke-miterlimit="8" fill="#B4BB22"/><path d="M2493.58 1737.24C2489.99 1737.24 2486.96 1737.86 2484.47 1739.1 2481.98 1740.35 2479.96 1742.06 2478.4 1744.24 2476.85 1746.41 2475.71 1748.97 2474.99 1751.92 2474.28 1754.86 2473.92 1758.05 2473.92 1761.5 2473.92 1768.63 2475.38 1774.16 2478.29 1778.08 2481.21 1782 2485.33 1783.96 2490.64 1783.96 2492.46 1783.96 2494.19 1783.81 2495.84 1783.5 2497.5 1783.19 2499.11 1782.73 2500.69 1782.13 2502.27 1781.54 2503.81 1780.77 2505.32 1779.84 2506.83 1778.9 2508.18 1777.91 2509.37 1776.86 2509.81 1776.48 2510.19 1775.97 2510.52 1775.35 2510.86 1774.73 2511.12 1773.92 2511.31 1772.91 2511.5 1771.91 2511.6 1770.33 2511.6 1768.17 2511.6 1761.62 2510.94 1756.01 2509.63 1751.34 2508.31 1746.68 2506.3 1743.16 2503.6 1740.79 2500.89 1738.42 2497.56 1737.24 2493.58 1737.24ZM2494.37 1731.14C2504.42 1731.14 2512.08 1734.61 2517.34 1741.54 2522.61 1748.48 2525.24 1758.46 2525.24 1771.48 2525.24 1783.39 2523.3 1793.71 2519.42 1802.45 2515.55 1811.18 2510.12 1817.98 2503.13 1822.83 2496.14 1827.69 2487.98 1830.55 2478.65 1831.41L2475.71 1827.46 2475.71 1823.94C2482.41 1823.94 2488.21 1822.46 2493.12 1819.49 2498.02 1816.53 2501.97 1812.14 2504.96 1806.32 2507.95 1800.51 2509.95 1792.89 2510.95 1783.46L2510.24 1783.18C2506.22 1786.05 2502.26 1788.15 2498.36 1789.49 2494.46 1790.83 2490.23 1791.5 2485.69 1791.5 2480.28 1791.5 2475.68 1790.32 2471.87 1787.95 2468.07 1785.58 2465.21 1782.25 2463.29 1777.97 2461.38 1773.69 2460.42 1768.68 2460.42 1762.93 2460.42 1758.63 2461.14 1754.55 2462.58 1750.7 2464.01 1746.84 2466.14 1743.47 2468.96 1740.58 2471.79 1737.68 2475.32 1735.38 2479.55 1733.68 2483.79 1731.99 2488.73 1731.14 2494.37 1731.14Z" fill="#FFFFFF" fill-rule="evenodd"/><text fill="#000000" fill-opacity="0" font-family="Arial,Arial_MSFontService,sans-serif" font-size="100.273" x="2460.42" y="1818.88">9</text><path d="M2581.25 1849.35 2608.06 1849.35 2608.06 1850.85 2589.88 1892.22 2585.34 1892.22 2585.34 1890.69 2602.19 1855.04 2602.19 1854.57 2588.44 1854.57C2587.58 1854.57 2586.9 1854.65 2586.39 1854.8 2585.88 1854.96 2585.45 1855.18 2585.11 1855.47 2584.77 1855.77 2584.48 1856.15 2584.25 1856.63 2584.02 1857.11 2583.71 1858.06 2583.31 1859.47L2580.63 1859.47Z" fill="#FFFFFF" fill-rule="evenodd"/><text fill="#000000" fill-opacity="0" font-family="Arial,Arial_MSFontService,sans-serif" font-size="42.875" x="2580.63" y="1886.86">7</text><rect x="2641.5" y="1646.5" width="256" height="256" stroke="#000000" stroke-width="6.875" stroke-miterlimit="8" fill="#F86A7B"/><path d="M2809.55 1736.38C2806.25 1736.38 2803.49 1737.36 2801.26 1739.32 2799.04 1741.28 2797.24 1744.11 2795.88 1747.79 2794.52 1751.48 2793.55 1755.96 2792.97 1761.25 2792.4 1766.54 2792.11 1772.51 2792.11 1779.16 2792.11 1794.76 2793.56 1806.21 2796.45 1813.5 2799.35 1820.8 2803.83 1824.45 2809.91 1824.45 2815.7 1824.45 2820 1821.02 2822.8 1814.15 2825.59 1807.28 2826.99 1796.65 2826.99 1782.24 2826.99 1771.24 2826.28 1762.33 2824.84 1755.51 2823.41 1748.69 2821.41 1743.8 2818.85 1740.83 2816.29 1737.86 2813.19 1736.38 2809.55 1736.38ZM2809.91 1730.28C2820.39 1730.28 2828.19 1734.32 2833.31 1742.41 2838.43 1750.49 2840.99 1762.72 2840.99 1779.09 2840.99 1796.03 2838.25 1808.84 2832.77 1817.52 2827.29 1826.21 2819.29 1830.55 2808.76 1830.55 2798.43 1830.55 2790.74 1826.48 2785.69 1818.35 2780.64 1810.21 2778.11 1797.87 2778.11 1781.31 2778.11 1772.51 2778.89 1764.9 2780.45 1758.49 2782 1752.07 2784.18 1746.77 2786.98 1742.59 2789.78 1738.4 2793.14 1735.3 2797.06 1733.29 2800.99 1731.28 2805.27 1730.28 2809.91 1730.28ZM2734.22 1730.28 2738.17 1730.28C2737.88 1734.87 2737.74 1741.24 2737.74 1749.37L2737.74 1810.67C2737.74 1813.44 2737.9 1815.54 2738.21 1816.95 2738.52 1818.36 2739.07 1819.51 2739.86 1820.39 2740.65 1821.28 2741.78 1821.97 2743.27 1822.48 2744.75 1822.98 2746.62 1823.36 2748.87 1823.62 2751.11 1823.89 2754.08 1824.07 2757.77 1824.16L2757.77 1829.4 2704.72 1829.4 2704.72 1824.16C2710.03 1823.92 2713.83 1823.6 2716.1 1823.19 2718.37 1822.79 2720.11 1822.18 2721.3 1821.36 2722.5 1820.55 2723.37 1819.4 2723.92 1817.92 2724.47 1816.43 2724.75 1814.02 2724.75 1810.67L2724.75 1752.46C2724.75 1750.54 2724.41 1749.14 2723.74 1748.26 2723.07 1747.37 2722.09 1746.93 2720.8 1746.93 2719.27 1746.93 2717.09 1747.72 2714.27 1749.3 2711.45 1750.88 2707.95 1753.05 2703.79 1755.83L2700.63 1750.3Z" fill="#FFFFFF" fill-rule="evenodd"/><text fill="#000000" fill-opacity="0" font-family="Arial,Arial_MSFontService,sans-serif" font-size="100.273" x="2700.63" y="1818.02">10</text><path d="M2856.54 1848.49 2883.35 1848.49 2883.35 1849.99 2865.16 1891.36 2860.63 1891.36 2860.63 1889.83 2877.48 1854.18 2877.48 1853.71 2863.73 1853.71C2862.87 1853.71 2862.19 1853.79 2861.68 1853.94 2861.17 1854.1 2860.74 1854.32 2860.4 1854.61 2860.05 1854.91 2859.77 1855.29 2859.54 1855.77 2859.31 1856.25 2859 1857.2 2858.6 1858.61L2855.91 1858.61Z" fill="#FFFFFF" fill-rule="evenodd"/><text fill="#000000" fill-opacity="0" font-family="Arial,Arial_MSFontService,sans-serif" font-size="42.875" x="2855.91" y="1886">7</text><rect x="2917.5" y="1349.5" width="256" height="257" stroke="#000000" stroke-width="6.875" stroke-miterlimit="8" fill="#F86A7B"/><path d="M3090.51 1433.37 3094.46 1433.37C3094.17 1437.96 3094.03 1444.33 3094.03 1452.46L3094.03 1513.76C3094.03 1516.54 3094.18 1518.63 3094.49 1520.04 3094.81 1521.45 3095.36 1522.6 3096.15 1523.49 3096.93 1524.37 3098.07 1525.07 3099.55 1525.57 3101.04 1526.07 3102.9 1526.45 3105.15 1526.72 3107.4 1526.98 3110.37 1527.16 3114.05 1527.26L3114.05 1532.5 3061.01 1532.5 3061.01 1527.26C3066.32 1527.02 3070.11 1526.69 3072.39 1526.29 3074.66 1525.88 3076.39 1525.27 3077.59 1524.46 3078.79 1523.64 3079.66 1522.49 3080.21 1521.01 3080.76 1519.53 3081.04 1517.11 3081.04 1513.76L3081.04 1455.55C3081.04 1453.64 3080.7 1452.24 3080.03 1451.35 3079.36 1450.47 3078.38 1450.02 3077.09 1450.02 3075.56 1450.02 3073.38 1450.81 3070.56 1452.39 3067.73 1453.97 3064.24 1456.15 3060.08 1458.92L3056.92 1453.4ZM3009.51 1433.37 3013.46 1433.37C3013.17 1437.96 3013.03 1444.33 3013.03 1452.46L3013.03 1513.76C3013.03 1516.54 3013.18 1518.63 3013.49 1520.04 3013.81 1521.45 3014.36 1522.6 3015.15 1523.49 3015.93 1524.37 3017.07 1525.07 3018.55 1525.57 3020.04 1526.07 3021.9 1526.45 3024.15 1526.72 3026.4 1526.98 3029.37 1527.16 3033.05 1527.26L3033.05 1532.5 2980.01 1532.5 2980.01 1527.26C2985.32 1527.02 2989.11 1526.69 2991.39 1526.29 2993.66 1525.88 2995.39 1525.27 2996.59 1524.46 2997.79 1523.64 2998.66 1522.49 2999.21 1521.01 2999.76 1519.53 3000.04 1517.11 3000.04 1513.76L3000.04 1455.55C3000.04 1453.64 2999.7 1452.24 2999.03 1451.35 2998.36 1450.47 2997.38 1450.02 2996.09 1450.02 2994.56 1450.02 2992.38 1450.81 2989.56 1452.39 2986.73 1453.97 2983.24 1456.15 2979.08 1458.92L2975.92 1453.4Z" fill="#FFFFFF" fill-rule="evenodd"/><text fill="#000000" fill-opacity="0" font-family="Arial,Arial_MSFontService,sans-serif" font-size="99.1245" x="2975.92" y="1520.1">11</text><path d="M3145.73 1571.74C3144.71 1571.74 3143.73 1571.85 3142.78 1572.08 3141.83 1572.31 3140.94 1572.65 3140.11 1573.08 3139.27 1573.52 3138.46 1574.07 3137.67 1574.74 3137.42 1574.97 3137.23 1575.21 3137.11 1575.46 3136.9 1575.85 3136.76 1576.34 3136.7 1576.93 3136.64 1577.51 3136.61 1578.49 3136.61 1579.86 3136.61 1583.84 3137.27 1586.87 3138.61 1588.96 3139.94 1591.04 3141.96 1592.08 3144.67 1592.08 3146.23 1592.08 3147.54 1591.81 3148.61 1591.27 3149.67 1590.73 3150.53 1589.98 3151.18 1589.04 3151.84 1588.09 3152.31 1586.97 3152.59 1585.69 3152.87 1584.41 3153.01 1583.02 3153.01 1581.52 3153.01 1578.44 3152.38 1576.04 3151.11 1574.32 3149.84 1572.6 3148.04 1571.74 3145.73 1571.74ZM3153.76 1551.08 3155.04 1552.8 3155.04 1554.33C3151.84 1554.33 3148.99 1555.02 3146.51 1556.4 3144.03 1557.77 3141.98 1559.79 3140.34 1562.46 3138.71 1565.12 3137.55 1568.29 3136.89 1571.96L3137.2 1572.08C3138.95 1570.83 3140.67 1569.92 3142.37 1569.33 3144.07 1568.75 3145.91 1568.46 3147.89 1568.46 3150.24 1568.46 3152.25 1568.97 3153.9 1570 3155.56 1571.04 3156.8 1572.48 3157.64 1574.35 3158.47 1576.21 3158.89 1578.4 3158.89 1580.9 3158.89 1583.6 3158.37 1585.99 3157.33 1588.07 3156.28 1590.14 3154.67 1591.77 3152.5 1592.96 3150.32 1594.15 3147.64 1594.74 3144.45 1594.74 3139.89 1594.74 3136.45 1593.32 3134.12 1590.49 3131.8 1587.66 3130.64 1583.48 3130.64 1577.96 3130.64 1574.25 3131.22 1570.78 3132.39 1567.55 3133.55 1564.32 3135.21 1561.5 3137.36 1559.1 3139.5 1556.69 3141.99 1554.8 3144.83 1553.41 3147.66 1552.03 3150.64 1551.25 3153.76 1551.08Z" fill="#FFFFFF" fill-rule="evenodd"/><text fill="#000000" fill-opacity="0" font-family="Arial,Arial_MSFontService,sans-serif" font-size="43.6562" x="3130.64" y="1589.28">6</text><rect x="3192.5" y="1063.5" width="256" height="256" stroke="#000000" stroke-width="6.875" stroke-miterlimit="8" fill="#F86A7B"/><path d="M3360.7 1147.29C3369.6 1147.29 3376.33 1149.24 3380.87 1153.14 3385.42 1157.04 3387.69 1162.7 3387.69 1170.12 3387.69 1172.65 3387.44 1174.99 3386.94 1177.12 3386.43 1179.25 3385.65 1181.35 3384.57 1183.43 3383.49 1185.51 3382.04 1187.75 3380.23 1190.14 3378.41 1192.54 3376.4 1194.96 3374.2 1197.43 3372 1199.89 3368.19 1204 3362.78 1209.74 3353.69 1219.36 3347.02 1227.76 3342.76 1234.93L3369.82 1234.93C3372.16 1234.93 3374.05 1234.79 3375.49 1234.5 3376.92 1234.22 3378.07 1233.74 3378.93 1233.07 3379.8 1232.4 3380.48 1231.52 3380.98 1230.45 3381.48 1229.37 3382.12 1227.71 3382.88 1225.46L3388.98 1225.46 3387.76 1246.42 3328.69 1246.42 3328.69 1242.97C3330.75 1237.95 3333.52 1232.8 3337.02 1227.54 3340.51 1222.28 3345.46 1216.08 3351.87 1208.95 3357.42 1202.82 3361.42 1198.18 3363.86 1195.02 3366.54 1191.58 3368.54 1188.6 3369.85 1186.09 3371.17 1183.58 3372.11 1181.21 3372.69 1178.98 3373.26 1176.76 3373.55 1174.52 3373.55 1172.27 3373.55 1168.68 3372.98 1165.51 3371.83 1162.76 3370.68 1160.01 3368.92 1157.84 3366.55 1156.26 3364.18 1154.69 3361.2 1153.9 3357.62 1153.9 3348.67 1153.9 3342.64 1158.87 3339.53 1168.83L3330.84 1168.83 3330.84 1155.04C3336.63 1152.32 3342.05 1150.34 3347.1 1149.12 3352.15 1147.9 3356.68 1147.29 3360.7 1147.29ZM3284.8 1147.29 3288.75 1147.29C3288.46 1151.89 3288.32 1158.25 3288.32 1166.39L3288.32 1227.68C3288.32 1230.46 3288.47 1232.55 3288.78 1233.96 3289.09 1235.38 3289.64 1236.52 3290.43 1237.41 3291.22 1238.29 3292.36 1238.99 3293.84 1239.49 3295.33 1239.99 3297.19 1240.38 3299.44 1240.64 3301.69 1240.9 3304.66 1241.08 3308.34 1241.18L3308.34 1246.42 3255.3 1246.42 3255.3 1241.18C3260.61 1240.94 3264.4 1240.62 3266.67 1240.21 3268.95 1239.8 3270.68 1239.19 3271.88 1238.38 3273.07 1237.56 3273.95 1236.42 3274.5 1234.93 3275.05 1233.45 3275.32 1231.03 3275.32 1227.68L3275.32 1169.47C3275.32 1167.56 3274.99 1166.16 3274.32 1165.27 3273.65 1164.39 3272.67 1163.95 3271.38 1163.95 3269.84 1163.95 3267.67 1164.73 3264.84 1166.31 3262.02 1167.89 3258.53 1170.07 3254.36 1172.85L3251.21 1167.32Z" fill="#FFFFFF" fill-rule="evenodd"/><text fill="#000000" fill-opacity="0" font-family="Arial,Arial_MSFontService,sans-serif" font-size="99.1245" x="3251.21" y="1234.03">12</text><path d="M3419.71 1265C3422.06 1265 3424.12 1265.37 3425.89 1266.1 3427.67 1266.83 3429.02 1267.87 3429.96 1269.24 3430.89 1270.6 3431.36 1272.23 3431.36 1274.13 3431.36 1275.9 3431.01 1277.46 3430.3 1278.8 3429.59 1280.15 3428.6 1281.32 3427.32 1282.32 3426.03 1283.32 3424.37 1284.3 3422.33 1285.25L3422.33 1285.54C3423.6 1285.76 3424.83 1286.16 3426 1286.71 3427.18 1287.26 3428.23 1287.97 3429.14 1288.85 3430.06 1289.72 3430.8 1290.77 3431.35 1291.99 3431.9 1293.21 3432.18 1294.6 3432.18 1296.16 3432.18 1298.58 3431.65 1300.72 3430.6 1302.6 3429.55 1304.47 3427.94 1305.95 3425.77 1307.04 3423.6 1308.12 3420.97 1308.66 3417.86 1308.66 3416.07 1308.66 3414.14 1308.46 3412.07 1308.05 3409.99 1307.65 3408.09 1307.11 3406.36 1306.44L3406.36 1299.82 3410.11 1299.82C3410.84 1301.98 3411.81 1303.56 3413 1304.54 3414.2 1305.51 3415.83 1306 3417.89 1306 3420.6 1306 3422.65 1305.26 3424.03 1303.79 3425.42 1302.31 3426.11 1300.12 3426.11 1297.22 3426.11 1294.18 3425.2 1291.86 3423.36 1290.25 3421.53 1288.65 3418.84 1287.85 3415.3 1287.85L3412.49 1287.85 3412.49 1285.1C3415.3 1284.93 3417.67 1284.39 3419.6 1283.47 3421.52 1282.56 3422.96 1281.38 3423.89 1279.94 3424.83 1278.5 3425.3 1276.89 3425.3 1275.1 3425.3 1272.79 3424.69 1271 3423.46 1269.75 3422.23 1268.5 3420.44 1267.88 3418.08 1267.88 3416.12 1267.88 3414.53 1268.41 3413.3 1269.47 3412.07 1270.54 3411.17 1272.16 3410.58 1274.35L3406.83 1274.35 3406.83 1268.41C3409.25 1267.26 3411.51 1266.41 3413.61 1265.85 3415.72 1265.29 3417.75 1265 3419.71 1265Z" fill="#FFFFFF" fill-rule="evenodd"/><text fill="#000000" fill-opacity="0" font-family="Arial,Arial_MSFontService,sans-serif" font-size="43.6562" x="3406.36" y="1303.2">3</text><rect x="3467.5" y="753.5" width="256" height="256" stroke="#000000" stroke-width="6.875" stroke-miterlimit="8" fill="#F86A7B"/><path d="M3635.7 836.877C3641.11 836.877 3645.85 837.714 3649.91 839.389 3653.98 841.064 3657.09 843.468 3659.25 846.602 3661.4 849.737 3662.48 853.481 3662.48 857.836 3662.48 861.903 3661.66 865.48 3660.04 868.566 3658.41 871.653 3656.12 874.344 3653.18 876.641 3650.24 878.938 3646.42 881.187 3641.73 883.388L3641.73 884.034C3644.65 884.561 3647.46 885.458 3650.17 886.726 3652.87 887.994 3655.27 889.633 3657.38 891.643 3659.49 893.652 3661.17 896.057 3662.44 898.856 3663.71 901.656 3664.34 904.85 3664.34 908.439 3664.34 913.989 3663.13 918.918 3660.72 923.225 3658.3 927.531 3654.6 930.929 3649.63 933.417 3644.65 935.905 3638.6 937.149 3631.47 937.149 3627.35 937.149 3622.91 936.683 3618.15 935.75 3613.39 934.817 3609.03 933.585 3605.05 932.053L3605.05 916.836 3613.67 916.836C3615.34 921.813 3617.56 925.426 3620.31 927.675 3623.06 929.924 3626.8 931.048 3631.54 931.048 3637.76 931.048 3642.46 929.35 3645.64 925.952 3648.83 922.555 3650.42 917.53 3650.42 910.879 3650.42 903.893 3648.31 898.557 3644.1 894.873 3639.89 891.188 3633.72 889.346 3625.58 889.346L3619.12 889.346 3619.12 883.029C3625.58 882.647 3631.03 881.402 3635.45 879.297 3639.88 877.191 3643.17 874.488 3645.32 871.186 3647.47 867.884 3648.55 864.176 3648.55 860.061 3648.55 854.749 3647.14 850.658 3644.32 847.787 3641.49 844.916 3637.38 843.48 3631.97 843.48 3627.47 843.48 3623.81 844.7 3620.99 847.141 3618.17 849.581 3616.08 853.314 3614.74 858.338L3606.13 858.338 3606.13 844.7C3611.68 842.068 3616.87 840.107 3621.71 838.815 3626.54 837.523 3631.2 836.877 3635.7 836.877ZM3560.09 836.877 3564.03 836.877C3563.75 841.47 3563.6 847.835 3563.6 855.969L3563.6 917.267C3563.6 920.043 3563.76 922.136 3564.07 923.548 3564.38 924.959 3564.93 926.108 3565.72 926.993 3566.51 927.878 3567.65 928.572 3569.13 929.075 3570.61 929.577 3572.48 929.96 3574.73 930.223 3576.98 930.486 3579.94 930.666 3583.63 930.761L3583.63 936.001 3530.59 936.001 3530.59 930.761C3535.9 930.522 3539.69 930.199 3541.96 929.792 3544.24 929.386 3545.97 928.775 3547.17 927.962 3548.36 927.148 3549.24 926 3549.79 924.517 3550.34 923.033 3550.61 920.617 3550.61 917.267L3550.61 859.056C3550.61 857.142 3550.28 855.742 3549.61 854.857 3548.94 853.971 3547.96 853.529 3546.66 853.529 3545.13 853.529 3542.96 854.318 3540.13 855.898 3537.31 857.477 3533.82 859.654 3529.65 862.429L3526.49 856.902Z" fill="#FFFFFF" fill-rule="evenodd"/><text fill="#000000" fill-opacity="0" font-family="Arial,Arial_MSFontService,sans-serif" font-size="100.273" x="3526.49" y="924.615">13</text><path d="M3695.12 954.588C3698.99 954.588 3701.92 955.437 3703.9 957.135 3705.88 958.833 3706.87 961.297 3706.87 964.526 3706.87 965.63 3706.76 966.646 3706.54 967.573 3706.32 968.5 3705.98 969.416 3705.51 970.323 3705.04 971.229 3704.41 972.203 3703.62 973.245 3702.83 974.286 3701.95 975.343 3700.99 976.416 3700.04 977.489 3698.38 979.276 3696.03 981.776 3692.07 985.963 3689.16 989.62 3687.31 992.745L3699.09 992.745C3700.11 992.745 3700.93 992.682 3701.56 992.557 3702.18 992.432 3702.68 992.224 3703.06 991.932 3703.43 991.64 3703.73 991.26 3703.95 990.791 3704.17 990.323 3704.44 989.599 3704.78 988.62L3707.43 988.62 3706.9 997.745 3681.18 997.745 3681.18 996.245C3682.08 994.057 3683.29 991.817 3684.81 989.526 3686.33 987.234 3688.48 984.536 3691.28 981.432 3693.69 978.765 3695.43 976.745 3696.49 975.37 3697.66 973.87 3698.53 972.573 3699.1 971.479 3699.68 970.385 3700.09 969.354 3700.34 968.385 3700.59 967.416 3700.71 966.442 3700.71 965.463 3700.71 963.901 3700.46 962.521 3699.96 961.323 3699.46 960.125 3698.7 959.182 3697.67 958.495 3696.64 957.807 3695.34 957.463 3693.78 957.463 3689.88 957.463 3687.25 959.63 3685.9 963.963L3682.12 963.963 3682.12 957.963C3684.64 956.776 3687 955.916 3689.2 955.385 3691.4 954.854 3693.37 954.588 3695.12 954.588Z" fill="#FFFFFF" fill-rule="evenodd"/><text fill="#000000" fill-opacity="0" font-family="Arial,Arial_MSFontService,sans-serif" font-size="43.1562" x="3681.18" y="992.35">2</text><rect x="3743.5" y="474.5" width="256" height="256" stroke="#000000" stroke-width="6.875" stroke-miterlimit="8" fill="#F86A7B"/><path d="M3915.44 575.016 3887.38 619.589 3887.38 620.594 3915.44 620.594 3915.44 602.722C3915.44 598.224 3915.51 593.187 3915.66 587.612 3915.8 582.038 3915.97 577.839 3916.16 575.016ZM3917.52 558.794 3927.79 558.794 3927.79 620.594 3929.29 620.594C3932.07 620.594 3934.05 620.391 3935.25 619.984 3936.45 619.577 3937.44 618.859 3938.23 617.831 3939.02 616.802 3939.75 615.115 3940.42 612.77L3945.87 612.77 3945.01 627.557 3927.79 627.557 3927.79 639.328C3927.79 642.534 3927.89 644.879 3928.11 646.362 3928.32 647.846 3928.68 649.018 3929.19 649.879 3929.69 650.741 3930.43 651.458 3931.41 652.033 3932.39 652.607 3933.98 653.181 3936.18 653.755L3936.18 657.272 3907.04 657.272 3907.04 653.755C3910.01 652.99 3912 652.14 3913 651.207 3914.01 650.274 3914.66 648.946 3914.97 647.224 3915.29 645.501 3915.44 642.869 3915.44 639.328L3915.44 627.557 3875.53 627.557 3875.53 622.173ZM3835.37 558.148 3839.32 558.148C3839.03 562.742 3838.89 569.106 3838.89 577.241L3838.89 638.538C3838.89 641.314 3839.05 643.407 3839.36 644.819 3839.67 646.231 3840.22 647.379 3841.01 648.264 3841.8 649.15 3842.93 649.843 3844.42 650.346 3845.9 650.848 3847.77 651.231 3850.02 651.494 3852.27 651.757 3855.23 651.937 3858.92 652.033L3858.92 657.272 3805.87 657.272 3805.87 652.033C3811.18 651.793 3814.98 651.47 3817.25 651.064 3819.52 650.657 3821.26 650.047 3822.45 649.233 3823.65 648.42 3824.52 647.271 3825.07 645.788 3825.62 644.305 3825.9 641.888 3825.9 638.538L3825.9 580.327C3825.9 578.413 3825.56 577.013 3824.89 576.128 3824.22 575.243 3823.24 574.8 3821.95 574.8 3820.42 574.8 3818.24 575.59 3815.42 577.169 3812.6 578.748 3809.1 580.925 3804.94 583.701L3801.78 578.174Z" fill="#FFFFFF" fill-rule="evenodd"/><text fill="#000000" fill-opacity="0" font-family="Arial,Arial_MSFontService,sans-serif" font-size="99.1245" x="3801.78" y="644.882">14</text><path d="M3972.63 675.86 3974.34 675.86C3974.22 677.86 3974.16 680.63 3974.16 684.172L3974.16 710.86C3974.16 712.068 3974.22 712.979 3974.36 713.594 3974.5 714.208 3974.74 714.708 3975.08 715.094 3975.42 715.479 3975.92 715.781 3976.56 716 3977.21 716.219 3978.02 716.386 3979 716.5 3979.98 716.615 3981.27 716.693 3982.88 716.735L3982.88 719.016 3959.78 719.016 3959.78 716.735C3962.09 716.63 3963.75 716.49 3964.74 716.313 3965.72 716.136 3966.48 715.87 3967 715.516 3967.52 715.162 3967.9 714.662 3968.14 714.016 3968.38 713.37 3968.5 712.318 3968.5 710.86L3968.5 685.516C3968.5 684.682 3968.36 684.073 3968.06 683.688 3967.77 683.302 3967.34 683.11 3966.78 683.11 3966.12 683.11 3965.17 683.453 3963.94 684.141 3962.71 684.828 3961.19 685.776 3959.38 686.985L3958 684.578Z" fill="#FFFFFF" fill-rule="evenodd"/><text fill="#000000" fill-opacity="0" font-family="Arial,Arial_MSFontService,sans-serif" font-size="43.1562" x="3958" y="713.621">1</text><path d="M1401.78 1343.84 1443.03 1343.84 1443.03 1354.16 1401.78 1354.16ZM1473.97 1343.84 1515.22 1343.84 1515.22 1354.16 1473.97 1354.16ZM1546.16 1343.84 1587.41 1343.84 1587.41 1354.16 1546.16 1354.16ZM1618.34 1343.84 1641.07 1343.84 1641.07 1354.16 1618.34 1354.16ZM1406.94 1364.47 1376 1349 1406.94 1333.53ZM1635.91 1333.53 1666.85 1349 1635.91 1364.47Z" fill="#595959"/><path d="M2538.5 2039C2538.5 1987.91 2579.91 1946.5 2631 1946.5 2682.09 1946.5 2723.5 1987.91 2723.5 2039 2723.5 2090.09 2682.09 2131.5 2631 2131.5 2579.91 2131.5 2538.5 2090.09 2538.5 2039Z" stroke="#29ABCA" stroke-width="20.625" stroke-miterlimit="8" fill="#236B8E" fill-rule="evenodd"/><path d="M2608.23 2001.37 2661.86 2001.37 2661.86 2004.37 2625.48 2087.12 2616.42 2087.12 2616.42 2084.06 2650.11 2012.75 2650.11 2011.81 2622.61 2011.81C2620.9 2011.81 2619.53 2011.96 2618.51 2012.28 2617.49 2012.59 2616.64 2013.04 2615.95 2013.62 2615.26 2014.2 2614.69 2014.98 2614.23 2015.93 2613.77 2016.89 2613.15 2018.79 2612.36 2021.62L2606.98 2021.62Z" fill="#FFFFFF" fill-rule="evenodd"/><text fill="#000000" fill-opacity="0" font-family="Arial,Arial_MSFontService,sans-serif" font-size="85.75" x="2606.98" y="2076.4">7</text><path d="M2504.78 1918.84 2546.03 1918.84 2546.03 1929.16 2504.78 1929.16ZM2576.97 1918.84 2618.22 1918.84 2618.22 1929.16 2576.97 1929.16ZM2649.16 1918.84 2690.41 1918.84 2690.41 1929.16 2649.16 1929.16ZM2721.34 1918.84 2744.07 1918.84 2744.07 1929.16 2721.34 1929.16ZM2509.94 1939.47 2479 1924 2509.94 1908.53ZM2738.91 1908.53 2769.85 1924 2738.91 1939.47Z" fill="#595959"/><path d="M25.8046-5.03951 67.0542-4.85282 67.0075 5.45957 25.7579 5.27288ZM97.9913-4.7128 139.241-4.52611 139.194 5.78628 97.9447 5.59959ZM170.178-4.38609 211.428-4.1994 211.381 6.113 170.131 5.9263ZM242.365-4.05938 283.614-3.87269 283.568 6.43971 242.318 6.25301ZM314.552-3.73267 355.801-3.54598 355.755 6.76642 314.505 6.57973ZM386.738-3.40596 427.988-3.21927 427.941 7.09313 386.692 6.90644ZM458.925-3.07925 500.175-2.89255 500.128 7.41984 458.879 7.23315ZM531.112-2.75253 544.058-2.69394 544.012 7.61845 531.065 7.55986ZM30.8672 15.6086 0 0 31.0072-15.3286ZM538.948-13.0297 569.815 2.57894 538.808 17.9075Z" fill="#595959" transform="matrix(1 0 0 -1 2347 1479.58)"/><path d="M2540.5 1466C2540.5 1414.91 2581.91 1373.5 2633 1373.5 2684.09 1373.5 2725.5 1414.91 2725.5 1466 2725.5 1517.09 2684.09 1558.5 2633 1558.5 2581.91 1558.5 2540.5 1517.09 2540.5 1466Z" stroke="#29ABCA" stroke-width="20.625" stroke-miterlimit="8" fill="#236B8E" fill-rule="evenodd"/><path d="M2638.25 1468.91C2636.2 1468.91 2634.24 1469.14 2632.34 1469.59 2630.44 1470.05 2628.66 1470.72 2627 1471.59 2625.33 1472.47 2623.7 1473.57 2622.12 1474.91 2621.62 1475.37 2621.25 1475.84 2621 1476.34 2620.58 1477.14 2620.31 1478.12 2620.18 1479.28 2620.06 1480.45 2620 1482.41 2620 1485.16 2620 1493.12 2621.33 1499.18 2624 1503.34 2626.66 1507.51 2630.7 1509.59 2636.12 1509.59 2639.25 1509.59 2641.87 1509.05 2644 1507.97 2646.12 1506.89 2647.84 1505.4 2649.15 1503.5 2650.47 1501.6 2651.4 1499.38 2651.97 1496.81 2652.53 1494.25 2652.81 1491.47 2652.81 1488.47 2652.81 1482.3 2651.54 1477.5 2649 1474.06 2646.45 1470.63 2642.87 1468.91 2638.25 1468.91ZM2654.31 1427.59 2656.87 1431.03 2656.87 1434.09C2650.45 1434.09 2644.77 1435.47 2639.81 1438.22 2634.85 1440.97 2630.74 1445.01 2627.47 1450.34 2624.19 1455.68 2621.89 1462.01 2620.56 1469.34L2621.18 1469.59C2624.68 1467.09 2628.13 1465.26 2631.53 1464.09 2634.92 1462.93 2638.6 1462.34 2642.56 1462.34 2647.27 1462.34 2651.28 1463.38 2654.59 1465.44 2657.9 1467.5 2660.39 1470.4 2662.06 1474.13 2663.73 1477.85 2664.56 1482.22 2664.56 1487.22 2664.56 1492.64 2663.52 1497.42 2661.43 1501.56 2659.35 1505.71 2656.13 1508.97 2651.78 1511.34 2647.42 1513.72 2642.06 1514.91 2635.68 1514.91 2626.56 1514.91 2619.67 1512.07 2615.03 1506.41 2610.38 1500.74 2608.06 1492.39 2608.06 1481.34 2608.06 1473.93 2609.23 1466.99 2611.56 1460.53 2613.89 1454.07 2617.2 1448.44 2621.5 1443.63 2625.79 1438.81 2630.77 1435.02 2636.43 1432.25 2642.1 1429.48 2648.06 1427.93 2654.31 1427.59Z" fill="#FFFFFF" fill-rule="evenodd"/><text fill="#000000" fill-opacity="0" font-family="Arial,Arial_MSFontService,sans-serif" font-size="87.3125" x="2608.06" y="1503.99">6</text></g></svg>