<svg width="202" height="191" xmlns="http://www.w3.org/2000/svg" xml:space="preserve" overflow="hidden"><defs><clipPath id="clip0"><rect x="539" y="264" width="202" height="191"/></clipPath></defs><g clip-path="url(#clip0)" transform="translate(-539 -264)"><path d="M617.305 329.486C617.305 327.24 617.159 325.035 616.203 322.976 615.08 320.73 613.125 320.148 611.814 320.148 610.234 320.148 608.32 320.938 607.322 323.184 606.552 324.89 606.282 326.553 606.282 329.486 606.282 332.107 606.469 334.082 607.447 335.996 608.507 338.055 610.379 338.699 611.773 338.699 614.144 338.699 615.495 337.306 616.265 335.725 617.243 333.708 617.305 331.046 617.305 329.486ZM611.773 338.159C610.92 338.159 609.152 337.68 608.653 334.727 608.341 333.105 608.341 331.046 608.341 329.153 608.341 326.928 608.341 324.931 608.778 323.33 609.235 321.52 610.608 320.688 611.773 320.688 612.813 320.688 614.372 321.312 614.892 323.642 615.246 325.181 615.246 327.323 615.246 329.153 615.246 330.963 615.246 333.022 614.955 334.665 614.435 337.66 612.729 338.159 611.773 338.159Z" fill="#FFFFFF"/><path d="M648.204 320.793C648.204 320.169 648.204 320.148 647.663 320.148 646.998 320.876 645.646 321.874 642.859 321.874L642.859 322.664C643.483 322.664 644.835 322.664 646.332 321.957L646.332 336.058C646.332 337.036 646.249 337.348 643.878 337.348L643.026 337.348 643.026 338.138C643.753 338.076 646.395 338.076 647.268 338.076 648.163 338.076 650.762 338.076 651.49 338.138L651.49 337.348 650.658 337.348C648.287 337.348 648.204 337.036 648.204 336.058Z" fill="#FFFFFF"/><path d="M683.43 320.793C683.43 320.169 683.43 320.148 682.889 320.148 682.223 320.876 680.871 321.874 678.084 321.874L678.084 322.664C678.708 322.664 680.06 322.664 681.558 321.957L681.558 336.058C681.558 337.036 681.474 337.348 679.104 337.348L678.251 337.348 678.251 338.138C678.979 338.076 681.62 338.076 682.494 338.076 683.388 338.076 685.988 338.076 686.716 338.138L686.716 337.348 685.884 337.348C683.513 337.348 683.43 337.036 683.43 336.058Z" fill="#FFFFFF"/><path d="M718.652 320.793C718.652 320.169 718.652 320.148 718.111 320.148 717.446 320.876 716.094 321.874 713.307 321.874L713.307 322.664C713.931 322.664 715.283 322.664 716.78 321.957L716.78 336.058C716.78 337.036 716.697 337.348 714.326 337.348L713.474 337.348 713.474 338.138C714.201 338.076 716.843 338.076 717.716 338.076 718.611 338.076 721.21 338.076 721.938 338.138L721.938 337.348 721.106 337.348C718.735 337.348 718.652 337.036 718.652 336.058Z" fill="#FFFFFF"/><path d="M617.305 364.542C617.305 362.295 617.159 360.091 616.203 358.032 615.08 355.786 613.125 355.203 611.814 355.203 610.234 355.203 608.32 355.994 607.322 358.24 606.552 359.945 606.282 361.609 606.282 364.542 606.282 367.162 606.469 369.138 607.447 371.051 608.507 373.11 610.379 373.755 611.773 373.755 614.144 373.755 615.495 372.362 616.265 370.781 617.243 368.763 617.305 366.101 617.305 364.542ZM611.773 373.214C610.92 373.214 609.152 372.736 608.653 369.783 608.341 368.16 608.341 366.101 608.341 364.209 608.341 361.983 608.341 359.987 608.778 358.385 609.235 356.576 610.608 355.744 611.773 355.744 612.813 355.744 614.372 356.368 614.892 358.697 615.246 360.236 615.246 362.379 615.246 364.209 615.246 366.018 615.246 368.077 614.955 369.72 614.435 372.715 612.729 373.214 611.773 373.214Z" fill="#FFFFFF"/><path d="M652.53 364.542C652.53 362.295 652.385 360.091 651.428 358.032 650.305 355.786 648.35 355.203 647.039 355.203 645.459 355.203 643.545 355.994 642.547 358.24 641.778 359.945 641.507 361.609 641.507 364.542 641.507 367.162 641.694 369.138 642.672 371.051 643.733 373.11 645.604 373.755 646.998 373.755 649.369 373.755 650.721 372.362 651.49 370.781 652.468 368.763 652.53 366.101 652.53 364.542ZM646.998 373.214C646.145 373.214 644.377 372.736 643.878 369.783 643.566 368.16 643.566 366.101 643.566 364.209 643.566 361.983 643.566 359.987 644.003 358.385 644.461 356.576 645.833 355.744 646.998 355.744 648.038 355.744 649.598 356.368 650.118 358.697 650.471 360.236 650.471 362.379 650.471 364.209 650.471 366.018 650.471 368.077 650.18 369.72 649.66 372.715 647.955 373.214 646.998 373.214Z" fill="#FFFFFF"/><path d="M687.755 364.542C687.755 362.295 687.61 360.091 686.653 358.032 685.53 355.786 683.575 355.203 682.265 355.203 680.684 355.203 678.771 355.994 677.773 358.24 677.003 359.945 676.733 361.609 676.733 364.542 676.733 367.162 676.92 369.138 677.897 371.051 678.958 373.11 680.83 373.755 682.223 373.755 684.594 373.755 685.946 372.362 686.716 370.781 687.693 368.763 687.755 366.101 687.755 364.542ZM682.223 373.214C681.371 373.214 679.603 372.736 679.104 369.783 678.792 368.16 678.792 366.101 678.792 364.209 678.792 361.983 678.792 359.987 679.228 358.385 679.686 356.576 681.059 355.744 682.223 355.744 683.263 355.744 684.823 356.368 685.343 358.697 685.696 360.236 685.696 362.379 685.696 364.209 685.696 366.018 685.696 368.077 685.405 369.72 684.885 372.715 683.18 373.214 682.223 373.214Z" fill="#FFFFFF"/><path d="M722.978 364.542C722.978 362.295 722.833 360.091 721.876 358.032 720.753 355.786 718.798 355.203 717.487 355.203 715.907 355.203 713.993 355.994 712.995 358.24 712.226 359.945 711.955 361.609 711.955 364.542 711.955 367.162 712.142 369.138 713.12 371.051 714.181 373.11 716.052 373.755 717.446 373.755 719.817 373.755 721.169 372.362 721.938 370.781 722.916 368.763 722.978 366.101 722.978 364.542ZM717.446 373.214C716.593 373.214 714.825 372.736 714.326 369.783 714.014 368.16 714.014 366.101 714.014 364.209 714.014 361.983 714.014 359.987 714.451 358.385 714.909 356.576 716.281 355.744 717.446 355.744 718.486 355.744 720.046 356.368 720.566 358.697 720.919 360.236 720.919 362.379 720.919 364.209 720.919 366.018 720.919 368.077 720.628 369.72 720.108 372.715 718.403 373.214 717.446 373.214Z" fill="#FFFFFF"/><path d="M612.979 390.903C612.979 390.279 612.979 390.258 612.438 390.258 611.773 390.986 610.421 391.984 607.634 391.984L607.634 392.775C608.258 392.775 609.61 392.775 611.107 392.068L611.107 406.168C611.107 407.146 611.024 407.458 608.653 407.458L607.8 407.458 607.8 408.248C608.528 408.186 611.17 408.186 612.043 408.186 612.937 408.186 615.537 408.186 616.265 408.248L616.265 407.458 615.433 407.458C613.062 407.458 612.979 407.146 612.979 406.168Z" fill="#FFFFFF"/><path d="M652.53 399.596C652.53 397.35 652.385 395.146 651.428 393.087 650.305 390.84 648.35 390.258 647.039 390.258 645.459 390.258 643.545 391.048 642.547 393.294 641.778 395 641.507 396.664 641.507 399.596 641.507 402.217 641.694 404.193 642.672 406.106 643.733 408.165 645.604 408.81 646.998 408.81 649.369 408.81 650.721 407.416 651.49 405.836 652.468 403.818 652.53 401.156 652.53 399.596ZM646.998 408.269C646.145 408.269 644.377 407.791 643.878 404.837 643.566 403.215 643.566 401.156 643.566 399.264 643.566 397.038 643.566 395.042 644.003 393.44 644.461 391.631 645.833 390.799 646.998 390.799 648.038 390.799 649.598 391.423 650.118 393.752 650.471 395.291 650.471 397.433 650.471 399.264 650.471 401.073 650.471 403.132 650.18 404.775 649.66 407.77 647.955 408.269 646.998 408.269Z" fill="#FFFFFF"/><path d="M687.755 399.596C687.755 397.35 687.61 395.146 686.653 393.087 685.53 390.84 683.575 390.258 682.265 390.258 680.684 390.258 678.771 391.048 677.773 393.294 677.003 395 676.733 396.664 676.733 399.596 676.733 402.217 676.92 404.193 677.897 406.106 678.958 408.165 680.83 408.81 682.223 408.81 684.594 408.81 685.946 407.416 686.716 405.836 687.693 403.818 687.755 401.156 687.755 399.596ZM682.223 408.269C681.371 408.269 679.603 407.791 679.104 404.837 678.792 403.215 678.792 401.156 678.792 399.264 678.792 397.038 678.792 395.042 679.228 393.44 679.686 391.631 681.059 390.799 682.223 390.799 683.263 390.799 684.823 391.423 685.343 393.752 685.696 395.291 685.696 397.433 685.696 399.264 685.696 401.073 685.696 403.132 685.405 404.775 684.885 407.77 683.18 408.269 682.223 408.269Z" fill="#FFFFFF"/><path d="M722.978 399.596C722.978 397.35 722.833 395.146 721.876 393.087 720.753 390.84 718.798 390.258 717.487 390.258 715.907 390.258 713.993 391.048 712.995 393.294 712.226 395 711.955 396.664 711.955 399.596 711.955 402.217 712.142 404.193 713.12 406.106 714.181 408.165 716.052 408.81 717.446 408.81 719.817 408.81 721.169 407.416 721.938 405.836 722.916 403.818 722.978 401.156 722.978 399.596ZM717.446 408.269C716.593 408.269 714.825 407.791 714.326 404.837 714.014 403.215 714.014 401.156 714.014 399.264 714.014 397.038 714.014 395.042 714.451 393.44 714.909 391.631 716.281 390.799 717.446 390.799 718.486 390.799 720.046 391.423 720.566 393.752 720.919 395.291 720.919 397.433 720.919 399.264 720.919 401.073 720.919 403.132 720.628 404.775 720.108 407.77 718.403 408.269 717.446 408.269Z" fill="#FFFFFF"/><path d="M612.979 425.959C612.979 425.335 612.979 425.314 612.438 425.314 611.773 426.042 610.421 427.04 607.634 427.04L607.634 427.831C608.258 427.831 609.61 427.831 611.107 427.124L611.107 441.225C611.107 442.202 611.024 442.514 608.653 442.514L607.8 442.514 607.8 443.305C608.528 443.242 611.17 443.242 612.043 443.242 612.937 443.242 615.537 443.242 616.265 443.305L616.265 442.514 615.433 442.514C613.062 442.514 612.979 442.202 612.979 441.225Z" fill="#FFFFFF"/><path d="M652.53 434.653C652.53 432.406 652.385 430.202 651.428 428.143 650.305 425.897 648.35 425.314 647.039 425.314 645.459 425.314 643.545 426.105 642.547 428.351 641.778 430.056 641.507 431.72 641.507 434.653 641.507 437.273 641.694 439.249 642.672 441.162 643.733 443.221 645.604 443.866 646.998 443.866 649.369 443.866 650.721 442.473 651.49 440.892 652.468 438.875 652.53 436.212 652.53 434.653ZM646.998 443.325C646.145 443.325 644.377 442.847 643.878 439.894 643.566 438.271 643.566 436.212 643.566 434.32 643.566 432.094 643.566 430.098 644.003 428.496 644.461 426.687 645.833 425.855 646.998 425.855 648.038 425.855 649.598 426.479 650.118 428.808 650.471 430.347 650.471 432.49 650.471 434.32 650.471 436.129 650.471 438.188 650.18 439.831 649.66 442.826 647.955 443.325 646.998 443.325Z" fill="#FFFFFF"/><path d="M683.43 425.959C683.43 425.335 683.43 425.314 682.889 425.314 682.223 426.042 680.871 427.04 678.084 427.04L678.084 427.831C678.708 427.831 680.06 427.831 681.558 427.124L681.558 441.225C681.558 442.202 681.474 442.514 679.104 442.514L678.251 442.514 678.251 443.305C678.979 443.242 681.62 443.242 682.494 443.242 683.388 443.242 685.988 443.242 686.716 443.305L686.716 442.514 685.884 442.514C683.513 442.514 683.43 442.202 683.43 441.225Z" fill="#FFFFFF"/><path d="M722.978 434.653C722.978 432.406 722.833 430.202 721.876 428.143 720.753 425.897 718.798 425.314 717.487 425.314 715.907 425.314 713.993 426.105 712.995 428.351 712.226 430.056 711.955 431.72 711.955 434.653 711.955 437.273 712.142 439.249 713.12 441.162 714.181 443.221 716.052 443.866 717.446 443.866 719.817 443.866 721.169 442.473 721.938 440.892 722.916 438.875 722.978 436.212 722.978 434.653ZM717.446 443.325C716.593 443.325 714.825 442.847 714.326 439.894 714.014 438.271 714.014 436.212 714.014 434.32 714.014 432.094 714.014 430.098 714.451 428.496 714.909 426.687 716.281 425.855 717.446 425.855 718.486 425.855 720.046 426.479 720.566 428.808 720.919 430.347 720.919 432.49 720.919 434.32 720.919 436.129 720.919 438.188 720.628 439.831 720.108 442.826 718.403 443.325 717.446 443.325Z" fill="#FFFFFF"/><path d="M588.299 357.652 590.171 357.652 590.171 310.836 597.305 310.836 597.305 308.964 588.299 308.964Z" fill="#FFFFFF"/><path d="M588.299 373.901 590.171 373.901 590.171 357.616 588.299 357.616Z" fill="#FFFFFF"/><path d="M588.299 390.132 590.171 390.132 590.171 373.847 588.299 373.847Z" fill="#FFFFFF"/><path d="M588.299 406.365 590.171 406.365 590.171 390.08 588.299 390.08Z" fill="#FFFFFF"/><path d="M588.299 454.999 597.305 454.999 597.305 453.148 590.171 453.148 590.171 406.332 588.299 406.332Z" fill="#FFFFFF"/><path d="M739.103 357.652 740.954 357.652 740.954 308.964 731.949 308.964 731.949 310.836 739.103 310.836Z" fill="#FFFFFF"/><path d="M739.103 373.901 740.954 373.901 740.954 357.616 739.103 357.616Z" fill="#FFFFFF"/><path d="M739.103 390.132 740.954 390.132 740.954 373.847 739.103 373.847Z" fill="#FFFFFF"/><path d="M739.103 406.365 740.954 406.365 740.954 390.08 739.103 390.08Z" fill="#FFFFFF"/><path d="M739.103 453.148 731.949 453.148 731.949 454.999 740.954 454.999 740.954 406.332 739.103 406.332Z" fill="#FFFFFF"/><path d="M612.801 291.769C612.801 291.228 612.801 291.187 612.281 291.187 610.888 292.622 608.891 292.622 608.163 292.622L608.163 293.329C608.621 293.329 609.952 293.329 611.116 292.747L611.116 304.414C611.116 305.225 611.054 305.496 609.036 305.496L608.309 305.496 608.309 306.203C609.099 306.14 611.054 306.14 611.969 306.14 612.863 306.14 614.818 306.14 615.609 306.203L615.609 305.496 614.901 305.496C612.863 305.496 612.801 305.246 612.801 304.414Z" fill="#FFFFFF"/><path d="M644.262 304.477 646.653 302.147C650.168 299.028 651.52 297.821 651.52 295.554 651.52 292.996 649.482 291.187 646.737 291.187 644.178 291.187 642.515 293.267 642.515 295.263 642.515 296.532 643.638 296.532 643.721 296.532 644.095 296.532 644.886 296.261 644.886 295.346 644.886 294.743 644.49 294.161 643.7 294.161 643.513 294.161 643.471 294.161 643.388 294.182 643.908 292.726 645.135 291.894 646.445 291.894 648.484 291.894 649.461 293.703 649.461 295.554 649.461 297.364 648.338 299.152 647.09 300.546L642.764 305.371C642.515 305.621 642.515 305.662 642.515 306.203L650.875 306.203 651.52 302.272 650.959 302.272C650.834 302.958 650.688 303.957 650.459 304.289 650.293 304.477 648.816 304.477 648.317 304.477Z" fill="#FFFFFF"/><path d="M683.144 298.258C684.996 297.655 686.306 296.074 686.306 294.306 686.306 292.455 684.33 291.187 682.167 291.187 679.879 291.187 678.174 292.539 678.174 294.244 678.174 294.993 678.673 295.43 679.318 295.43 680.025 295.43 680.462 294.93 680.462 294.286 680.462 293.142 679.401 293.142 679.068 293.142 679.775 292.04 681.252 291.748 682.063 291.748 682.999 291.748 684.226 292.247 684.226 294.286 684.226 294.556 684.184 295.845 683.602 296.844 682.937 297.925 682.167 297.988 681.605 298.029 681.418 298.05 680.878 298.092 680.711 298.092 680.545 298.112 680.378 298.133 680.378 298.362 680.378 298.612 680.545 298.612 680.919 298.612L681.917 298.612C683.768 298.612 684.6 300.13 684.6 302.355 684.6 305.413 683.041 306.057 682.042 306.057 681.086 306.057 679.38 305.683 678.59 304.352 679.38 304.477 680.087 303.977 680.087 303.104 680.087 302.293 679.484 301.856 678.819 301.856 678.278 301.856 677.571 302.168 677.571 303.166 677.571 305.205 679.65 306.702 682.105 306.702 684.871 306.702 686.909 304.643 686.909 302.355 686.909 300.504 685.495 298.736 683.144 298.258Z" fill="#FFFFFF"/><path d="M718.474 302.48 718.474 304.435C718.474 305.246 718.432 305.496 716.748 305.496L716.29 305.496 716.29 306.203C717.205 306.14 718.37 306.14 719.327 306.14 720.262 306.14 721.469 306.14 722.384 306.203L722.384 305.496 721.926 305.496C720.242 305.496 720.2 305.246 720.2 304.435L720.2 302.48 722.467 302.48 722.467 301.794 720.2 301.794 720.2 291.52C720.2 291.083 720.2 290.937 719.846 290.937 719.638 290.937 719.576 290.937 719.389 291.208L712.463 301.794 712.463 302.48ZM718.599 301.794 713.108 301.794 718.599 293.371Z" fill="#FFFFFF"/><path d="M574.048 324.204C574.048 323.664 574.048 323.622 573.528 323.622 572.135 325.057 570.138 325.057 569.41 325.057L569.41 325.764C569.868 325.764 571.199 325.764 572.363 325.182L572.363 336.849C572.363 337.66 572.301 337.931 570.284 337.931L569.556 337.931 569.556 338.638C570.346 338.576 572.301 338.576 573.216 338.576 574.11 338.576 576.065 338.576 576.856 338.638L576.856 337.931 576.149 337.931C574.11 337.931 574.048 337.681 574.048 336.849Z" fill="#FFFFFF"/><path d="M570.284 371.967 572.675 369.638C576.19 366.518 577.542 365.312 577.542 363.045 577.542 360.487 575.504 358.677 572.758 358.677 570.2 358.677 568.537 360.757 568.537 362.754 568.537 364.022 569.66 364.022 569.743 364.022 570.117 364.022 570.907 363.752 570.907 362.837 570.907 362.234 570.512 361.651 569.722 361.651 569.535 361.651 569.493 361.651 569.41 361.672 569.93 360.216 571.157 359.385 572.467 359.385 574.506 359.385 575.483 361.194 575.483 363.045 575.483 364.854 574.36 366.643 573.112 368.036L568.786 372.862C568.537 373.111 568.537 373.153 568.537 373.693L576.897 373.693 577.542 369.763 576.98 369.763C576.856 370.449 576.71 371.447 576.481 371.78 576.315 371.967 574.838 371.967 574.339 371.967Z" fill="#FFFFFF"/><path d="M573.944 400.804C575.795 400.201 577.105 398.62 577.105 396.852 577.105 395.001 575.129 393.733 572.966 393.733 570.679 393.733 568.973 395.085 568.973 396.79 568.973 397.539 569.472 397.975 570.117 397.975 570.824 397.975 571.261 397.476 571.261 396.832 571.261 395.688 570.2 395.688 569.868 395.688 570.575 394.585 572.051 394.294 572.862 394.294 573.798 394.294 575.026 394.793 575.026 396.832 575.026 397.102 574.984 398.391 574.402 399.39 573.736 400.471 572.966 400.534 572.405 400.575 572.218 400.596 571.677 400.638 571.511 400.638 571.344 400.658 571.178 400.679 571.178 400.908 571.178 401.158 571.344 401.158 571.719 401.158L572.717 401.158C574.568 401.158 575.4 402.676 575.4 404.901 575.4 407.958 573.84 408.603 572.842 408.603 571.885 408.603 570.18 408.229 569.389 406.898 570.18 407.022 570.887 406.523 570.887 405.65 570.887 404.839 570.284 404.402 569.618 404.402 569.077 404.402 568.37 404.714 568.37 405.712 568.37 407.75 570.45 409.248 572.904 409.248 575.67 409.248 577.708 407.189 577.708 404.901 577.708 403.05 576.294 401.282 573.944 400.804Z" fill="#FFFFFF"/><path d="M574.048 440.082 574.048 442.037C574.048 442.848 574.006 443.098 572.322 443.098L571.864 443.098 571.864 443.805C572.779 443.743 573.944 443.743 574.901 443.743 575.837 443.743 577.043 443.743 577.958 443.805L577.958 443.098 577.5 443.098C575.816 443.098 575.774 442.848 575.774 442.037L575.774 440.082 578.041 440.082 578.041 439.396 575.774 439.396 575.774 429.122C575.774 428.685 575.774 428.539 575.421 428.539 575.213 428.539 575.15 428.539 574.963 428.81L568.037 439.396 568.037 440.082ZM574.173 439.396 568.682 439.396 574.173 430.973Z" fill="#FFFFFF"/><path d="M666.716 264 650.473 264 649.994 270.031 650.577 270.031C650.951 265.747 651.201 264.79 655.485 264.79 655.963 264.79 656.712 264.79 656.941 264.832 657.482 264.915 657.502 265.248 657.502 265.872L657.502 280.264C657.502 281.179 657.502 281.553 654.861 281.553L653.883 281.553 653.883 282.344C654.757 282.281 657.544 282.281 658.584 282.281 659.645 282.281 662.452 282.281 663.326 282.344L663.326 281.553 662.348 281.553C659.707 281.553 659.707 281.179 659.707 280.264L659.707 265.872C659.707 265.186 659.749 264.936 660.185 264.832 660.393 264.79 661.184 264.79 661.703 264.79 665.967 264.79 666.217 265.747 666.591 270.031L667.194 270.031Z" fill="#FFFFFF"/><path d="M678.367 276.562C678.367 273.068 675.726 270.281 672.585 270.281 669.341 270.281 666.762 273.151 666.762 276.562 666.762 280.014 669.466 282.614 672.544 282.614 675.747 282.614 678.367 279.973 678.367 276.562ZM672.585 282.011C671.587 282.011 670.36 281.595 669.57 280.264 668.842 279.037 668.821 277.456 668.821 276.312 668.821 275.272 668.821 273.629 669.653 272.423 670.422 271.258 671.608 270.822 672.544 270.822 673.604 270.822 674.748 271.3 675.476 272.361 676.308 273.609 676.308 275.314 676.308 276.312 676.308 277.248 676.308 278.933 675.601 280.202 674.852 281.512 673.604 282.011 672.585 282.011Z" fill="#FFFFFF"/><path d="M539.046 400.161 539.046 414.512 539.836 414.512 539.836 413.971C539.836 412.016 540.107 411.933 541.105 411.933L555.414 411.933C556.412 411.933 556.683 412.016 556.683 413.971L556.683 414.512 557.473 414.512C557.411 413.847 557.411 411.455 557.411 410.644 557.411 409.687 557.411 407.316 557.473 406.526L556.683 406.526 556.683 407.337C556.683 409.687 556.371 409.749 555.393 409.749L548.655 409.749 548.655 407.358C548.655 404.82 549.549 404.55 551.816 404.55L551.816 403.947 544.703 403.947 544.703 404.55C546.97 404.55 547.864 404.82 547.864 407.358L547.864 409.749 540.918 409.749C540.023 409.749 539.836 409.687 539.836 408.501L539.836 405.111C539.836 401.222 541.271 400.432 545.077 400.058L545.077 399.454Z" fill="#FFFFFF"/><path d="M551.171 396.034C548.551 396.034 546.076 394.952 546.076 392.872 546.076 392.643 546.076 392.602 546.117 392.477 546.221 392.706 546.388 393.143 547.116 393.143 547.885 393.143 548.197 392.519 548.197 392.082 548.197 391.541 547.843 391 547.116 391 546.304 391 545.535 391.728 545.535 392.893 545.535 395.181 548.031 395.971 548.551 396.138L548.551 396.158 545.535 396.158 545.847 399.798 546.616 399.798C546.616 397.947 546.804 397.739 548.135 397.739L555.476 397.739C556.683 397.739 556.683 398.03 556.683 399.798L557.473 399.798C557.411 399.028 557.411 397.552 557.411 396.741 557.411 395.992 557.411 394.079 557.473 393.455L556.683 393.455 556.683 393.995C556.683 395.971 556.391 396.034 555.414 396.034Z" fill="#FFFFFF"/><path d="M551.691 377.828C548.197 377.828 545.41 380.47 545.41 383.61 545.41 386.855 548.28 389.434 551.691 389.434 555.144 389.434 557.743 386.73 557.743 383.652 557.743 380.449 555.102 377.828 551.691 377.828ZM557.14 383.61C557.14 384.608 556.724 385.835 555.393 386.626 554.166 387.354 552.585 387.375 551.442 387.375 550.402 387.375 548.759 387.375 547.552 386.543 546.388 385.773 545.951 384.588 545.951 383.652 545.951 382.591 546.429 381.447 547.49 380.719 548.738 379.887 550.443 379.887 551.442 379.887 552.377 379.887 554.062 379.887 555.331 380.594 556.641 381.343 557.14 382.591 557.14 383.61Z" fill="#FFFFFF"/><path d="M550.901 357.595C548.384 357.595 547.615 357.595 546.762 358.219 545.701 359.01 545.535 360.278 545.535 361.193 545.535 363.44 547.157 364.583 548.218 365.02 546.138 365.395 545.535 366.85 545.535 368.556 545.535 371.176 547.781 372.216 548.322 372.424L548.322 372.445 545.535 372.445 545.847 376.126 546.616 376.126C546.616 374.296 546.804 374.067 548.135 374.067L555.476 374.067C556.683 374.067 556.683 374.379 556.683 376.126L557.473 376.126C557.411 375.44 557.411 373.963 557.411 373.215 557.411 372.424 557.411 370.968 557.473 370.261L556.683 370.261C556.683 371.988 556.683 372.32 555.476 372.32L550.443 372.32C547.594 372.32 546.076 370.448 546.076 368.764 546.076 367.1 547.469 366.726 549.112 366.726L555.476 366.726C556.683 366.726 556.683 367.017 556.683 368.764L557.473 368.764C557.411 368.078 557.411 366.601 557.411 365.852 557.411 365.062 557.411 363.606 557.473 362.899L556.683 362.899C556.683 364.625 556.683 364.958 555.476 364.958L550.443 364.958C547.594 364.958 546.076 363.086 546.076 361.422 546.076 359.738 547.469 359.363 549.112 359.363L555.476 359.363C556.683 359.363 556.683 359.654 556.683 361.422L557.473 361.422C557.411 360.715 557.411 359.259 557.411 358.49 557.411 357.699 557.411 356.243 557.473 355.536L556.683 355.536C556.683 356.888 556.683 357.575 555.871 357.595Z" fill="#FFFFFF"/></g></svg>