<svg width="1091" height="1074" xmlns="http://www.w3.org/2000/svg" xmlns:xlink="http://www.w3.org/1999/xlink" xml:space="preserve" overflow="hidden"><defs><clipPath id="clip0"><rect x="472" y="524" width="1091" height="1074"/></clipPath></defs><g clip-path="url(#clip0)" transform="translate(-472 -524)"><path d="M1202.5 709C1202.5 612.626 1280.85 534.5 1377.5 534.5 1474.15 534.5 1552.5 612.626 1552.5 709 1552.5 805.374 1474.15 883.5 1377.5 883.5 1280.85 883.5 1202.5 805.374 1202.5 709Z" stroke="#29ABCA" stroke-width="20.625" stroke-miterlimit="8" fill="#236B8E" fill-rule="evenodd"/><path d="M1377.02 670.031C1381.73 670.031 1385.86 670.76 1389.4 672.219 1392.94 673.677 1395.65 675.771 1397.52 678.5 1399.4 681.229 1400.33 684.49 1400.33 688.281 1400.33 691.823 1399.63 694.938 1398.21 697.625 1396.79 700.313 1394.8 702.656 1392.24 704.656 1389.68 706.656 1386.36 708.615 1382.27 710.531L1382.27 711.094C1384.81 711.552 1387.26 712.333 1389.62 713.438 1391.97 714.542 1394.06 715.969 1395.9 717.719 1397.73 719.469 1399.2 721.563 1400.3 724 1401.41 726.438 1401.96 729.219 1401.96 732.344 1401.96 737.177 1400.91 741.469 1398.8 745.219 1396.7 748.969 1393.48 751.927 1389.15 754.094 1384.81 756.26 1379.54 757.344 1373.33 757.344 1369.75 757.344 1365.89 756.938 1361.74 756.125 1357.59 755.313 1353.79 754.24 1350.33 752.906L1350.33 739.656 1357.83 739.656C1359.29 743.99 1361.22 747.135 1363.62 749.094 1366.01 751.052 1369.27 752.031 1373.4 752.031 1378.81 752.031 1382.91 750.552 1385.68 747.594 1388.45 744.635 1389.83 740.26 1389.83 734.469 1389.83 728.385 1388 723.74 1384.33 720.531 1380.67 717.323 1375.29 715.719 1368.21 715.719L1362.58 715.719 1362.58 710.219C1368.21 709.885 1372.95 708.802 1376.8 706.969 1380.66 705.135 1383.52 702.781 1385.4 699.906 1387.27 697.031 1388.21 693.802 1388.21 690.219 1388.21 685.594 1386.98 682.031 1384.52 679.531 1382.06 677.031 1378.48 675.781 1373.77 675.781 1369.86 675.781 1366.67 676.844 1364.21 678.969 1361.75 681.094 1359.94 684.344 1358.77 688.719L1351.27 688.719 1351.27 676.844C1356.11 674.552 1360.63 672.844 1364.83 671.719 1369.04 670.594 1373.11 670.031 1377.02 670.031Z" fill="#FFFFFF" fill-rule="evenodd"/><text fill="#000000" fill-opacity="0" font-family="Arial,Arial_MSFontService,sans-serif" font-size="87.3125" x="1350.33" y="746.43">3</text><path d="M1202.5 1413C1202.5 1316.63 1280.85 1238.5 1377.5 1238.5 1474.15 1238.5 1552.5 1316.63 1552.5 1413 1552.5 1509.37 1474.15 1587.5 1377.5 1587.5 1280.85 1587.5 1202.5 1509.37 1202.5 1413Z" stroke="#29ABCA" stroke-width="20.625" stroke-miterlimit="8" fill="#236B8E" fill-rule="evenodd"/><path d="M1380.9 1388.47 1356.46 1427.28 1356.46 1428.16 1380.9 1428.16 1380.9 1412.59C1380.9 1408.68 1380.96 1404.29 1381.08 1399.44 1381.21 1394.58 1381.36 1390.93 1381.52 1388.47ZM1382.71 1374.34 1391.65 1374.34 1391.65 1428.16 1392.96 1428.16C1395.38 1428.16 1397.11 1427.98 1398.15 1427.62 1399.19 1427.27 1400.05 1426.65 1400.74 1425.75 1401.43 1424.85 1402.06 1423.39 1402.65 1421.34L1407.4 1421.34 1406.65 1434.22 1391.65 1434.22 1391.65 1444.47C1391.65 1447.26 1391.74 1449.3 1391.93 1450.59 1392.12 1451.89 1392.43 1452.91 1392.87 1453.66 1393.3 1454.41 1393.95 1455.03 1394.8 1455.53 1395.66 1456.03 1397.04 1456.53 1398.96 1457.03L1398.96 1460.09 1373.58 1460.09 1373.58 1457.03C1376.17 1456.36 1377.9 1455.62 1378.77 1454.81 1379.65 1454 1380.22 1452.84 1380.49 1451.34 1380.76 1449.84 1380.9 1447.55 1380.9 1444.47L1380.9 1434.22 1346.15 1434.22 1346.15 1429.53Z" fill="#FFFFFF" fill-rule="evenodd"/><text fill="#000000" fill-opacity="0" font-family="Arial,Arial_MSFontService,sans-serif" font-size="85.75" x="1346.15" y="1449.37">4</text><path d="M482.5 709C482.5 612.626 560.626 534.5 657 534.5 753.374 534.5 831.5 612.626 831.5 709 831.5 805.374 753.374 883.5 657 883.5 560.626 883.5 482.5 805.374 482.5 709Z" stroke="#29ABCA" stroke-width="20.625" stroke-miterlimit="8" fill="#236B8E" fill-rule="evenodd"/><path d="M661.296 670.031 664.733 670.031C664.483 674.031 664.358 679.573 664.358 686.656L664.358 740.031C664.358 742.448 664.494 744.271 664.765 745.5 665.035 746.729 665.515 747.729 666.202 748.5 666.89 749.271 667.879 749.875 669.171 750.312 670.463 750.75 672.088 751.083 674.046 751.312 676.004 751.541 678.588 751.698 681.796 751.781L681.796 756.343 635.608 756.343 635.608 751.781C640.233 751.573 643.535 751.291 645.515 750.937 647.494 750.583 649.004 750.052 650.046 749.343 651.088 748.635 651.848 747.635 652.327 746.343 652.806 745.052 653.046 742.948 653.046 740.031L653.046 689.343C653.046 687.677 652.754 686.458 652.171 685.687 651.588 684.916 650.733 684.531 649.608 684.531 648.275 684.531 646.379 685.218 643.921 686.593 641.463 687.968 638.421 689.864 634.796 692.281L632.046 687.468Z" fill="#FFFFFF" fill-rule="evenodd"/><text fill="#000000" fill-opacity="0" font-family="Arial,Arial_MSFontService,sans-serif" font-size="86.3125" x="632.046" y="745.554">1</text><path d="M482.5 1412.5C482.5 1315.85 560.626 1237.5 657 1237.5 753.374 1237.5 831.5 1315.85 831.5 1412.5 831.5 1509.15 753.374 1587.5 657 1587.5 560.626 1587.5 482.5 1509.15 482.5 1412.5Z" stroke="#29ABCA" stroke-width="20.625" stroke-miterlimit="8" fill="#236B8E" fill-rule="evenodd"/><path d="M656.858 1373.78C664.608 1373.78 670.462 1375.48 674.421 1378.87 678.379 1382.27 680.358 1387.2 680.358 1393.66 680.358 1395.86 680.139 1397.9 679.702 1399.75 679.264 1401.6 678.577 1403.44 677.639 1405.25 676.702 1407.06 675.441 1409.01 673.858 1411.09 672.275 1413.18 670.525 1415.29 668.608 1417.44 666.691 1419.58 663.379 1423.16 658.671 1428.16 650.754 1436.53 644.941 1443.84 641.233 1450.09L664.796 1450.09C666.837 1450.09 668.483 1449.97 669.733 1449.72 670.983 1449.47 671.983 1449.05 672.733 1448.47 673.483 1447.88 674.077 1447.12 674.514 1446.19 674.952 1445.25 675.504 1443.8 676.171 1441.84L681.483 1441.84 680.421 1460.09 628.983 1460.09 628.983 1457.09C630.775 1452.72 633.191 1448.24 636.233 1443.66 639.275 1439.07 643.587 1433.68 649.171 1427.47 654.004 1422.13 657.483 1418.09 659.608 1415.34 661.941 1412.34 663.681 1409.75 664.827 1407.56 665.973 1405.37 666.796 1403.31 667.296 1401.37 667.796 1399.44 668.046 1397.49 668.046 1395.53 668.046 1392.41 667.546 1389.65 666.546 1387.25 665.546 1384.85 664.014 1382.97 661.952 1381.59 659.889 1380.22 657.296 1379.53 654.171 1379.53 646.379 1379.53 641.129 1383.86 638.421 1392.53L630.858 1392.53 630.858 1380.53C635.9 1378.16 640.618 1376.44 645.014 1375.37 649.41 1374.31 653.358 1373.78 656.858 1373.78Z" fill="#FFFFFF" fill-rule="evenodd"/><text fill="#000000" fill-opacity="0" font-family="Arial,Arial_MSFontService,sans-serif" font-size="86.3125" x="628.983" y="1449.3">2</text><path d="M10.3126 51.5624 10.3129 354.583-10.3121 354.583-10.3124 51.5625ZM-30.9374 61.875 0 0 30.9376 61.875Z" fill="#7F7F7F" transform="matrix(-1 0 0 1 1377.5 883.5)"/><path d="M1209.75 1260.97 810.447 875.722 824.767 860.88 1224.07 1246.13ZM1230.97 1224.13 1254.02 1289.35 1188.01 1268.65ZM803.548 897.726 780.5 832.5 846.51 853.197Z" fill="#7F7F7F"/><path d="M10.3125-1.0496e-05 10.3128 303.021-10.3122 303.021-10.3125 1.0496e-05ZM30.9378 292.708 0.000360892 354.583-30.9372 292.708Z" fill="#7F7F7F" transform="matrix(-1 0 0 1 657.5 883.5)"/><path d="M1151.18 718.813 883.063 718.812 883.063 698.188 1151.18 698.188ZM1140.87 677.563 1202.75 708.5 1140.87 739.438ZM893.375 739.438 831.5 708.5 893.375 677.562Z" fill="#7F7F7F"/></g></svg>