<svg width="1805" height="1413" xmlns="http://www.w3.org/2000/svg" xml:space="preserve" overflow="hidden"><defs><clipPath id="clip0"><rect x="2146" y="355" width="1805" height="1413"/></clipPath></defs><g clip-path="url(#clip0)" transform="translate(-2146 -355)"><path d="M2146.46 708.958 2386.46 708.958" stroke="#FFFFFF" stroke-width="4.58333" stroke-linejoin="round" stroke-miterlimit="10" fill="none" fill-rule="evenodd"/><path d="M2146.46 1060.21 2386.46 1060.21" stroke="#FFFFFF" stroke-width="4.58333" stroke-linejoin="round" stroke-miterlimit="10" fill="none" fill-rule="evenodd"/><path d="M2146.46 1411.46 2386.46 1411.46" stroke="#FFFFFF" stroke-width="4.58333" stroke-linejoin="round" stroke-miterlimit="10" fill="none" fill-rule="evenodd"/><path d="M2384.17 355.416 2384.17 1765" stroke="#FFFFFF" stroke-width="4.58333" stroke-linejoin="round" stroke-miterlimit="10" fill="none" fill-rule="evenodd"/><path d="M2148.75 355.416 2148.75 1765" stroke="#FFFFFF" stroke-width="4.58333" stroke-linejoin="round" stroke-miterlimit="10" fill="none" fill-rule="evenodd"/><path d="M2146.46 357.708 2386.46 357.708" stroke="#FFFFFF" stroke-width="4.58333" stroke-linejoin="round" stroke-miterlimit="10" fill="none" fill-rule="evenodd"/><path d="M2146.46 1762.71 2386.46 1762.71" stroke="#FFFFFF" stroke-width="4.58333" stroke-linejoin="round" stroke-miterlimit="10" fill="none" fill-rule="evenodd"/><path d="M2271.1 495.031 2274.54 495.031C2274.29 499.031 2274.16 504.573 2274.16 511.656L2274.16 565.031C2274.16 567.448 2274.3 569.27 2274.57 570.5 2274.84 571.729 2275.32 572.729 2276 573.5 2276.69 574.27 2277.68 574.875 2278.97 575.312 2280.26 575.75 2281.89 576.083 2283.85 576.312 2285.81 576.541 2288.39 576.698 2291.6 576.781L2291.6 581.343 2245.41 581.343 2245.41 576.781C2250.04 576.573 2253.34 576.291 2255.32 575.937 2257.3 575.583 2258.81 575.052 2259.85 574.343 2260.89 573.635 2261.65 572.635 2262.13 571.343 2262.61 570.052 2262.85 567.948 2262.85 565.031L2262.85 514.343C2262.85 512.677 2262.56 511.458 2261.97 510.687 2261.39 509.916 2260.54 509.531 2259.41 509.531 2258.08 509.531 2256.18 510.218 2253.72 511.593 2251.26 512.968 2248.22 514.864 2244.6 517.281L2241.85 512.468Z" fill="#FFFFFF" fill-rule="evenodd"/><text fill="#000000" fill-opacity="0" font-family="Arial,Arial_MSFontService,sans-serif" font-size="86.3125" x="2241.85" y="570.554">1</text><path d="M2266.66 846.281C2274.41 846.281 2280.26 847.979 2284.22 851.375 2288.18 854.77 2290.16 859.698 2290.16 866.156 2290.16 868.364 2289.94 870.395 2289.5 872.25 2289.07 874.104 2288.38 875.937 2287.44 877.75 2286.5 879.562 2285.24 881.51 2283.66 883.593 2282.08 885.677 2280.33 887.791 2278.41 889.937 2276.49 892.083 2273.18 895.656 2268.47 900.656 2260.56 909.031 2254.74 916.343 2251.04 922.593L2274.6 922.593C2276.64 922.593 2278.29 922.468 2279.54 922.218 2280.79 921.968 2281.79 921.552 2282.54 920.968 2283.29 920.385 2283.88 919.625 2284.32 918.687 2284.75 917.75 2285.31 916.302 2285.97 914.343L2291.29 914.343 2290.22 932.593 2238.79 932.593 2238.79 929.593C2240.58 925.218 2242.99 920.739 2246.04 916.156 2249.08 911.573 2253.39 906.177 2258.97 899.968 2263.81 894.635 2267.29 890.593 2269.41 887.843 2271.74 884.843 2273.48 882.25 2274.63 880.062 2275.77 877.875 2276.6 875.812 2277.1 873.875 2277.6 871.937 2277.85 869.989 2277.85 868.031 2277.85 864.906 2277.35 862.145 2276.35 859.75 2275.35 857.354 2273.82 855.468 2271.75 854.093 2269.69 852.718 2267.1 852.031 2263.97 852.031 2256.18 852.031 2250.93 856.364 2248.22 865.031L2240.66 865.031 2240.66 853.031C2245.7 850.656 2250.42 848.937 2254.82 847.875 2259.21 846.812 2263.16 846.281 2266.66 846.281Z" fill="#FFFFFF" fill-rule="evenodd"/><text fill="#000000" fill-opacity="0" font-family="Arial,Arial_MSFontService,sans-serif" font-size="86.3125" x="2238.79" y="921.804">2</text><path d="M2266.41 1197.53C2271.12 1197.53 2275.24 1198.26 2278.79 1199.72 2282.33 1201.18 2285.04 1203.27 2286.91 1206 2288.79 1208.73 2289.72 1211.99 2289.72 1215.78 2289.72 1219.32 2289.01 1222.44 2287.6 1225.12 2286.18 1227.81 2284.19 1230.16 2281.63 1232.16 2279.07 1234.16 2275.74 1236.11 2271.66 1238.03L2271.66 1238.59C2274.2 1239.05 2276.65 1239.83 2279 1240.94 2281.36 1242.04 2283.45 1243.47 2285.29 1245.22 2287.12 1246.97 2288.59 1249.06 2289.69 1251.5 2290.8 1253.94 2291.35 1256.72 2291.35 1259.84 2291.35 1264.68 2290.3 1268.97 2288.19 1272.72 2286.09 1276.47 2282.87 1279.43 2278.54 1281.59 2274.2 1283.76 2268.93 1284.84 2262.72 1284.84 2259.14 1284.84 2255.27 1284.44 2251.13 1283.62 2246.98 1282.81 2243.18 1281.74 2239.72 1280.41L2239.72 1267.16 2247.22 1267.16C2248.68 1271.49 2250.61 1274.64 2253 1276.59 2255.4 1278.55 2258.66 1279.53 2262.79 1279.53 2268.2 1279.53 2272.3 1278.05 2275.07 1275.09 2277.84 1272.14 2279.22 1267.76 2279.22 1261.97 2279.22 1255.89 2277.39 1251.24 2273.72 1248.03 2270.06 1244.82 2264.68 1243.22 2257.6 1243.22L2251.97 1243.22 2251.97 1237.72C2257.6 1237.39 2262.34 1236.3 2266.19 1234.47 2270.05 1232.64 2272.91 1230.28 2274.79 1227.41 2276.66 1224.53 2277.6 1221.3 2277.6 1217.72 2277.6 1213.09 2276.37 1209.53 2273.91 1207.03 2271.45 1204.53 2267.87 1203.28 2263.16 1203.28 2259.24 1203.28 2256.06 1204.34 2253.6 1206.47 2251.14 1208.59 2249.33 1211.84 2248.16 1216.22L2240.66 1216.22 2240.66 1204.34C2245.49 1202.05 2250.01 1200.34 2254.22 1199.22 2258.43 1198.09 2262.49 1197.53 2266.41 1197.53Z" fill="#FFFFFF" fill-rule="evenodd"/><text fill="#000000" fill-opacity="0" font-family="Arial,Arial_MSFontService,sans-serif" font-size="87.3125" x="2239.72" y="1273.93">3</text><path d="M2270.29 1563.47 2245.85 1602.28 2245.85 1603.16 2270.29 1603.16 2270.29 1587.59C2270.29 1583.68 2270.35 1579.29 2270.47 1574.44 2270.6 1569.58 2270.74 1565.93 2270.91 1563.47ZM2272.1 1549.34 2281.04 1549.34 2281.04 1603.16 2282.35 1603.16C2284.76 1603.16 2286.49 1602.98 2287.54 1602.62 2288.58 1602.27 2289.44 1601.65 2290.13 1600.75 2290.82 1599.85 2291.45 1598.39 2292.04 1596.34L2296.79 1596.34 2296.04 1609.22 2281.04 1609.22 2281.04 1619.47C2281.04 1622.26 2281.13 1624.3 2281.32 1625.59 2281.5 1626.89 2281.82 1627.91 2282.25 1628.66 2282.69 1629.41 2283.34 1630.03 2284.19 1630.53 2285.05 1631.03 2286.43 1631.53 2288.35 1632.03L2288.35 1635.09 2262.97 1635.09 2262.97 1632.03C2265.56 1631.36 2267.29 1630.62 2268.16 1629.81 2269.04 1629 2269.61 1627.84 2269.88 1626.34 2270.15 1624.84 2270.29 1622.55 2270.29 1619.47L2270.29 1609.22 2235.54 1609.22 2235.54 1604.53Z" fill="#FFFFFF" fill-rule="evenodd"/><text fill="#000000" fill-opacity="0" font-family="Arial,Arial_MSFontService,sans-serif" font-size="85.75" x="2235.54" y="1624.37">4</text><path d="M2384 527.125 2502.79 527.125 2502.79 540.875 2384 540.875ZM2495.92 513.375 2537.17 534 2495.92 554.625Z" fill="#FFFFFF"/><rect x="2537.5" y="423.5" width="221" height="221" stroke="#FFFFFF" stroke-width="3.4375" stroke-miterlimit="8" fill="#236B8E"/><path d="M2648 505.721C2653.57 505.721 2657.78 506.941 2660.62 509.382 2663.47 511.823 2664.89 515.364 2664.89 520.006 2664.89 521.593 2664.73 523.053 2664.42 524.386 2664.11 525.719 2663.61 527.036 2662.94 528.339 2662.26 529.642 2661.36 531.042 2660.22 532.539 2659.08 534.037 2657.82 535.557 2656.45 537.099 2655.07 538.641 2652.69 541.209 2649.3 544.803 2643.61 550.823 2639.44 556.078 2636.77 560.571L2653.71 560.571C2655.17 560.571 2656.36 560.481 2657.25 560.301 2658.15 560.121 2658.87 559.822 2659.41 559.403 2659.95 558.983 2660.38 558.437 2660.69 557.763 2661.01 557.089 2661.4 556.048 2661.88 554.641L2665.7 554.641 2664.94 567.758 2627.97 567.758 2627.97 565.602C2629.25 562.457 2630.99 559.238 2633.18 555.944 2635.36 552.649 2638.46 548.771 2642.48 544.309 2645.95 540.476 2648.45 537.571 2649.98 535.594 2651.65 533.438 2652.9 531.573 2653.73 530.001 2654.55 528.429 2655.14 526.947 2655.5 525.554 2655.86 524.161 2656.04 522.761 2656.04 521.354 2656.04 519.108 2655.68 517.124 2654.96 515.402 2654.24 513.68 2653.14 512.324 2651.66 511.336 2650.18 510.348 2648.32 509.854 2646.07 509.854 2640.47 509.854 2636.7 512.968 2634.75 519.198L2629.31 519.198 2629.31 510.573C2632.94 508.865 2636.33 507.63 2639.49 506.866 2642.65 506.103 2645.49 505.721 2648 505.721Z" fill="#FFFFFF" fill-rule="evenodd"/><text fill="#000000" fill-opacity="0" font-family="Arial,Arial_MSFontService,sans-serif" font-size="62.0371" x="2627.97" y="560.003">2</text><path d="M2758.5 534.5 2911.67 534.5" stroke="#FFFFFF" stroke-width="3.4375" stroke-miterlimit="8" fill="none" fill-rule="evenodd"/><rect x="2911.5" y="423.5" width="221" height="221" stroke="#FFFFFF" stroke-width="3.4375" stroke-miterlimit="8" fill="#236B8E"/><path d="M3021.82 505.721C3025.21 505.721 3028.17 506.245 3030.72 507.293 3033.26 508.341 3035.21 509.846 3036.56 511.808 3037.9 513.769 3038.58 516.113 3038.58 518.838 3038.58 521.384 3038.07 523.622 3037.05 525.554 3036.03 527.486 3034.6 529.17 3032.76 530.608 3030.92 532.045 3028.53 533.453 3025.59 534.83L3025.59 535.235C3027.42 535.564 3029.18 536.126 3030.87 536.919 3032.56 537.713 3034.07 538.739 3035.39 539.996 3036.71 541.254 3037.76 542.759 3038.55 544.511 3039.35 546.263 3039.74 548.262 3039.74 550.508 3039.74 553.982 3038.99 557.067 3037.48 559.762 3035.96 562.457 3033.65 564.584 3030.54 566.141 3027.42 567.698 3023.63 568.477 3019.17 568.477 3016.6 568.477 3013.82 568.185 3010.84 567.601 3007.86 567.017 3005.12 566.246 3002.64 565.287L3002.64 555.764 3008.03 555.764C3009.08 558.878 3010.46 561.14 3012.19 562.547 3013.91 563.955 3016.25 564.658 3019.22 564.658 3023.11 564.658 3026.05 563.595 3028.04 561.469 3030.03 559.343 3031.03 556.198 3031.03 552.035 3031.03 547.663 3029.71 544.324 3027.08 542.018 3024.44 539.712 3020.58 538.559 3015.49 538.559L3011.44 538.559 3011.44 534.606C3015.49 534.366 3018.89 533.587 3021.66 532.27 3024.43 530.952 3026.49 529.26 3027.84 527.194 3029.19 525.127 3029.86 522.806 3029.86 520.231 3029.86 516.906 3028.98 514.346 3027.21 512.549 3025.44 510.752 3022.87 509.854 3019.49 509.854 3016.67 509.854 3014.38 510.617 3012.61 512.145 3010.85 513.672 3009.54 516.008 3008.7 519.153L3003.31 519.153 3003.31 510.617C3006.79 508.97 3010.04 507.742 3013.06 506.934 3016.09 506.125 3019.01 505.721 3021.82 505.721Z" fill="#FFFFFF" fill-rule="evenodd"/><text fill="#000000" fill-opacity="0" font-family="Arial,Arial_MSFontService,sans-serif" font-size="62.7559" x="3002.64" y="560.632">3</text><path d="M3132.5 534.5 3285.67 534.5" stroke="#FFFFFF" stroke-width="3.4375" stroke-miterlimit="8" fill="none" fill-rule="evenodd"/><rect x="3285.5" y="423.5" width="221" height="221" stroke="#FFFFFF" stroke-width="3.4375" stroke-miterlimit="8" fill="#236B8E"/><path d="M3398.61 516.278 3381.04 544.174 3381.04 544.803 3398.61 544.803 3398.61 533.617C3398.61 530.802 3398.65 527.65 3398.74 524.161 3398.83 520.672 3398.94 518.044 3399.06 516.278ZM3399.91 506.125 3406.33 506.125 3406.33 544.803 3407.28 544.803C3409.01 544.803 3410.26 544.676 3411 544.421 3411.75 544.167 3412.37 543.717 3412.87 543.073 3413.36 542.43 3413.82 541.374 3414.24 539.906L3417.65 539.906 3417.11 549.16 3406.33 549.16 3406.33 556.528C3406.33 558.534 3406.4 560.002 3406.53 560.93 3406.67 561.858 3406.89 562.592 3407.21 563.131 3407.52 563.67 3407.99 564.119 3408.6 564.479 3409.22 564.838 3410.21 565.198 3411.59 565.557L3411.59 567.758 3393.35 567.758 3393.35 565.557C3395.21 565.078 3396.45 564.546 3397.08 563.962 3397.71 563.378 3398.12 562.547 3398.31 561.469 3398.51 560.391 3398.61 558.744 3398.61 556.528L3398.61 549.16 3373.63 549.16 3373.63 545.791Z" fill="#FFFFFF" fill-rule="evenodd"/><text fill="#000000" fill-opacity="0" font-family="Arial,Arial_MSFontService,sans-serif" font-size="61.6328" x="3373.63" y="560.054">4</text><path d="M3506.5 534.5 3659.67 534.5" stroke="#FFFFFF" stroke-width="3.4375" stroke-miterlimit="8" fill="none" fill-rule="evenodd"/><rect x="3659.5" y="423.5" width="290" height="221" stroke="#FFFFFF" stroke-width="3.4375" stroke-miterlimit="8" fill="#236B8E"/><path d="M3784.83 520.512 3796.38 520.512 3796.38 541.14C3796.38 544.301 3796.51 546.706 3796.75 548.354 3796.99 550.002 3797.36 551.245 3797.84 552.083 3798.33 552.92 3799.02 553.623 3799.91 554.19 3800.8 554.757 3802.03 555.041 3803.6 555.041 3804.62 555.041 3805.61 554.839 3806.56 554.433 3807.5 554.028 3808.56 553.319 3809.72 552.306 3810.88 551.292 3811.71 550.286 3812.21 549.286 3812.71 548.287 3812.96 547.125 3812.96 545.801L3812.96 530.603C3812.96 529.063 3812.92 527.901 3812.84 527.118 3812.76 526.334 3812.62 525.706 3812.43 525.233 3812.24 524.76 3812.02 524.375 3811.76 524.078 3811.51 523.781 3811.14 523.511 3810.67 523.268 3810.2 523.025 3809.43 522.768 3808.38 522.498L3808.38 520.512 3819.93 520.512 3819.93 548.192C3819.93 550.272 3819.97 551.772 3820.05 552.691 3820.13 553.609 3820.31 554.339 3820.58 554.879 3820.85 555.419 3821.27 555.858 3821.83 556.196 3822.4 556.534 3823.42 556.851 3824.87 557.149L3824.87 559.256 3815.59 559.661 3813.12 559.661 3813.36 553.015 3812.76 552.853C3810.51 555.284 3808.37 557.068 3806.33 558.202 3804.29 559.337 3802.25 559.904 3800.19 559.904 3797.73 559.904 3795.71 559.418 3794.11 558.445 3792.52 557.473 3791.33 556.021 3790.55 554.089 3789.76 552.157 3789.37 549.435 3789.37 545.922L3789.37 530.603C3789.37 528.334 3789.28 526.773 3789.11 525.922 3788.93 525.071 3788.6 524.396 3788.1 523.896 3787.6 523.396 3786.51 522.93 3784.83 522.498ZM3763.88 519.863C3765.34 519.863 3766.64 520.032 3767.79 520.37 3768.94 520.708 3769.95 521.228 3770.83 521.93 3771.71 522.633 3772.43 523.504 3773 524.544 3773.57 525.585 3773.99 526.834 3774.27 528.293 3774.56 529.752 3774.7 531.603 3774.7 533.845L3774.7 549.124C3774.7 550.988 3774.75 552.339 3774.86 553.177 3774.97 554.014 3775.16 554.663 3775.43 555.122 3775.7 555.581 3776.09 555.966 3776.6 556.277 3777.12 556.588 3778.01 556.919 3779.28 557.27L3779.28 559.256 3763.31 559.256 3763.31 557.27C3764.37 556.946 3765.12 556.662 3765.58 556.419 3766.04 556.176 3766.43 555.838 3766.74 555.406 3767.05 554.974 3767.29 554.305 3767.47 553.4 3767.64 552.495 3767.73 551.123 3767.73 549.286L3767.73 538.668C3767.73 536.777 3767.68 535.061 3767.57 533.521 3767.46 531.981 3767.28 530.718 3767.02 529.732 3766.76 528.746 3766.45 527.976 3766.09 527.422 3765.72 526.868 3765.29 526.395 3764.79 526.003 3764.29 525.612 3763.72 525.301 3763.07 525.071 3762.42 524.841 3761.57 524.727 3760.52 524.727 3759.46 524.727 3758.46 524.936 3757.52 525.355 3756.57 525.774 3755.53 526.496 3754.4 527.523 3753.26 528.55 3752.44 529.563 3751.92 530.563 3751.41 531.562 3751.15 532.711 3751.15 534.007L3751.15 549.124C3751.15 551.448 3751.26 553.062 3751.48 553.967 3751.69 554.872 3752.11 555.561 3752.71 556.034 3753.32 556.507 3754.31 556.919 3755.69 557.27L3755.69 559.256 3739.81 559.256 3739.81 557.27C3740.86 556.946 3741.61 556.662 3742.06 556.419 3742.5 556.176 3742.88 555.838 3743.19 555.406 3743.5 554.974 3743.74 554.312 3743.92 553.42 3744.09 552.528 3744.18 551.137 3744.18 549.246L3744.18 531.576C3744.18 529.847 3744.16 528.455 3744.1 527.401 3744.05 526.348 3743.86 525.503 3743.53 524.869 3743.21 524.234 3742.72 523.761 3742.06 523.45 3741.39 523.139 3740.45 522.876 3739.24 522.66L3739.24 520.512 3748.72 520.147 3751.19 520.147 3750.75 526.753 3751.32 526.915C3753.31 524.889 3754.93 523.443 3756.16 522.579 3757.39 521.714 3758.63 521.045 3759.89 520.573 3761.14 520.1 3762.47 519.863 3763.88 519.863ZM3862.2 501.261 3864.63 501.261 3864.63 549.124C3864.63 551.448 3864.73 553.062 3864.95 553.967 3865.17 554.872 3865.58 555.561 3866.19 556.034 3866.79 556.507 3867.79 556.919 3869.17 557.27L3869.17 559.256 3853.08 559.256 3853.08 557.27C3854.43 556.919 3855.37 556.554 3855.89 556.176 3856.42 555.798 3856.8 555.345 3857.03 554.818 3857.26 554.291 3857.42 553.575 3857.51 552.67 3857.61 551.765 3857.66 550.583 3857.66 549.124L3857.66 515.203C3857.66 512.609 3857.64 510.799 3857.6 509.772 3857.55 508.745 3857.45 507.874 3857.27 507.158 3857.1 506.442 3856.85 505.881 3856.54 505.476 3856.23 505.071 3855.81 504.747 3855.29 504.504 3854.76 504.26 3853.81 504.017 3852.43 503.774L3852.43 501.667ZM3840.2 501.261 3842.63 501.261 3842.63 549.124C3842.63 551.448 3842.73 553.062 3842.95 553.967 3843.17 554.872 3843.58 555.561 3844.19 556.034 3844.79 556.507 3845.79 556.919 3847.17 557.27L3847.17 559.256 3831.08 559.256 3831.08 557.27C3832.43 556.919 3833.37 556.554 3833.89 556.176 3834.42 555.798 3834.8 555.345 3835.03 554.818 3835.26 554.291 3835.42 553.575 3835.51 552.67 3835.61 551.765 3835.66 550.583 3835.66 549.124L3835.66 515.203C3835.66 512.609 3835.64 510.799 3835.6 509.772 3835.55 508.745 3835.45 507.874 3835.27 507.158 3835.1 506.442 3834.85 505.881 3834.54 505.476 3834.23 505.071 3833.81 504.747 3833.29 504.504 3832.76 504.26 3831.81 504.017 3830.43 503.774L3830.43 501.667Z" fill="#FFFFFF" fill-rule="evenodd"/><text fill="#000000" fill-opacity="0" font-family="Arial,Arial_MSFontService,sans-serif" font-size="58.6431" x="3739.24" y="552.574">null</text><text fill="#FFFFFF" font-family="David,David_MSFontService,sans-serif" font-weight="400" font-size="83" transform="matrix(1 0 0 1 3872.23 559)"> </text><path d="M2384 1580.13 2502.79 1580.13 2502.79 1593.88 2384 1593.88ZM2495.92 1566.38 2537.17 1587 2495.92 1607.63Z" fill="#FFFFFF"/><rect x="2537.5" y="1476.5" width="221" height="221" stroke="#FFFFFF" stroke-width="3.4375" stroke-miterlimit="8" fill="#236B8E"/><path d="M2651.19 1558.64 2653.66 1558.64C2653.48 1561.51 2653.39 1565.5 2653.39 1570.59L2653.39 1608.95C2653.39 1610.69 2653.49 1612 2653.68 1612.88 2653.88 1613.76 2654.22 1614.48 2654.72 1615.04 2655.21 1615.59 2655.92 1616.03 2656.85 1616.34 2657.78 1616.65 2658.95 1616.89 2660.35 1617.06 2661.76 1617.22 2663.62 1617.34 2665.92 1617.4L2665.92 1620.67 2632.73 1620.67 2632.73 1617.4C2636.05 1617.25 2638.42 1617.04 2639.85 1616.79 2641.27 1616.53 2642.36 1616.15 2643.1 1615.64 2643.85 1615.13 2644.4 1614.42 2644.74 1613.49 2645.09 1612.56 2645.26 1611.05 2645.26 1608.95L2645.26 1572.52C2645.26 1571.32 2645.05 1570.44 2644.63 1569.89 2644.21 1569.34 2643.6 1569.06 2642.79 1569.06 2641.83 1569.06 2640.47 1569.55 2638.7 1570.54 2636.94 1571.53 2634.75 1572.89 2632.14 1574.63L2630.17 1571.17Z" fill="#FFFFFF" fill-rule="evenodd"/><text fill="#000000" fill-opacity="0" font-family="Arial,Arial_MSFontService,sans-serif" font-size="62.0371" x="2630.17" y="1612.92">1</text><path d="M2758.5 1587.5 2911.67 1587.5" stroke="#FFFFFF" stroke-width="3.4375" stroke-miterlimit="8" fill="none" fill-rule="evenodd"/><rect x="2911.5" y="1476.5" width="221" height="221" stroke="#FFFFFF" stroke-width="3.4375" stroke-miterlimit="8" fill="#236B8E"/><path d="M3021.82 1558.64C3025.21 1558.64 3028.17 1559.16 3030.72 1560.21 3033.26 1561.26 3035.21 1562.76 3036.56 1564.72 3037.9 1566.69 3038.58 1569.03 3038.58 1571.75 3038.58 1574.3 3038.07 1576.54 3037.05 1578.47 3036.03 1580.4 3034.6 1582.09 3032.76 1583.52 3030.92 1584.96 3028.53 1586.37 3025.59 1587.75L3025.59 1588.15C3027.42 1588.48 3029.18 1589.04 3030.87 1589.84 3032.56 1590.63 3034.07 1591.66 3035.39 1592.91 3036.71 1594.17 3037.76 1595.68 3038.55 1597.43 3039.35 1599.18 3039.74 1601.18 3039.74 1603.42 3039.74 1606.9 3038.99 1609.98 3037.48 1612.68 3035.96 1615.37 3033.65 1617.5 3030.54 1619.06 3027.42 1620.61 3023.63 1621.39 3019.17 1621.39 3016.6 1621.39 3013.82 1621.1 3010.84 1620.52 3007.86 1619.93 3005.12 1619.16 3002.64 1618.2L3002.64 1608.68 3008.03 1608.68C3009.08 1611.8 3010.46 1614.06 3012.19 1615.46 3013.91 1616.87 3016.25 1617.57 3019.22 1617.57 3023.11 1617.57 3026.05 1616.51 3028.04 1614.39 3030.03 1612.26 3031.03 1609.11 3031.03 1604.95 3031.03 1600.58 3029.71 1597.24 3027.08 1594.93 3024.44 1592.63 3020.58 1591.48 3015.49 1591.48L3011.44 1591.48 3011.44 1587.52C3015.49 1587.28 3018.89 1586.5 3021.66 1585.19 3024.43 1583.87 3026.49 1582.18 3027.84 1580.11 3029.19 1578.04 3029.86 1575.72 3029.86 1573.15 3029.86 1569.82 3028.98 1567.26 3027.21 1565.47 3025.44 1563.67 3022.87 1562.77 3019.49 1562.77 3016.67 1562.77 3014.38 1563.53 3012.61 1565.06 3010.85 1566.59 3009.54 1568.92 3008.7 1572.07L3003.31 1572.07 3003.31 1563.53C3006.79 1561.89 3010.04 1560.66 3013.06 1559.85 3016.09 1559.04 3019.01 1558.64 3021.82 1558.64Z" fill="#FFFFFF" fill-rule="evenodd"/><text fill="#000000" fill-opacity="0" font-family="Arial,Arial_MSFontService,sans-serif" font-size="62.7559" x="3002.64" y="1613.55">3</text><path d="M3132.5 1587.5 3285.67 1587.5" stroke="#FFFFFF" stroke-width="3.4375" stroke-miterlimit="8" fill="none" fill-rule="evenodd"/><rect x="3285.5" y="1476.5" width="290" height="221" stroke="#FFFFFF" stroke-width="3.4375" stroke-miterlimit="8" fill="#236B8E"/><path d="M3410.83 1573.43 3422.38 1573.43 3422.38 1594.06C3422.38 1597.22 3422.51 1599.62 3422.75 1601.27 3422.99 1602.92 3423.36 1604.16 3423.84 1605 3424.33 1605.84 3425.02 1606.54 3425.91 1607.11 3426.8 1607.67 3428.03 1607.96 3429.6 1607.96 3430.62 1607.96 3431.61 1607.76 3432.56 1607.35 3433.5 1606.94 3434.56 1606.24 3435.72 1605.22 3436.88 1604.21 3437.71 1603.2 3438.21 1602.2 3438.71 1601.2 3438.96 1600.04 3438.96 1598.72L3438.96 1583.52C3438.96 1581.98 3438.92 1580.82 3438.84 1580.03 3438.76 1579.25 3438.62 1578.62 3438.43 1578.15 3438.24 1577.68 3438.02 1577.29 3437.76 1576.99 3437.51 1576.7 3437.14 1576.43 3436.67 1576.18 3436.2 1575.94 3435.43 1575.68 3434.38 1575.41L3434.38 1573.43 3445.93 1573.43 3445.93 1601.11C3445.93 1603.19 3445.97 1604.69 3446.05 1605.61 3446.13 1606.53 3446.31 1607.26 3446.58 1607.8 3446.85 1608.34 3447.27 1608.77 3447.83 1609.11 3448.4 1609.45 3449.42 1609.77 3450.87 1610.07L3450.87 1612.17 3441.59 1612.58 3439.12 1612.58 3439.36 1605.93 3438.76 1605.77C3436.51 1608.2 3434.37 1609.98 3432.33 1611.12 3430.29 1612.25 3428.25 1612.82 3426.19 1612.82 3423.73 1612.82 3421.71 1612.33 3420.11 1611.36 3418.52 1610.39 3417.33 1608.94 3416.55 1607.01 3415.76 1605.07 3415.37 1602.35 3415.37 1598.84L3415.37 1583.52C3415.37 1581.25 3415.28 1579.69 3415.11 1578.84 3414.93 1577.99 3414.6 1577.31 3414.1 1576.81 3413.6 1576.31 3412.51 1575.85 3410.83 1575.41ZM3389.88 1572.78C3391.34 1572.78 3392.64 1572.95 3393.79 1573.29 3394.94 1573.62 3395.95 1574.14 3396.83 1574.85 3397.71 1575.55 3398.43 1576.42 3399 1577.46 3399.57 1578.5 3399.99 1579.75 3400.27 1581.21 3400.56 1582.67 3400.7 1584.52 3400.7 1586.76L3400.7 1602.04C3400.7 1603.9 3400.75 1605.26 3400.86 1606.09 3400.97 1606.93 3401.16 1607.58 3401.43 1608.04 3401.7 1608.5 3402.09 1608.88 3402.6 1609.19 3403.12 1609.5 3404.01 1609.84 3405.28 1610.19L3405.28 1612.17 3389.31 1612.17 3389.31 1610.19C3390.37 1609.86 3391.12 1609.58 3391.58 1609.34 3392.04 1609.09 3392.43 1608.75 3392.74 1608.32 3393.05 1607.89 3393.29 1607.22 3393.47 1606.32 3393.64 1605.41 3393.73 1604.04 3393.73 1602.2L3393.73 1591.58C3393.73 1589.69 3393.68 1587.98 3393.57 1586.44 3393.46 1584.9 3393.28 1583.63 3393.02 1582.65 3392.76 1581.66 3392.45 1580.89 3392.09 1580.34 3391.72 1579.78 3391.29 1579.31 3390.79 1578.92 3390.29 1578.53 3389.72 1578.22 3389.07 1577.99 3388.42 1577.76 3387.57 1577.64 3386.52 1577.64 3385.46 1577.64 3384.46 1577.85 3383.52 1578.27 3382.57 1578.69 3381.53 1579.41 3380.4 1580.44 3379.26 1581.47 3378.44 1582.48 3377.92 1583.48 3377.41 1584.48 3377.15 1585.63 3377.15 1586.92L3377.15 1602.04C3377.15 1604.36 3377.26 1605.98 3377.48 1606.88 3377.69 1607.79 3378.11 1608.48 3378.71 1608.95 3379.32 1609.42 3380.31 1609.84 3381.69 1610.19L3381.69 1612.17 3365.81 1612.17 3365.81 1610.19C3366.86 1609.86 3367.61 1609.58 3368.06 1609.34 3368.5 1609.09 3368.88 1608.75 3369.19 1608.32 3369.5 1607.89 3369.74 1607.23 3369.92 1606.34 3370.09 1605.44 3370.18 1604.05 3370.18 1602.16L3370.18 1584.49C3370.18 1582.76 3370.16 1581.37 3370.1 1580.32 3370.05 1579.26 3369.86 1578.42 3369.53 1577.79 3369.21 1577.15 3368.72 1576.68 3368.06 1576.37 3367.39 1576.06 3366.45 1575.79 3365.24 1575.58L3365.24 1573.43 3374.72 1573.06 3377.19 1573.06 3376.75 1579.67 3377.32 1579.83C3379.31 1577.81 3380.93 1576.36 3382.16 1575.5 3383.39 1574.63 3384.63 1573.96 3385.89 1573.49 3387.14 1573.02 3388.47 1572.78 3389.88 1572.78ZM3488.2 1554.18 3490.63 1554.18 3490.63 1602.04C3490.63 1604.36 3490.73 1605.98 3490.95 1606.88 3491.17 1607.79 3491.58 1608.48 3492.19 1608.95 3492.79 1609.42 3493.79 1609.84 3495.17 1610.19L3495.17 1612.17 3479.08 1612.17 3479.08 1610.19C3480.43 1609.84 3481.37 1609.47 3481.89 1609.09 3482.42 1608.71 3482.8 1608.26 3483.03 1607.73 3483.26 1607.21 3483.42 1606.49 3483.51 1605.59 3483.61 1604.68 3483.66 1603.5 3483.66 1602.04L3483.66 1568.12C3483.66 1565.53 3483.64 1563.72 3483.6 1562.69 3483.55 1561.66 3483.45 1560.79 3483.27 1560.07 3483.1 1559.36 3482.85 1558.8 3482.54 1558.39 3482.23 1557.99 3481.81 1557.66 3481.29 1557.42 3480.76 1557.18 3479.81 1556.93 3478.43 1556.69L3478.43 1554.58ZM3466.2 1554.18 3468.63 1554.18 3468.63 1602.04C3468.63 1604.36 3468.73 1605.98 3468.95 1606.88 3469.17 1607.79 3469.58 1608.48 3470.19 1608.95 3470.79 1609.42 3471.79 1609.84 3473.17 1610.19L3473.17 1612.17 3457.08 1612.17 3457.08 1610.19C3458.43 1609.84 3459.37 1609.47 3459.89 1609.09 3460.42 1608.71 3460.8 1608.26 3461.03 1607.73 3461.26 1607.21 3461.42 1606.49 3461.51 1605.59 3461.61 1604.68 3461.66 1603.5 3461.66 1602.04L3461.66 1568.12C3461.66 1565.53 3461.64 1563.72 3461.6 1562.69 3461.55 1561.66 3461.45 1560.79 3461.27 1560.07 3461.1 1559.36 3460.85 1558.8 3460.54 1558.39 3460.23 1557.99 3459.81 1557.66 3459.29 1557.42 3458.76 1557.18 3457.81 1556.93 3456.43 1556.69L3456.43 1554.58Z" fill="#FFFFFF" fill-rule="evenodd"/><text fill="#000000" fill-opacity="0" font-family="Arial,Arial_MSFontService,sans-serif" font-size="58.6431" x="3365.24" y="1605.49">null</text><text fill="#FFFFFF" font-family="David,David_MSFontService,sans-serif" font-weight="400" font-size="83" transform="matrix(1 0 0 1 3498.23 1612)"> </text><path d="M2384 1230.13 2502.79 1230.13 2502.79 1243.88 2384 1243.88ZM2495.92 1216.38 2537.17 1237 2495.92 1257.63Z" fill="#FFFFFF"/><rect x="2537.5" y="1127.5" width="221" height="221" stroke="#FFFFFF" stroke-width="3.4375" stroke-miterlimit="8" fill="#236B8E"/><path d="M2651.19 1209.47 2653.66 1209.47C2653.48 1212.35 2653.39 1216.33 2653.39 1221.42L2653.39 1259.78C2653.39 1261.52 2653.49 1262.83 2653.68 1263.71 2653.88 1264.6 2654.22 1265.32 2654.72 1265.87 2655.21 1266.42 2655.92 1266.86 2656.85 1267.17 2657.78 1267.49 2658.95 1267.73 2660.35 1267.89 2661.76 1268.06 2663.62 1268.17 2665.92 1268.23L2665.92 1271.51 2632.73 1271.51 2632.73 1268.23C2636.05 1268.08 2638.42 1267.88 2639.85 1267.62 2641.27 1267.37 2642.36 1266.99 2643.1 1266.48 2643.85 1265.97 2644.4 1265.25 2644.74 1264.32 2645.09 1263.39 2645.26 1261.88 2645.26 1259.78L2645.26 1223.35C2645.26 1222.15 2645.05 1221.28 2644.63 1220.72 2644.21 1220.17 2643.6 1219.89 2642.79 1219.89 2641.83 1219.89 2640.47 1220.39 2638.7 1221.38 2636.94 1222.36 2634.75 1223.73 2632.14 1225.46L2630.17 1222Z" fill="#FFFFFF" fill-rule="evenodd"/><text fill="#000000" fill-opacity="0" font-family="Arial,Arial_MSFontService,sans-serif" font-size="62.0371" x="2630.17" y="1263.75">1</text><path d="M2758.5 1237.5 2911.67 1237.5" stroke="#FFFFFF" stroke-width="3.4375" stroke-miterlimit="8" fill="none" fill-rule="evenodd"/><rect x="2911.5" y="1127.5" width="290" height="221" stroke="#FFFFFF" stroke-width="3.4375" stroke-miterlimit="8" fill="#236B8E"/><path d="M3036.83 1224.26 3048.38 1224.26 3048.38 1244.89C3048.38 1248.05 3048.51 1250.46 3048.75 1252.1 3048.99 1253.75 3049.36 1254.99 3049.84 1255.83 3050.33 1256.67 3051.02 1257.37 3051.91 1257.94 3052.8 1258.51 3054.03 1258.79 3055.6 1258.79 3056.62 1258.79 3057.61 1258.59 3058.56 1258.18 3059.5 1257.78 3060.56 1257.07 3061.72 1256.06 3062.88 1255.04 3063.71 1254.04 3064.21 1253.04 3064.71 1252.04 3064.96 1250.87 3064.96 1249.55L3064.96 1234.35C3064.96 1232.81 3064.92 1231.65 3064.84 1230.87 3064.76 1230.08 3064.62 1229.46 3064.43 1228.98 3064.24 1228.51 3064.02 1228.13 3063.76 1227.83 3063.51 1227.53 3063.14 1227.26 3062.67 1227.02 3062.2 1226.77 3061.43 1226.52 3060.38 1226.25L3060.38 1224.26 3071.93 1224.26 3071.93 1251.94C3071.93 1254.02 3071.97 1255.52 3072.05 1256.44 3072.13 1257.36 3072.31 1258.09 3072.58 1258.63 3072.85 1259.17 3073.27 1259.61 3073.83 1259.95 3074.4 1260.28 3075.42 1260.6 3076.87 1260.9L3076.87 1263.01 3067.59 1263.41 3065.12 1263.41 3065.36 1256.76 3064.76 1256.6C3062.51 1259.03 3060.37 1260.82 3058.33 1261.95 3056.29 1263.09 3054.25 1263.65 3052.19 1263.65 3049.73 1263.65 3047.71 1263.17 3046.11 1262.2 3044.52 1261.22 3043.33 1259.77 3042.55 1257.84 3041.76 1255.91 3041.37 1253.18 3041.37 1249.67L3041.37 1234.35C3041.37 1232.08 3041.28 1230.52 3041.11 1229.67 3040.93 1228.82 3040.6 1228.15 3040.1 1227.65 3039.6 1227.15 3038.51 1226.68 3036.83 1226.25ZM3015.88 1223.61C3017.34 1223.61 3018.64 1223.78 3019.79 1224.12 3020.94 1224.46 3021.95 1224.98 3022.83 1225.68 3023.71 1226.38 3024.43 1227.25 3025 1228.29 3025.57 1229.33 3025.99 1230.58 3026.27 1232.04 3026.56 1233.5 3026.7 1235.35 3026.7 1237.6L3026.7 1252.87C3026.7 1254.74 3026.75 1256.09 3026.86 1256.93 3026.97 1257.76 3027.16 1258.41 3027.43 1258.87 3027.7 1259.33 3028.09 1259.72 3028.6 1260.03 3029.12 1260.34 3030.01 1260.67 3031.28 1261.02L3031.28 1263.01 3015.31 1263.01 3015.31 1261.02C3016.37 1260.7 3017.12 1260.41 3017.58 1260.17 3018.04 1259.93 3018.43 1259.59 3018.74 1259.16 3019.05 1258.72 3019.29 1258.05 3019.47 1257.15 3019.64 1256.24 3019.73 1254.87 3019.73 1253.04L3019.73 1242.42C3019.73 1240.53 3019.68 1238.81 3019.57 1237.27 3019.46 1235.73 3019.28 1234.47 3019.02 1233.48 3018.76 1232.5 3018.45 1231.73 3018.09 1231.17 3017.72 1230.62 3017.29 1230.14 3016.79 1229.75 3016.29 1229.36 3015.72 1229.05 3015.07 1228.82 3014.42 1228.59 3013.57 1228.48 3012.52 1228.48 3011.46 1228.48 3010.46 1228.69 3009.52 1229.1 3008.57 1229.52 3007.53 1230.25 3006.4 1231.27 3005.26 1232.3 3004.44 1233.31 3003.92 1234.31 3003.41 1235.31 3003.15 1236.46 3003.15 1237.76L3003.15 1252.87C3003.15 1255.2 3003.26 1256.81 3003.48 1257.72 3003.69 1258.62 3004.11 1259.31 3004.71 1259.78 3005.32 1260.26 3006.31 1260.67 3007.69 1261.02L3007.69 1263.01 2991.81 1263.01 2991.81 1261.02C2992.86 1260.7 2993.61 1260.41 2994.06 1260.17 2994.5 1259.93 2994.88 1259.59 2995.19 1259.16 2995.5 1258.72 2995.74 1258.06 2995.92 1257.17 2996.09 1256.28 2996.18 1254.89 2996.18 1253L2996.18 1235.33C2996.18 1233.6 2996.16 1232.21 2996.1 1231.15 2996.05 1230.1 2995.86 1229.25 2995.53 1228.62 2995.21 1227.98 2994.72 1227.51 2994.06 1227.2 2993.39 1226.89 2992.45 1226.63 2991.24 1226.41L2991.24 1224.26 3000.72 1223.9 3003.19 1223.9 3002.75 1230.5 3003.32 1230.67C3005.31 1228.64 3006.93 1227.19 3008.16 1226.33 3009.39 1225.46 3010.63 1224.8 3011.89 1224.32 3013.14 1223.85 3014.47 1223.61 3015.88 1223.61ZM3114.2 1205.01 3116.63 1205.01 3116.63 1252.87C3116.63 1255.2 3116.73 1256.81 3116.95 1257.72 3117.17 1258.62 3117.58 1259.31 3118.19 1259.78 3118.79 1260.26 3119.79 1260.67 3121.17 1261.02L3121.17 1263.01 3105.08 1263.01 3105.08 1261.02C3106.43 1260.67 3107.37 1260.3 3107.89 1259.93 3108.42 1259.55 3108.8 1259.09 3109.03 1258.57 3109.26 1258.04 3109.42 1257.33 3109.51 1256.42 3109.61 1255.52 3109.66 1254.33 3109.66 1252.87L3109.66 1218.95C3109.66 1216.36 3109.64 1214.55 3109.6 1213.52 3109.55 1212.5 3109.45 1211.62 3109.27 1210.91 3109.1 1210.19 3108.85 1209.63 3108.54 1209.23 3108.23 1208.82 3107.81 1208.5 3107.29 1208.25 3106.76 1208.01 3105.81 1207.77 3104.43 1207.52L3104.43 1205.42ZM3092.2 1205.01 3094.63 1205.01 3094.63 1252.87C3094.63 1255.2 3094.73 1256.81 3094.95 1257.72 3095.17 1258.62 3095.58 1259.31 3096.19 1259.78 3096.79 1260.26 3097.79 1260.67 3099.17 1261.02L3099.17 1263.01 3083.08 1263.01 3083.08 1261.02C3084.43 1260.67 3085.37 1260.3 3085.89 1259.93 3086.42 1259.55 3086.8 1259.09 3087.03 1258.57 3087.26 1258.04 3087.42 1257.33 3087.51 1256.42 3087.61 1255.52 3087.66 1254.33 3087.66 1252.87L3087.66 1218.95C3087.66 1216.36 3087.64 1214.55 3087.6 1213.52 3087.55 1212.5 3087.45 1211.62 3087.27 1210.91 3087.1 1210.19 3086.85 1209.63 3086.54 1209.23 3086.23 1208.82 3085.81 1208.5 3085.29 1208.25 3084.76 1208.01 3083.81 1207.77 3082.43 1207.52L3082.43 1205.42Z" fill="#FFFFFF" fill-rule="evenodd"/><text fill="#000000" fill-opacity="0" font-family="Arial,Arial_MSFontService,sans-serif" font-size="58.6431" x="2991.24" y="1256.32">null</text><text fill="#FFFFFF" font-family="David,David_MSFontService,sans-serif" font-weight="400" font-size="83" transform="matrix(1 0 0 1 3124.23 1263)"> </text><path d="M2384 881.125 2502.79 881.125 2502.79 894.875 2384 894.875ZM2495.92 867.375 2537.17 888 2495.92 908.625Z" fill="#FFFFFF"/><rect x="2537.5" y="778.5" width="290" height="221" stroke="#FFFFFF" stroke-width="3.4375" stroke-miterlimit="8" fill="#236B8E"/><path d="M2662.83 875.095 2674.38 875.095 2674.38 895.724C2674.38 898.885 2674.51 901.29 2674.75 902.938 2674.99 904.586 2675.36 905.829 2675.84 906.666 2676.33 907.504 2677.02 908.206 2677.91 908.774 2678.8 909.341 2680.03 909.625 2681.6 909.625 2682.62 909.625 2683.61 909.422 2684.56 909.017 2685.5 908.612 2686.56 907.902 2687.72 906.889 2688.88 905.876 2689.71 904.87 2690.21 903.87 2690.71 902.87 2690.96 901.708 2690.96 900.384L2690.96 885.187C2690.96 883.647 2690.92 882.485 2690.84 881.701 2690.76 880.918 2690.62 880.29 2690.43 879.817 2690.24 879.344 2690.02 878.959 2689.76 878.662 2689.51 878.365 2689.14 878.094 2688.67 877.851 2688.2 877.608 2687.43 877.351 2686.38 877.081L2686.38 875.095 2697.93 875.095 2697.93 902.776C2697.93 904.856 2697.97 906.355 2698.05 907.274 2698.13 908.193 2698.31 908.922 2698.58 909.463 2698.85 910.003 2699.27 910.442 2699.83 910.78 2700.4 911.117 2701.42 911.435 2702.87 911.732L2702.87 913.84 2693.59 914.245 2691.12 914.245 2691.36 907.598 2690.76 907.436C2688.51 909.868 2686.37 911.651 2684.33 912.786 2682.29 913.921 2680.25 914.488 2678.19 914.488 2675.73 914.488 2673.71 914.002 2672.11 913.029 2670.52 912.056 2669.33 910.604 2668.55 908.672 2667.76 906.74 2667.37 904.018 2667.37 900.506L2667.37 885.187C2667.37 882.917 2667.28 881.357 2667.11 880.506 2666.93 879.655 2666.6 878.979 2666.1 878.479 2665.6 877.98 2664.51 877.514 2662.83 877.081ZM2641.88 874.447C2643.34 874.447 2644.64 874.616 2645.79 874.954 2646.94 875.291 2647.95 875.811 2648.83 876.514 2649.71 877.216 2650.43 878.088 2651 879.128 2651.57 880.168 2651.99 881.418 2652.27 882.877 2652.56 884.336 2652.7 886.186 2652.7 888.429L2652.7 903.708C2652.7 905.572 2652.75 906.923 2652.86 907.76 2652.97 908.598 2653.16 909.246 2653.43 909.706 2653.7 910.165 2654.09 910.55 2654.6 910.861 2655.12 911.172 2656.01 911.502 2657.28 911.854L2657.28 913.84 2641.31 913.84 2641.31 911.854C2642.37 911.529 2643.12 911.246 2643.58 911.003 2644.04 910.759 2644.43 910.422 2644.74 909.989 2645.05 909.557 2645.29 908.888 2645.47 907.983 2645.64 907.078 2645.73 905.707 2645.73 903.87L2645.73 893.252C2645.73 891.36 2645.68 889.645 2645.57 888.105 2645.46 886.565 2645.28 885.302 2645.02 884.315 2644.76 883.329 2644.45 882.559 2644.09 882.005 2643.72 881.451 2643.29 880.979 2642.79 880.587 2642.29 880.195 2641.72 879.884 2641.07 879.655 2640.42 879.425 2639.57 879.31 2638.52 879.31 2637.46 879.31 2636.46 879.52 2635.52 879.938 2634.57 880.357 2633.53 881.08 2632.4 882.107 2631.26 883.133 2630.44 884.146 2629.92 885.146 2629.41 886.146 2629.15 887.294 2629.15 888.591L2629.15 903.708C2629.15 906.031 2629.26 907.646 2629.48 908.551 2629.69 909.456 2630.11 910.145 2630.71 910.618 2631.32 911.09 2632.31 911.502 2633.69 911.854L2633.69 913.84 2617.81 913.84 2617.81 911.854C2618.86 911.529 2619.61 911.246 2620.06 911.003 2620.5 910.759 2620.88 910.422 2621.19 909.989 2621.5 909.557 2621.74 908.895 2621.92 908.004 2622.09 907.112 2622.18 905.721 2622.18 903.829L2622.18 886.159C2622.18 884.43 2622.16 883.039 2622.1 881.985 2622.05 880.931 2621.86 880.087 2621.53 879.452 2621.21 878.817 2620.72 878.344 2620.06 878.034 2619.39 877.723 2618.45 877.459 2617.24 877.243L2617.24 875.095 2626.72 874.731 2629.19 874.731 2628.75 881.337 2629.32 881.499C2631.31 879.472 2632.93 878.027 2634.16 877.162 2635.39 876.298 2636.63 875.629 2637.89 875.156 2639.14 874.683 2640.47 874.447 2641.88 874.447ZM2740.2 855.845 2742.63 855.845 2742.63 903.708C2742.63 906.031 2742.73 907.646 2742.95 908.551 2743.17 909.456 2743.58 910.145 2744.19 910.618 2744.79 911.09 2745.79 911.502 2747.17 911.854L2747.17 913.84 2731.08 913.84 2731.08 911.854C2732.43 911.502 2733.37 911.138 2733.89 910.759 2734.42 910.381 2734.8 909.929 2735.03 909.402 2735.26 908.875 2735.42 908.159 2735.51 907.254 2735.61 906.349 2735.66 905.167 2735.66 903.708L2735.66 869.786C2735.66 867.193 2735.64 865.382 2735.6 864.356 2735.55 863.329 2735.45 862.458 2735.27 861.742 2735.1 861.026 2734.85 860.465 2734.54 860.06 2734.23 859.654 2733.81 859.33 2733.29 859.087 2732.76 858.844 2731.81 858.601 2730.43 858.358L2730.43 856.25ZM2718.2 855.845 2720.63 855.845 2720.63 903.708C2720.63 906.031 2720.73 907.646 2720.95 908.551 2721.17 909.456 2721.58 910.145 2722.19 910.618 2722.79 911.09 2723.79 911.502 2725.17 911.854L2725.17 913.84 2709.08 913.84 2709.08 911.854C2710.43 911.502 2711.37 911.138 2711.89 910.759 2712.42 910.381 2712.8 909.929 2713.03 909.402 2713.26 908.875 2713.42 908.159 2713.51 907.254 2713.61 906.349 2713.66 905.167 2713.66 903.708L2713.66 869.786C2713.66 867.193 2713.64 865.382 2713.6 864.356 2713.55 863.329 2713.45 862.458 2713.27 861.742 2713.1 861.026 2712.85 860.465 2712.54 860.06 2712.23 859.654 2711.81 859.33 2711.29 859.087 2710.76 858.844 2709.81 858.601 2708.43 858.358L2708.43 856.25Z" fill="#FFFFFF" fill-rule="evenodd"/><text fill="#000000" fill-opacity="0" font-family="Arial,Arial_MSFontService,sans-serif" font-size="58.6431" x="2617.24" y="907.158">null</text><text fill="#FFFFFF" font-family="David,David_MSFontService,sans-serif" font-weight="400" font-size="83" transform="matrix(1 0 0 1 2750.23 914)"> </text></g></svg>