<svg width="1061" height="1397" xmlns="http://www.w3.org/2000/svg" xmlns:xlink="http://www.w3.org/1999/xlink" xml:space="preserve" overflow="hidden"><g transform="translate(-1681 -769)"><path d="M2319.04 944.006C2383.93 904.448 2405.58 846.123 2383.93 769.006L2015.98 769.006C1968.25 844.467 1980.49 905.031 2080.87 944.006L2319.04 944.006Z" fill="#E95454" fill-rule="evenodd"/><path d="M2165.04 1170.44 2016.24 769.017 1734.04 910.998 1868.81 1266.02Z" fill="#ED6362" fill-rule="evenodd"/><path d="M2531.24 1266.02 2666.07 910.998 2383.76 769.017 2235.07 1170.44Z" fill="#ED6362" fill-rule="evenodd"/><path d="M2200.38 2165.07C2486.84 2165.07 2719.07 1932.49 2719.07 1645.58 2719.07 1358.67 2486.84 1126.07 2200.38 1126.07 2029.5 1480.54 2015.89 1827.52 2200.38 2165.07Z" fill="#FFCC5B" fill-rule="evenodd"/><path d="M2200.04 2165.07C1913.4 2165.07 1681.04 1932.49 1681.04 1645.58 1681.04 1358.67 1913.4 1126.07 2200.04 1126.07L2200.04 2164.54" fill="#FDBC4B" fill-rule="evenodd"/><path d="M2074.63 1373.24 2074.63 1409.97 2094.73 1409.97C2097.9 1409.97 2100.66 1409.6 2103.02 1408.85 2105.37 1408.09 2107.45 1406.98 2109.25 1405.5 2111.04 1404.03 2112.45 1402.19 2113.47 1399.98 2114.49 1397.78 2115 1395.23 2115 1392.33 2115 1389.21 2114.5 1386.48 2113.51 1384.11 2112.52 1381.75 2111.07 1379.76 2109.17 1378.15 2107.26 1376.54 2104.88 1375.32 2102.01 1374.48 2099.14 1373.65 2095.54 1373.24 2091.2 1373.24ZM2178.61 1353.66C2175.32 1353.66 2172.43 1354.28 2169.94 1355.51 2167.46 1356.75 2165.37 1358.38 2163.7 1360.43 2162.02 1362.47 2160.73 1364.84 2159.81 1367.56 2158.89 1370.27 2158.38 1373.1 2158.27 1376.06L2197.83 1376.06C2197.99 1369.07 2196.43 1363.59 2193.16 1359.62 2189.9 1355.65 2185.05 1353.66 2178.61 1353.66ZM2253.72 1343.26C2255.66 1343.26 2257.59 1343.43 2259.52 1343.75 2261.46 1344.07 2263.2 1344.47 2264.76 1344.96 2266.32 1345.44 2267.65 1345.96 2268.75 1346.53 2269.85 1347.09 2270.68 1347.59 2271.25 1348.02 2271.81 1348.45 2272.19 1348.82 2272.37 1349.15 2272.56 1349.47 2272.7 1349.83 2272.78 1350.23 2272.86 1350.64 2272.94 1351.13 2273.02 1351.72 2273.1 1352.32 2273.14 1353.04 2273.14 1353.9 2273.14 1354.81 2273.1 1355.6 2273.02 1356.28 2272.94 1356.95 2272.8 1357.5 2272.61 1357.93 2272.43 1358.36 2272.2 1358.67 2271.93 1358.85 2271.66 1359.04 2271.37 1359.14 2271.04 1359.14 2270.56 1359.14 2269.86 1358.84 2268.95 1358.25 2268.04 1357.66 2266.85 1357.03 2265.4 1356.36 2263.95 1355.69 2262.25 1355.05 2260.29 1354.46 2258.33 1353.87 2256.09 1353.58 2253.56 1353.58 2251.31 1353.58 2249.32 1353.83 2247.6 1354.34 2245.88 1354.85 2244.47 1355.58 2243.37 1356.52 2242.27 1357.46 2241.44 1358.57 2240.87 1359.86 2240.31 1361.15 2240.03 1362.55 2240.03 1364.05 2240.03 1366.15 2240.56 1367.9 2241.64 1369.33 2242.71 1370.75 2244.11 1372 2245.83 1373.07 2247.55 1374.15 2249.51 1375.12 2251.71 1375.97 2253.91 1376.83 2256.15 1377.72 2258.44 1378.63 2260.72 1379.55 2262.97 1380.57 2265.2 1381.7 2267.43 1382.82 2269.41 1384.19 2271.12 1385.8 2272.84 1387.42 2274.23 1389.35 2275.27 1391.6 2276.32 1393.86 2276.84 1396.55 2276.84 1399.66 2276.84 1403.37 2276.16 1406.67 2274.79 1409.57 2273.42 1412.47 2271.47 1414.92 2268.95 1416.9 2266.42 1418.89 2263.42 1420.39 2259.93 1421.41 2256.43 1422.43 2252.59 1422.95 2248.4 1422.95 2245.83 1422.95 2243.37 1422.74 2241.03 1422.34 2238.7 1421.94 2236.6 1421.43 2234.75 1420.81 2232.9 1420.19 2231.32 1419.55 2230.04 1418.88 2228.75 1418.21 2227.81 1417.6 2227.22 1417.06 2226.62 1416.53 2226.2 1415.77 2225.93 1414.81 2225.66 1413.84 2225.52 1412.53 2225.52 1410.86 2225.52 1409.84 2225.58 1408.98 2225.69 1408.28 2225.79 1407.58 2225.93 1407.02 2226.09 1406.59 2226.25 1406.16 2226.48 1405.85 2226.77 1405.66 2227.07 1405.48 2227.4 1405.38 2227.78 1405.38 2228.37 1405.38 2229.24 1405.74 2230.4 1406.47 2231.55 1407.19 2232.98 1407.99 2234.67 1408.85 2236.36 1409.71 2238.36 1410.5 2240.67 1411.22 2242.98 1411.95 2245.64 1412.31 2248.65 1412.31 2250.9 1412.31 2252.94 1412.07 2254.77 1411.59 2256.6 1411.1 2258.18 1410.39 2259.52 1409.45 2260.87 1408.51 2261.9 1407.32 2262.62 1405.86 2263.35 1404.41 2263.71 1402.7 2263.71 1400.71 2263.71 1398.67 2263.19 1396.95 2262.14 1395.55 2261.09 1394.16 2259.71 1392.92 2257.99 1391.85 2256.27 1390.77 2254.34 1389.82 2252.19 1388.99 2250.04 1388.15 2247.83 1387.28 2245.54 1386.37 2243.26 1385.45 2241.03 1384.42 2238.86 1383.27 2236.68 1382.11 2234.74 1380.7 2233.02 1379.04 2231.3 1377.37 2229.91 1375.38 2228.87 1373.07 2227.82 1370.76 2227.3 1368 2227.3 1364.78 2227.3 1361.93 2227.85 1359.2 2228.95 1356.6 2230.05 1353.99 2231.7 1351.71 2233.9 1349.75 2236.1 1347.79 2238.86 1346.22 2242.16 1345.04 2245.46 1343.86 2249.32 1343.26 2253.72 1343.26ZM2179.3 1343.26C2184.99 1343.26 2189.84 1344.18 2193.84 1346 2197.84 1347.83 2201.13 1350.29 2203.71 1353.38 2206.29 1356.46 2208.18 1360.09 2209.39 1364.25 2210.6 1368.42 2211.2 1372.86 2211.2 1377.59L2211.2 1380C2211.2 1382.1 2210.67 1383.59 2209.62 1384.47 2208.57 1385.36 2207.37 1385.8 2206.02 1385.8L2158.27 1385.8C2158.27 1389.83 2158.67 1393.46 2159.48 1396.68 2160.29 1399.9 2161.64 1402.67 2163.53 1404.98 2165.42 1407.29 2167.87 1409.06 2170.9 1410.3 2173.92 1411.53 2177.62 1412.15 2181.99 1412.15 2185.44 1412.15 2188.52 1411.87 2191.22 1411.3 2193.92 1410.74 2196.25 1410.11 2198.22 1409.41 2200.19 1408.71 2201.81 1408.08 2203.08 1407.52 2204.35 1406.95 2205.3 1406.67 2205.95 1406.67 2206.33 1406.67 2206.67 1406.76 2206.96 1406.95 2207.26 1407.14 2207.49 1407.42 2207.65 1407.8 2207.81 1408.17 2207.94 1408.7 2208.02 1409.37 2208.1 1410.04 2208.14 1410.86 2208.14 1411.83 2208.14 1412.53 2208.11 1413.13 2208.06 1413.64 2208 1414.15 2207.94 1414.61 2207.86 1415.01 2207.78 1415.41 2207.64 1415.77 2207.45 1416.1 2207.27 1416.42 2207.02 1416.73 2206.73 1417.02 2206.43 1417.32 2205.56 1417.8 2204.11 1418.47 2202.66 1419.15 2200.78 1419.8 2198.47 1420.45 2196.16 1421.09 2193.49 1421.67 2190.45 1422.18 2187.42 1422.69 2184.18 1422.95 2180.75 1422.95 2174.78 1422.95 2169.56 1422.11 2165.08 1420.45 2160.59 1418.78 2156.82 1416.31 2153.76 1413.04 2150.69 1409.76 2148.38 1405.65 2146.83 1400.71 2145.27 1395.77 2144.49 1390.02 2144.49 1383.47 2144.49 1377.24 2145.3 1371.64 2146.91 1366.67 2148.52 1361.7 2150.84 1357.48 2153.88 1354.02 2156.91 1350.56 2160.58 1347.9 2164.87 1346.04 2169.17 1344.19 2173.98 1343.26 2179.3 1343.26ZM2074.63 1328.44 2074.63 1362.2 2090.39 1362.2C2093.98 1362.2 2096.87 1361.73 2099.07 1360.79 2101.26 1359.85 2103.09 1358.59 2104.53 1357 2105.98 1355.42 2107.04 1353.56 2107.71 1351.44 2108.38 1349.32 2108.71 1347.13 2108.71 1344.88 2108.71 1342.35 2108.36 1340.07 2107.67 1338.03 2106.97 1335.99 2105.87 1334.25 2104.37 1332.83 2102.87 1331.41 2100.92 1330.32 2098.5 1329.57 2096.09 1328.82 2092.9 1328.44 2088.94 1328.44ZM2306.07 1324.98C2307.42 1324.98 2308.52 1325.03 2309.38 1325.14 2310.24 1325.24 2310.91 1325.42 2311.39 1325.66 2311.87 1325.9 2312.22 1326.18 2312.44 1326.51 2312.65 1326.83 2312.76 1327.18 2312.76 1327.55L2312.76 1344.8 2331.37 1344.8C2331.8 1344.8 2332.18 1344.89 2332.5 1345.08 2332.82 1345.27 2333.1 1345.59 2333.34 1346.04 2333.59 1346.5 2333.76 1347.08 2333.87 1347.78 2333.98 1348.47 2334.03 1349.33 2334.03 1350.35 2334.03 1352.29 2333.79 1353.68 2333.3 1354.54 2332.82 1355.4 2332.18 1355.83 2331.37 1355.83L2312.76 1355.83 2312.76 1396.28C2312.76 1401.27 2313.5 1405.05 2314.98 1407.6 2316.45 1410.15 2319.1 1411.42 2322.91 1411.42 2324.15 1411.42 2325.25 1411.3 2326.21 1411.06 2327.18 1410.82 2328.04 1410.56 2328.79 1410.3 2329.54 1410.03 2330.19 1409.77 2330.73 1409.53 2331.26 1409.29 2331.75 1409.17 2332.18 1409.17 2332.45 1409.17 2332.7 1409.24 2332.94 1409.37 2333.18 1409.5 2333.37 1409.76 2333.51 1410.14 2333.64 1410.51 2333.76 1411.02 2333.87 1411.67 2333.98 1412.31 2334.03 1413.12 2334.03 1414.08 2334.03 1415.64 2333.92 1416.88 2333.71 1417.79 2333.49 1418.7 2333.17 1419.37 2332.74 1419.8 2332.31 1420.23 2331.67 1420.64 2330.81 1421.01 2329.95 1421.39 2328.97 1421.7 2327.87 1421.94 2326.77 1422.18 2325.6 1422.38 2324.36 1422.54 2323.13 1422.7 2321.89 1422.78 2320.66 1422.78 2316.9 1422.78 2313.67 1422.29 2310.99 1421.29 2308.3 1420.3 2306.1 1418.8 2304.38 1416.78 2302.66 1414.77 2301.41 1412.22 2300.64 1409.13 2299.86 1406.04 2299.47 1402.4 2299.47 1398.21L2299.47 1355.83 2289.32 1355.83C2288.51 1355.83 2287.87 1355.4 2287.38 1354.54 2286.9 1353.68 2286.66 1352.29 2286.66 1350.35 2286.66 1349.33 2286.72 1348.47 2286.86 1347.78 2286.99 1347.08 2287.17 1346.5 2287.38 1346.04 2287.6 1345.59 2287.88 1345.27 2288.23 1345.08 2288.58 1344.89 2288.97 1344.8 2289.4 1344.8L2299.47 1344.8 2299.47 1327.55C2299.47 1327.18 2299.56 1326.83 2299.75 1326.51 2299.94 1326.18 2300.29 1325.9 2300.8 1325.66 2301.31 1325.42 2301.99 1325.24 2302.85 1325.14 2303.71 1325.03 2304.78 1324.98 2306.07 1324.98ZM2066.01 1317.16 2089.7 1317.16C2095.93 1317.16 2101.03 1317.75 2105.01 1318.93 2108.98 1320.12 2112.3 1321.83 2114.96 1324.09 2117.61 1326.35 2119.62 1329.11 2120.96 1332.39 2122.3 1335.66 2122.97 1339.37 2122.97 1343.51 2122.97 1345.98 2122.68 1348.34 2122.09 1350.6 2121.5 1352.85 2120.62 1354.93 2119.47 1356.84 2118.31 1358.75 2116.86 1360.45 2115.12 1361.96 2113.37 1363.46 2111.37 1364.7 2109.11 1365.66 2111.96 1366.2 2114.62 1367.18 2117.09 1368.6 2119.56 1370.03 2121.72 1371.84 2123.58 1374.04 2125.43 1376.24 2126.89 1378.82 2127.97 1381.78 2129.04 1384.73 2129.58 1387.98 2129.58 1391.52 2129.58 1394.8 2129.16 1397.82 2128.33 1400.59 2127.5 1403.35 2126.33 1405.84 2124.83 1408.04 2123.32 1410.24 2121.51 1412.18 2119.39 1413.84 2117.27 1415.51 2114.88 1416.9 2112.22 1418.03 2109.56 1419.16 2106.71 1420 2103.68 1420.57 2100.64 1421.13 2097.16 1421.41 2093.24 1421.41L2066.01 1421.41C2064.78 1421.41 2063.61 1421 2062.51 1420.17 2061.41 1419.33 2060.86 1417.87 2060.86 1415.77L2060.86 1322.8C2060.86 1320.71 2061.41 1319.24 2062.51 1318.41 2063.61 1317.58 2064.78 1317.16 2066.01 1317.16Z" fill="#FFFFFF" fill-rule="evenodd"/><text fill="#000000" fill-opacity="0" font-family="Arial,Arial_MSFontService,sans-serif" font-size="105.784" x="2060.86" y="1409.72">Best</text><path d="M1981.77 1584.37C1978.12 1584.37 1974.95 1584.68 1972.27 1585.29 1969.58 1585.91 1967.35 1586.83 1965.58 1588.03 1963.81 1589.24 1962.5 1590.69 1961.67 1592.38 1960.84 1594.08 1960.42 1596.02 1960.42 1598.23 1960.42 1601.99 1961.62 1604.98 1964.01 1607.21 1966.4 1609.44 1969.74 1610.55 1974.04 1610.55 1977.53 1610.55 1980.76 1609.67 1983.75 1607.89 1986.73 1606.12 1989.86 1603.41 1993.13 1599.76L1993.13 1584.37ZM1847.77 1584.37C1844.12 1584.37 1840.95 1584.68 1838.27 1585.29 1835.58 1585.91 1833.35 1586.83 1831.58 1588.03 1829.81 1589.24 1828.5 1590.69 1827.67 1592.38 1826.84 1594.08 1826.42 1596.02 1826.42 1598.23 1826.42 1601.99 1827.62 1604.98 1830.01 1607.21 1832.4 1609.44 1835.74 1610.55 1840.04 1610.55 1843.53 1610.55 1846.76 1609.67 1849.75 1607.89 1852.73 1606.12 1855.86 1603.41 1859.13 1599.76L1859.13 1584.37ZM1977.74 1541.26C1982.95 1541.26 1987.38 1541.86 1991.04 1543.04 1994.69 1544.22 1997.64 1545.95 1999.9 1548.23 2002.16 1550.52 2003.79 1553.35 2004.81 1556.73 2005.83 1560.12 2006.34 1564.07 2006.34 1568.58L2006.34 1617.48C2006.34 1618.13 2006.13 1618.61 2005.7 1618.93 2005.27 1619.25 2004.68 1619.49 2003.93 1619.66 2003.18 1619.82 2002.07 1619.9 2000.62 1619.9 1999.23 1619.9 1998.11 1619.82 1997.28 1619.66 1996.45 1619.49 1995.84 1619.25 1995.47 1618.93 1995.09 1618.61 1994.9 1618.13 1994.9 1617.48L1994.9 1610.23C1991.74 1613.61 1988.2 1616.25 1984.31 1618.13 1980.42 1620.01 1976.29 1620.95 1971.94 1620.95 1968.13 1620.95 1964.68 1620.45 1961.59 1619.45 1958.5 1618.46 1955.87 1617.02 1953.69 1615.14 1951.52 1613.26 1949.83 1610.95 1948.62 1608.22 1947.41 1605.48 1946.81 1602.36 1946.81 1598.87 1946.81 1594.79 1947.64 1591.24 1949.3 1588.24 1950.97 1585.23 1953.36 1582.73 1956.47 1580.74 1959.59 1578.76 1963.4 1577.26 1967.91 1576.27 1972.43 1575.28 1977.5 1574.78 1983.14 1574.78L1993.13 1574.78 1993.13 1569.14C1993.13 1566.35 1992.84 1563.88 1992.25 1561.73 1991.65 1559.58 1990.7 1557.79 1989.39 1556.37 1988.07 1554.95 1986.36 1553.87 1984.27 1553.15 1982.17 1552.42 1979.6 1552.06 1976.54 1552.06 1973.26 1552.06 1970.32 1552.45 1967.71 1553.23 1965.11 1554.01 1962.83 1554.87 1960.86 1555.81 1958.9 1556.75 1957.27 1557.61 1955.95 1558.39 1954.63 1559.16 1953.65 1559.55 1953.01 1559.55 1952.58 1559.55 1952.2 1559.45 1951.88 1559.23 1951.56 1559.02 1951.28 1558.69 1951.04 1558.26 1950.79 1557.83 1950.62 1557.28 1950.51 1556.61 1950.4 1555.94 1950.35 1555.2 1950.35 1554.4 1950.35 1553.05 1950.44 1551.99 1950.63 1551.21 1950.82 1550.44 1951.28 1549.7 1952 1549 1952.73 1548.3 1953.98 1547.48 1955.75 1546.54 1957.52 1545.6 1959.56 1544.74 1961.87 1543.96 1964.18 1543.19 1966.71 1542.54 1969.45 1542.03 1972.18 1541.52 1974.95 1541.26 1977.74 1541.26ZM1843.74 1541.26C1848.95 1541.26 1853.38 1541.86 1857.04 1543.04 1860.69 1544.22 1863.64 1545.95 1865.9 1548.23 1868.16 1550.52 1869.79 1553.35 1870.81 1556.73 1871.83 1560.12 1872.34 1564.07 1872.34 1568.58L1872.34 1617.48C1872.34 1618.13 1872.13 1618.61 1871.7 1618.93 1871.27 1619.25 1870.68 1619.49 1869.93 1619.66 1869.18 1619.82 1868.07 1619.9 1866.62 1619.9 1865.23 1619.9 1864.11 1619.82 1863.28 1619.66 1862.45 1619.49 1861.84 1619.25 1861.47 1618.93 1861.09 1618.61 1860.9 1618.13 1860.9 1617.48L1860.9 1610.23C1857.74 1613.61 1854.2 1616.25 1850.31 1618.13 1846.42 1620.01 1842.29 1620.95 1837.94 1620.95 1834.13 1620.95 1830.68 1620.45 1827.59 1619.45 1824.5 1618.46 1821.87 1617.02 1819.69 1615.14 1817.52 1613.26 1815.83 1610.95 1814.62 1608.22 1813.41 1605.48 1812.81 1602.36 1812.81 1598.87 1812.81 1594.79 1813.64 1591.24 1815.3 1588.24 1816.97 1585.23 1819.36 1582.73 1822.47 1580.74 1825.59 1578.76 1829.4 1577.26 1833.91 1576.27 1838.43 1575.28 1843.5 1574.78 1849.14 1574.78L1859.13 1574.78 1859.13 1569.14C1859.13 1566.35 1858.84 1563.88 1858.25 1561.73 1857.65 1559.58 1856.7 1557.79 1855.39 1556.37 1854.07 1554.95 1852.36 1553.87 1850.27 1553.15 1848.17 1552.42 1845.6 1552.06 1842.54 1552.06 1839.26 1552.06 1836.32 1552.45 1833.71 1553.23 1831.11 1554.01 1828.83 1554.87 1826.86 1555.81 1824.9 1556.75 1823.27 1557.61 1821.95 1558.39 1820.63 1559.16 1819.65 1559.55 1819.01 1559.55 1818.58 1559.55 1818.2 1559.45 1817.88 1559.23 1817.56 1559.02 1817.28 1558.69 1817.04 1558.26 1816.79 1557.83 1816.62 1557.28 1816.51 1556.61 1816.4 1555.94 1816.35 1555.2 1816.35 1554.4 1816.35 1553.05 1816.44 1551.99 1816.63 1551.21 1816.82 1550.44 1817.28 1549.7 1818 1549 1818.73 1548.3 1819.98 1547.48 1821.75 1546.54 1823.52 1545.6 1825.56 1544.74 1827.87 1543.96 1830.18 1543.19 1832.71 1542.54 1835.45 1542.03 1838.18 1541.52 1840.95 1541.26 1843.74 1541.26ZM1732.11 1526.68 1732.11 1607.81 1746.37 1607.81C1753.03 1607.81 1758.64 1606.98 1763.21 1605.32 1767.77 1603.65 1771.59 1601.1 1774.65 1597.66 1777.71 1594.22 1780.01 1589.91 1781.54 1584.73 1783.07 1579.55 1783.83 1573.41 1783.83 1566.32 1783.83 1560.68 1783.13 1555.43 1781.74 1550.57 1780.34 1545.71 1778.15 1541.51 1775.17 1537.96 1772.19 1534.42 1768.42 1531.65 1763.85 1529.66 1759.29 1527.68 1753.41 1526.68 1746.21 1526.68ZM1906.47 1522.98C1907.81 1522.98 1908.91 1523.03 1909.77 1523.14 1910.63 1523.24 1911.3 1523.42 1911.79 1523.66 1912.27 1523.9 1912.62 1524.18 1912.83 1524.51 1913.05 1524.83 1913.16 1525.18 1913.16 1525.55L1913.16 1542.8 1931.77 1542.8C1932.2 1542.8 1932.57 1542.89 1932.89 1543.08 1933.22 1543.27 1933.5 1543.59 1933.74 1544.04 1933.98 1544.5 1934.16 1545.08 1934.26 1545.78 1934.37 1546.47 1934.43 1547.33 1934.43 1548.35 1934.43 1550.29 1934.18 1551.68 1933.7 1552.54 1933.22 1553.4 1932.57 1553.83 1931.77 1553.83L1913.16 1553.83 1913.16 1594.28C1913.16 1599.27 1913.89 1603.05 1915.37 1605.6 1916.85 1608.15 1919.49 1609.42 1923.31 1609.42 1924.54 1609.42 1925.64 1609.3 1926.61 1609.06 1927.58 1608.82 1928.44 1608.56 1929.19 1608.3 1929.94 1608.03 1930.59 1607.77 1931.12 1607.53 1931.66 1607.29 1932.14 1607.17 1932.57 1607.17 1932.84 1607.17 1933.1 1607.24 1933.34 1607.37 1933.58 1607.5 1933.77 1607.76 1933.9 1608.14 1934.04 1608.51 1934.16 1609.02 1934.26 1609.67 1934.37 1610.31 1934.43 1611.12 1934.43 1612.08 1934.43 1613.64 1934.32 1614.88 1934.1 1615.79 1933.89 1616.7 1933.57 1617.37 1933.14 1617.8 1932.71 1618.23 1932.06 1618.64 1931.2 1619.01 1930.34 1619.39 1929.36 1619.7 1928.26 1619.94 1927.16 1620.18 1925.99 1620.38 1924.76 1620.54 1923.52 1620.7 1922.29 1620.78 1921.05 1620.78 1917.29 1620.78 1914.07 1620.29 1911.38 1619.29 1908.7 1618.3 1906.5 1616.8 1904.78 1614.78 1903.06 1612.77 1901.81 1610.22 1901.03 1607.13 1900.25 1604.04 1899.86 1600.4 1899.86 1596.21L1899.86 1553.83 1889.71 1553.83C1888.91 1553.83 1888.26 1553.4 1887.78 1552.54 1887.29 1551.68 1887.05 1550.29 1887.05 1548.35 1887.05 1547.33 1887.12 1546.47 1887.25 1545.78 1887.39 1545.08 1887.56 1544.5 1887.78 1544.04 1887.99 1543.59 1888.27 1543.27 1888.62 1543.08 1888.97 1542.89 1889.36 1542.8 1889.79 1542.8L1899.86 1542.8 1899.86 1525.55C1899.86 1525.18 1899.96 1524.83 1900.14 1524.51 1900.33 1524.18 1900.68 1523.9 1901.19 1523.66 1901.7 1523.42 1902.39 1523.24 1903.25 1523.14 1904.11 1523.03 1905.18 1522.98 1906.47 1522.98ZM1723.41 1515.16 1747.01 1515.16C1756.04 1515.16 1763.66 1516.33 1769.89 1518.67 1776.12 1521 1781.35 1524.36 1785.56 1528.74 1789.78 1533.11 1792.98 1538.42 1795.15 1544.65 1797.33 1550.88 1798.41 1557.92 1798.41 1565.76 1798.41 1574.78 1797.26 1582.66 1794.95 1589.4 1792.64 1596.14 1789.27 1601.73 1784.84 1606.16 1780.41 1610.59 1774.97 1613.91 1768.52 1616.11 1762.08 1618.31 1754.4 1619.41 1745.48 1619.41L1723.41 1619.41C1722.17 1619.41 1721 1619 1719.9 1618.17 1718.8 1617.33 1718.25 1615.87 1718.25 1613.77L1718.25 1520.8C1718.25 1518.71 1718.8 1517.24 1719.9 1516.41 1721 1515.58 1722.17 1515.16 1723.41 1515.16Z" fill="#FFFFFF" fill-rule="evenodd"/><text fill="#000000" fill-opacity="0" font-family="Arial,Arial_MSFontService,sans-serif" font-size="105.784" x="1718.25" y="1607.72">Data</text><path d="M2640.78 1551.66C2637.48 1551.66 2634.59 1552.28 2632.11 1553.51 2629.62 1554.75 2627.54 1556.38 2625.87 1558.43 2624.19 1560.47 2622.89 1562.84 2621.97 1565.56 2621.06 1568.27 2620.54 1571.1 2620.43 1574.06L2659.99 1574.06C2660.15 1567.07 2658.6 1561.59 2655.33 1557.62 2652.06 1553.65 2647.21 1551.66 2640.78 1551.66ZM2473.78 1542.39C2475.06 1542.39 2476.14 1542.43 2477 1542.51 2477.86 1542.59 2478.54 1542.76 2479.05 1543 2479.56 1543.24 2479.93 1543.51 2480.14 1543.8 2480.36 1544.1 2480.46 1544.46 2480.46 1544.89L2480.46 1587.11C2480.46 1591.35 2480.77 1594.75 2481.39 1597.3 2482.01 1599.85 2482.95 1602.03 2484.21 1603.82 2485.47 1605.62 2487.07 1607.02 2489 1608.01 2490.94 1609.01 2493.19 1609.5 2495.77 1609.5 2499.1 1609.5 2502.42 1608.32 2505.72 1605.96 2509.02 1603.6 2512.53 1600.13 2516.23 1595.57L2516.23 1544.89C2516.23 1544.46 2516.33 1544.1 2516.52 1543.8 2516.7 1543.51 2517.07 1543.24 2517.6 1543 2518.14 1542.76 2518.83 1542.59 2519.66 1542.51 2520.49 1542.43 2521.58 1542.39 2522.92 1542.39 2524.21 1542.39 2525.28 1542.43 2526.14 1542.51 2527 1542.59 2527.67 1542.76 2528.16 1543 2528.64 1543.24 2529 1543.51 2529.25 1543.8 2529.49 1544.1 2529.61 1544.46 2529.61 1544.89L2529.61 1617.4C2529.61 1617.83 2529.51 1618.19 2529.33 1618.49 2529.14 1618.78 2528.8 1619.04 2528.32 1619.25 2527.84 1619.47 2527.2 1619.63 2526.43 1619.74 2525.65 1619.84 2524.69 1619.9 2523.57 1619.9 2522.33 1619.9 2521.32 1619.84 2520.54 1619.74 2519.77 1619.63 2519.15 1619.47 2518.69 1619.25 2518.23 1619.04 2517.93 1618.78 2517.76 1618.49 2517.6 1618.19 2517.52 1617.83 2517.52 1617.4L2517.52 1607.81C2513.39 1612.38 2509.31 1615.71 2505.28 1617.8 2501.25 1619.9 2497.17 1620.95 2493.03 1620.95 2488.2 1620.95 2484.13 1620.14 2480.83 1618.53 2477.52 1616.92 2474.85 1614.73 2472.81 1611.96 2470.77 1609.2 2469.3 1605.97 2468.42 1602.29 2467.53 1598.61 2467.09 1594.14 2467.09 1588.88L2467.09 1544.89C2467.09 1544.46 2467.18 1544.1 2467.37 1543.8 2467.56 1543.51 2467.92 1543.24 2468.46 1543 2469 1542.76 2469.69 1542.59 2470.55 1542.51 2471.41 1542.43 2472.49 1542.39 2473.78 1542.39ZM2262.78 1542.39C2264.06 1542.39 2265.14 1542.43 2266 1542.51 2266.86 1542.59 2267.54 1542.76 2268.05 1543 2268.56 1543.24 2268.93 1543.51 2269.14 1543.8 2269.36 1544.1 2269.46 1544.46 2269.46 1544.89L2269.46 1587.11C2269.46 1591.35 2269.77 1594.75 2270.39 1597.3 2271.01 1599.85 2271.95 1602.03 2273.21 1603.82 2274.47 1605.62 2276.07 1607.02 2278 1608.01 2279.94 1609.01 2282.19 1609.5 2284.77 1609.5 2288.1 1609.5 2291.42 1608.32 2294.72 1605.96 2298.02 1603.6 2301.53 1600.13 2305.23 1595.57L2305.23 1544.89C2305.23 1544.46 2305.33 1544.1 2305.52 1543.8 2305.7 1543.51 2306.07 1543.24 2306.6 1543 2307.14 1542.76 2307.83 1542.59 2308.66 1542.51 2309.49 1542.43 2310.58 1542.39 2311.92 1542.39 2313.21 1542.39 2314.28 1542.43 2315.14 1542.51 2316 1542.59 2316.67 1542.76 2317.16 1543 2317.64 1543.24 2318 1543.51 2318.25 1543.8 2318.49 1544.1 2318.61 1544.46 2318.61 1544.89L2318.61 1617.4C2318.61 1617.83 2318.51 1618.19 2318.33 1618.49 2318.14 1618.78 2317.8 1619.04 2317.32 1619.25 2316.84 1619.47 2316.2 1619.63 2315.43 1619.74 2314.65 1619.84 2313.69 1619.9 2312.57 1619.9 2311.33 1619.9 2310.32 1619.84 2309.54 1619.74 2308.77 1619.63 2308.15 1619.47 2307.69 1619.25 2307.23 1619.04 2306.93 1618.78 2306.76 1618.49 2306.6 1618.19 2306.52 1617.83 2306.52 1617.4L2306.52 1607.81C2302.39 1612.38 2298.31 1615.71 2294.28 1617.8 2290.25 1619.9 2286.17 1620.95 2282.03 1620.95 2277.2 1620.95 2273.13 1620.14 2269.83 1618.53 2266.52 1616.92 2263.85 1614.73 2261.81 1611.96 2259.77 1609.2 2258.3 1605.97 2257.42 1602.29 2256.53 1598.61 2256.09 1594.14 2256.09 1588.88L2256.09 1544.89C2256.09 1544.46 2256.18 1544.1 2256.37 1543.8 2256.56 1543.51 2256.92 1543.24 2257.46 1543 2258 1542.76 2258.69 1542.59 2259.55 1542.51 2260.41 1542.43 2261.49 1542.39 2262.78 1542.39ZM2371.25 1541.35C2373.56 1541.35 2375.81 1541.56 2377.98 1541.99 2380.16 1542.42 2382.16 1542.98 2383.98 1543.68 2385.81 1544.38 2387.43 1545.19 2388.86 1546.1 2390.28 1547.01 2391.31 1547.79 2391.96 1548.44 2392.6 1549.08 2393.05 1549.59 2393.29 1549.97 2393.53 1550.34 2393.73 1550.79 2393.89 1551.3 2394.05 1551.81 2394.16 1552.38 2394.22 1553.03 2394.27 1553.67 2394.3 1554.48 2394.3 1555.44 2394.3 1557.54 2394.05 1559 2393.57 1559.84 2393.09 1560.67 2392.5 1561.08 2391.8 1561.08 2390.99 1561.08 2390.07 1560.64 2389.02 1559.75 2387.97 1558.87 2386.64 1557.89 2385.03 1556.81 2383.42 1555.74 2381.47 1554.76 2379.19 1553.87 2376.91 1552.99 2374.21 1552.54 2371.09 1552.54 2364.7 1552.54 2359.8 1555 2356.39 1559.92 2352.98 1564.83 2351.27 1571.96 2351.27 1581.31 2351.27 1585.98 2351.72 1590.07 2352.6 1593.59 2353.49 1597.11 2354.79 1600.05 2356.51 1602.41 2358.23 1604.78 2360.34 1606.54 2362.83 1607.69 2365.33 1608.85 2368.19 1609.42 2371.41 1609.42 2374.48 1609.42 2377.16 1608.94 2379.47 1607.97 2381.78 1607.01 2383.78 1605.95 2385.47 1604.79 2387.17 1603.64 2388.59 1602.59 2389.74 1601.65 2390.9 1600.71 2391.8 1600.24 2392.44 1600.24 2392.82 1600.24 2393.14 1600.35 2393.41 1600.56 2393.68 1600.78 2393.91 1601.14 2394.09 1601.65 2394.28 1602.16 2394.42 1602.8 2394.5 1603.58 2394.58 1604.36 2394.62 1605.29 2394.62 1606.36 2394.62 1607.28 2394.59 1608.07 2394.54 1608.74 2394.48 1609.41 2394.39 1609.97 2394.26 1610.43 2394.12 1610.89 2393.96 1611.29 2393.77 1611.64 2393.58 1611.99 2393.15 1612.5 2392.48 1613.17 2391.81 1613.84 2390.67 1614.67 2389.06 1615.67 2387.45 1616.66 2385.63 1617.55 2383.62 1618.33 2381.61 1619.11 2379.42 1619.74 2377.05 1620.22 2374.69 1620.7 2372.25 1620.95 2369.72 1620.95 2364.51 1620.95 2359.89 1620.09 2355.87 1618.37 2351.84 1616.65 2348.47 1614.14 2345.75 1610.83 2343.04 1607.53 2340.97 1603.48 2339.55 1598.67 2338.13 1593.86 2337.42 1588.32 2337.42 1582.03 2337.42 1574.89 2338.29 1568.75 2340.03 1563.62 2341.78 1558.49 2344.17 1554.29 2347.2 1551.01 2350.24 1547.74 2353.81 1545.31 2357.92 1543.72 2362.03 1542.14 2366.47 1541.35 2371.25 1541.35ZM2641.46 1541.26C2647.16 1541.26 2652 1542.18 2656 1544 2660.01 1545.83 2663.3 1548.29 2665.87 1551.38 2668.45 1554.46 2670.35 1558.09 2671.55 1562.25 2672.76 1566.42 2673.37 1570.86 2673.37 1575.59L2673.37 1578C2673.37 1580.1 2672.84 1581.59 2671.79 1582.47 2670.74 1583.36 2669.54 1583.8 2668.19 1583.8L2620.43 1583.8C2620.43 1587.83 2620.84 1591.46 2621.65 1594.68 2622.46 1597.9 2623.81 1600.67 2625.7 1602.98 2627.59 1605.29 2630.04 1607.06 2633.06 1608.3 2636.09 1609.53 2639.78 1610.15 2644.15 1610.15 2647.61 1610.15 2650.69 1609.87 2653.38 1609.3 2656.08 1608.74 2658.42 1608.11 2660.39 1607.41 2662.36 1606.71 2663.98 1606.08 2665.24 1605.52 2666.51 1604.95 2667.47 1604.67 2668.12 1604.67 2668.5 1604.67 2668.83 1604.76 2669.13 1604.95 2669.43 1605.14 2669.66 1605.42 2669.82 1605.8 2669.98 1606.17 2670.1 1606.7 2670.18 1607.37 2670.26 1608.04 2670.3 1608.86 2670.3 1609.83 2670.3 1610.53 2670.28 1611.13 2670.22 1611.64 2670.17 1612.15 2670.1 1612.61 2670.02 1613.01 2669.94 1613.41 2669.81 1613.77 2669.62 1614.1 2669.43 1614.42 2669.19 1614.73 2668.9 1615.02 2668.6 1615.32 2667.73 1615.8 2666.28 1616.47 2664.83 1617.15 2662.95 1617.8 2660.64 1618.45 2658.33 1619.09 2655.66 1619.67 2652.62 1620.18 2649.59 1620.69 2646.35 1620.95 2642.91 1620.95 2636.95 1620.95 2631.73 1620.11 2627.24 1618.45 2622.76 1616.78 2618.98 1614.31 2615.92 1611.04 2612.86 1607.76 2610.55 1603.65 2608.99 1598.71 2607.44 1593.77 2606.66 1588.02 2606.66 1581.47 2606.66 1575.24 2607.46 1569.64 2609.07 1564.67 2610.69 1559.7 2613.01 1555.48 2616.04 1552.02 2619.08 1548.56 2622.74 1545.9 2627.04 1544.04 2631.34 1542.19 2636.14 1541.26 2641.46 1541.26ZM2586.32 1541.26C2587.01 1541.26 2587.81 1541.31 2588.69 1541.39 2589.58 1541.47 2590.5 1541.61 2591.47 1541.83 2592.44 1542.04 2593.31 1542.29 2594.09 1542.55 2594.87 1542.82 2595.42 1543.09 2595.74 1543.36 2596.06 1543.63 2596.28 1543.88 2596.39 1544.12 2596.49 1544.37 2596.59 1544.68 2596.67 1545.05 2596.75 1545.43 2596.8 1545.98 2596.83 1546.7 2596.86 1547.43 2596.87 1548.41 2596.87 1549.64 2596.87 1550.83 2596.84 1551.82 2596.79 1552.62 2596.74 1553.43 2596.63 1554.06 2596.47 1554.52 2596.31 1554.97 2596.1 1555.32 2595.86 1555.57 2595.62 1555.81 2595.28 1555.93 2594.86 1555.93 2594.43 1555.93 2593.9 1555.81 2593.28 1555.57 2592.67 1555.32 2591.97 1555.08 2591.19 1554.84 2590.41 1554.6 2589.54 1554.37 2588.57 1554.16 2587.6 1553.94 2586.56 1553.83 2585.43 1553.83 2584.09 1553.83 2582.77 1554.1 2581.48 1554.64 2580.19 1555.18 2578.84 1556.06 2577.41 1557.3 2575.99 1558.53 2574.5 1560.17 2572.94 1562.21 2571.38 1564.25 2569.66 1566.75 2567.78 1569.7L2567.78 1617.4C2567.78 1617.83 2567.68 1618.19 2567.46 1618.49 2567.25 1618.78 2566.9 1619.04 2566.42 1619.25 2565.93 1619.47 2565.26 1619.63 2564.4 1619.74 2563.54 1619.84 2562.44 1619.9 2561.1 1619.9 2559.81 1619.9 2558.73 1619.84 2557.88 1619.74 2557.02 1619.63 2556.33 1619.47 2555.82 1619.25 2555.31 1619.04 2554.96 1618.78 2554.77 1618.49 2554.59 1618.19 2554.49 1617.83 2554.49 1617.4L2554.49 1544.89C2554.49 1544.46 2554.57 1544.1 2554.73 1543.8 2554.89 1543.51 2555.22 1543.24 2555.7 1543 2556.18 1542.76 2556.8 1542.59 2557.55 1542.51 2558.3 1542.43 2559.3 1542.39 2560.53 1542.39 2561.72 1542.39 2562.7 1542.43 2563.47 1542.51 2564.25 1542.59 2564.86 1542.76 2565.29 1543 2565.72 1543.24 2566.03 1543.51 2566.21 1543.8 2566.4 1544.1 2566.5 1544.46 2566.5 1544.89L2566.5 1555.44C2568.48 1552.54 2570.35 1550.18 2572.1 1548.35 2573.84 1546.53 2575.49 1545.09 2577.05 1544.04 2578.61 1543 2580.15 1542.27 2581.68 1541.87 2583.21 1541.47 2584.76 1541.26 2586.32 1541.26ZM2231.32 1541.26C2232.01 1541.26 2232.81 1541.31 2233.69 1541.39 2234.58 1541.47 2235.5 1541.61 2236.47 1541.83 2237.44 1542.04 2238.31 1542.29 2239.09 1542.55 2239.87 1542.82 2240.42 1543.09 2240.74 1543.36 2241.06 1543.63 2241.28 1543.88 2241.39 1544.12 2241.49 1544.37 2241.59 1544.68 2241.67 1545.05 2241.75 1545.43 2241.8 1545.98 2241.83 1546.7 2241.86 1547.43 2241.87 1548.41 2241.87 1549.64 2241.87 1550.83 2241.84 1551.82 2241.79 1552.62 2241.74 1553.43 2241.63 1554.06 2241.47 1554.52 2241.31 1554.97 2241.1 1555.32 2240.86 1555.57 2240.62 1555.81 2240.28 1555.93 2239.86 1555.93 2239.43 1555.93 2238.9 1555.81 2238.28 1555.57 2237.67 1555.32 2236.97 1555.08 2236.19 1554.84 2235.41 1554.6 2234.54 1554.37 2233.57 1554.16 2232.6 1553.94 2231.56 1553.83 2230.43 1553.83 2229.09 1553.83 2227.77 1554.1 2226.48 1554.64 2225.19 1555.18 2223.84 1556.06 2222.41 1557.3 2220.99 1558.53 2219.5 1560.17 2217.94 1562.21 2216.38 1564.25 2214.66 1566.75 2212.78 1569.7L2212.78 1617.4C2212.78 1617.83 2212.68 1618.19 2212.46 1618.49 2212.25 1618.78 2211.9 1619.04 2211.42 1619.25 2210.93 1619.47 2210.26 1619.63 2209.4 1619.74 2208.54 1619.84 2207.44 1619.9 2206.1 1619.9 2204.81 1619.9 2203.73 1619.84 2202.88 1619.74 2202.02 1619.63 2201.33 1619.47 2200.82 1619.25 2200.31 1619.04 2199.96 1618.78 2199.77 1618.49 2199.59 1618.19 2199.49 1617.83 2199.49 1617.4L2199.49 1544.89C2199.49 1544.46 2199.57 1544.1 2199.73 1543.8 2199.89 1543.51 2200.22 1543.24 2200.7 1543 2201.18 1542.76 2201.8 1542.59 2202.55 1542.51 2203.3 1542.43 2204.3 1542.39 2205.53 1542.39 2206.72 1542.39 2207.7 1542.43 2208.47 1542.51 2209.25 1542.59 2209.86 1542.76 2210.29 1543 2210.72 1543.24 2211.03 1543.51 2211.21 1543.8 2211.4 1544.1 2211.5 1544.46 2211.5 1544.89L2211.5 1555.44C2213.48 1552.54 2215.35 1550.18 2217.1 1548.35 2218.84 1546.53 2220.49 1545.09 2222.05 1544.04 2223.61 1543 2225.15 1542.27 2226.68 1541.87 2228.21 1541.47 2229.76 1541.26 2231.32 1541.26ZM2422.24 1522.98C2423.58 1522.98 2424.68 1523.03 2425.54 1523.14 2426.4 1523.24 2427.07 1523.42 2427.56 1523.66 2428.04 1523.9 2428.39 1524.18 2428.6 1524.51 2428.82 1524.83 2428.93 1525.18 2428.93 1525.55L2428.93 1542.8 2447.54 1542.8C2447.97 1542.8 2448.34 1542.89 2448.67 1543.08 2448.99 1543.27 2449.27 1543.59 2449.51 1544.04 2449.75 1544.5 2449.93 1545.08 2450.04 1545.78 2450.14 1546.47 2450.2 1547.33 2450.2 1548.35 2450.2 1550.29 2449.95 1551.68 2449.47 1552.54 2448.99 1553.4 2448.34 1553.83 2447.54 1553.83L2428.93 1553.83 2428.93 1594.28C2428.93 1599.27 2429.67 1603.05 2431.14 1605.6 2432.62 1608.15 2435.26 1609.42 2439.08 1609.42 2440.31 1609.42 2441.41 1609.3 2442.38 1609.06 2443.35 1608.82 2444.21 1608.56 2444.96 1608.3 2445.71 1608.03 2446.36 1607.77 2446.89 1607.53 2447.43 1607.29 2447.91 1607.17 2448.34 1607.17 2448.61 1607.17 2448.87 1607.24 2449.11 1607.37 2449.35 1607.5 2449.54 1607.76 2449.67 1608.14 2449.81 1608.51 2449.93 1609.02 2450.04 1609.67 2450.14 1610.31 2450.2 1611.12 2450.2 1612.08 2450.2 1613.64 2450.09 1614.88 2449.87 1615.79 2449.66 1616.7 2449.34 1617.37 2448.91 1617.8 2448.48 1618.23 2447.83 1618.64 2446.97 1619.01 2446.11 1619.39 2445.13 1619.7 2444.03 1619.94 2442.93 1620.18 2441.76 1620.38 2440.53 1620.54 2439.29 1620.7 2438.06 1620.78 2436.82 1620.78 2433.06 1620.78 2429.84 1620.29 2427.15 1619.29 2424.47 1618.3 2422.27 1616.8 2420.55 1614.78 2418.83 1612.77 2417.58 1610.22 2416.8 1607.13 2416.02 1604.04 2415.63 1600.4 2415.63 1596.21L2415.63 1553.83 2405.48 1553.83C2404.68 1553.83 2404.03 1553.4 2403.55 1552.54 2403.07 1551.68 2402.82 1550.29 2402.82 1548.35 2402.82 1547.33 2402.89 1546.47 2403.02 1545.78 2403.16 1545.08 2403.33 1544.5 2403.55 1544.04 2403.76 1543.59 2404.05 1543.27 2404.39 1543.08 2404.74 1542.89 2405.13 1542.8 2405.56 1542.8L2415.63 1542.8 2415.63 1525.55C2415.63 1525.18 2415.73 1524.83 2415.92 1524.51 2416.1 1524.18 2416.45 1523.9 2416.96 1523.66 2417.47 1523.42 2418.16 1523.24 2419.02 1523.14 2419.88 1523.03 2420.95 1522.98 2422.24 1522.98ZM2154.24 1522.98C2155.58 1522.98 2156.68 1523.03 2157.54 1523.14 2158.4 1523.24 2159.07 1523.42 2159.56 1523.66 2160.04 1523.9 2160.39 1524.18 2160.6 1524.51 2160.82 1524.83 2160.93 1525.18 2160.93 1525.55L2160.93 1542.8 2179.54 1542.8C2179.97 1542.8 2180.34 1542.89 2180.67 1543.08 2180.99 1543.27 2181.27 1543.59 2181.51 1544.04 2181.75 1544.5 2181.93 1545.08 2182.04 1545.78 2182.14 1546.47 2182.2 1547.33 2182.2 1548.35 2182.2 1550.29 2181.95 1551.68 2181.47 1552.54 2180.99 1553.4 2180.34 1553.83 2179.54 1553.83L2160.93 1553.83 2160.93 1594.28C2160.93 1599.27 2161.67 1603.05 2163.14 1605.6 2164.62 1608.15 2167.26 1609.42 2171.08 1609.42 2172.31 1609.42 2173.41 1609.3 2174.38 1609.06 2175.35 1608.82 2176.21 1608.56 2176.96 1608.3 2177.71 1608.03 2178.36 1607.77 2178.89 1607.53 2179.43 1607.29 2179.91 1607.17 2180.34 1607.17 2180.61 1607.17 2180.87 1607.24 2181.11 1607.37 2181.35 1607.5 2181.54 1607.76 2181.67 1608.14 2181.81 1608.51 2181.93 1609.02 2182.04 1609.67 2182.14 1610.31 2182.2 1611.12 2182.2 1612.08 2182.2 1613.64 2182.09 1614.88 2181.87 1615.79 2181.66 1616.7 2181.34 1617.37 2180.91 1617.8 2180.48 1618.23 2179.83 1618.64 2178.97 1619.01 2178.11 1619.39 2177.13 1619.7 2176.03 1619.94 2174.93 1620.18 2173.76 1620.38 2172.53 1620.54 2171.29 1620.7 2170.06 1620.78 2168.82 1620.78 2165.06 1620.78 2161.84 1620.29 2159.15 1619.29 2156.47 1618.3 2154.27 1616.8 2152.55 1614.78 2150.83 1612.77 2149.58 1610.22 2148.8 1607.13 2148.02 1604.04 2147.63 1600.4 2147.63 1596.21L2147.63 1553.83 2137.48 1553.83C2136.68 1553.83 2136.03 1553.4 2135.55 1552.54 2135.07 1551.68 2134.82 1550.29 2134.82 1548.35 2134.82 1547.33 2134.89 1546.47 2135.02 1545.78 2135.16 1545.08 2135.33 1544.5 2135.55 1544.04 2135.76 1543.59 2136.05 1543.27 2136.39 1543.08 2136.74 1542.89 2137.13 1542.8 2137.56 1542.8L2147.63 1542.8 2147.63 1525.55C2147.63 1525.18 2147.73 1524.83 2147.92 1524.51 2148.1 1524.18 2148.45 1523.9 2148.96 1523.66 2149.47 1523.42 2150.16 1523.24 2151.02 1523.14 2151.88 1523.03 2152.95 1522.98 2154.24 1522.98ZM2096.13 1513.63C2098.44 1513.63 2100.76 1513.83 2103.09 1514.23 2105.43 1514.64 2107.63 1515.17 2109.7 1515.85 2111.77 1516.52 2113.61 1517.27 2115.22 1518.1 2116.83 1518.93 2117.89 1519.61 2118.4 1520.12 2118.91 1520.63 2119.25 1521.03 2119.41 1521.32 2119.57 1521.62 2119.7 1522 2119.81 1522.45 2119.92 1522.91 2120 1523.46 2120.05 1524.1 2120.11 1524.75 2120.13 1525.58 2120.13 1526.6 2120.13 1527.57 2120.09 1528.43 2120.01 1529.18 2119.93 1529.93 2119.81 1530.56 2119.65 1531.07 2119.49 1531.58 2119.26 1531.96 2118.97 1532.2 2118.67 1532.44 2118.34 1532.56 2117.96 1532.56 2117.37 1532.56 2116.44 1532.19 2115.18 1531.44 2113.92 1530.68 2112.37 1529.84 2110.55 1528.9 2108.72 1527.96 2106.56 1527.1 2104.06 1526.32 2101.56 1525.54 2098.76 1525.15 2095.64 1525.15 2092.74 1525.15 2090.22 1525.54 2088.07 1526.32 2085.92 1527.1 2084.15 1528.13 2082.75 1529.42 2081.36 1530.71 2080.31 1532.24 2079.61 1534.01 2078.91 1535.79 2078.56 1537.67 2078.56 1539.65 2078.56 1542.55 2079.23 1545.05 2080.58 1547.15 2081.92 1549.24 2083.71 1551.09 2085.93 1552.71 2088.16 1554.32 2090.7 1555.79 2093.55 1557.14 2096.39 1558.48 2099.29 1559.84 2102.25 1561.21 2105.2 1562.57 2108.1 1564.08 2110.95 1565.72 2113.8 1567.35 2116.33 1569.29 2118.56 1571.52 2120.79 1573.75 2122.59 1576.38 2123.96 1579.41 2125.33 1582.45 2126.02 1586.03 2126.02 1590.17 2126.02 1595.06 2125.12 1599.41 2123.32 1603.22 2121.52 1607.03 2119.02 1610.27 2115.82 1612.93 2112.63 1615.59 2108.87 1617.59 2104.54 1618.93 2100.22 1620.27 2095.56 1620.95 2090.57 1620.95 2087.08 1620.95 2083.84 1620.65 2080.86 1620.06 2077.88 1619.47 2075.22 1618.74 2072.88 1617.88 2070.55 1617.02 2068.59 1616.14 2067 1615.22 2065.42 1614.31 2064.32 1613.53 2063.7 1612.89 2063.08 1612.24 2062.62 1611.42 2062.33 1610.43 2062.03 1609.44 2061.89 1608.11 2061.89 1606.44 2061.89 1605.26 2061.94 1604.28 2062.05 1603.5 2062.15 1602.72 2062.31 1602.09 2062.53 1601.61 2062.74 1601.13 2063.01 1600.79 2063.34 1600.6 2063.66 1600.41 2064.03 1600.32 2064.46 1600.32 2065.22 1600.32 2066.28 1600.78 2067.65 1601.69 2069.02 1602.6 2070.77 1603.6 2072.92 1604.67 2075.07 1605.74 2077.66 1606.75 2080.7 1607.69 2083.73 1608.63 2087.24 1609.1 2091.21 1609.1 2094.22 1609.1 2096.97 1608.7 2099.47 1607.89 2101.97 1607.09 2104.12 1605.95 2105.91 1604.47 2107.71 1602.99 2109.1 1601.18 2110.06 1599.03 2111.03 1596.88 2111.51 1594.44 2111.51 1591.7 2111.51 1588.75 2110.84 1586.22 2109.5 1584.13 2108.16 1582.03 2106.38 1580.19 2104.18 1578.61 2101.98 1577.02 2099.47 1575.57 2096.65 1574.26 2093.83 1572.94 2090.94 1571.6 2087.99 1570.23 2085.03 1568.86 2082.16 1567.34 2079.37 1565.68 2076.57 1564.01 2074.08 1562.05 2071.88 1559.8 2069.67 1557.54 2067.89 1554.89 2066.52 1551.86 2065.15 1548.82 2064.46 1545.19 2064.46 1540.94 2064.46 1536.59 2065.26 1532.71 2066.84 1529.3 2068.42 1525.89 2070.63 1523.03 2073.45 1520.72 2076.27 1518.41 2079.62 1516.65 2083.52 1515.44 2087.41 1514.23 2091.61 1513.63 2096.13 1513.63Z" fill="#FFFFFF" fill-rule="evenodd"/><text fill="#000000" fill-opacity="0" font-family="Arial,Arial_MSFontService,sans-serif" font-size="107.314" x="2061.89" y="1607.53">Structure</text><path d="M2279.52 1812.18C2277.8 1813.52 2276.39 1814.8 2275.29 1816 2274.19 1817.21 2273.32 1818.37 2272.67 1819.47 2272.03 1820.57 2271.59 1821.66 2271.34 1822.73 2271.1 1823.81 2270.98 1824.91 2270.98 1826.03 2270.98 1829.53 2272.75 1832.17 2276.3 1833.97 2279.84 1835.77 2284.79 1836.67 2291.12 1836.67 2295.15 1836.67 2298.52 1836.28 2301.24 1835.5 2303.95 1834.72 2306.14 1833.69 2307.8 1832.4 2309.47 1831.11 2310.66 1829.63 2311.39 1827.97 2312.11 1826.3 2312.47 1824.56 2312.47 1822.73 2312.47 1819.62 2311.2 1817.21 2308.65 1815.52 2306.1 1813.83 2302.65 1812.93 2298.29 1812.82ZM2110.28 1749.66C2106.98 1749.66 2104.09 1750.28 2101.6 1751.51 2099.12 1752.75 2097.04 1754.38 2095.36 1756.43 2093.69 1758.47 2092.39 1760.84 2091.47 1763.56 2090.55 1766.27 2090.04 1769.1 2089.93 1772.06L2129.49 1772.06C2129.65 1765.07 2128.1 1759.59 2124.83 1755.62 2121.56 1751.65 2116.71 1749.66 2110.28 1749.66ZM2290.16 1749.58C2287.58 1749.58 2285.34 1750.01 2283.43 1750.87 2281.52 1751.73 2279.94 1752.91 2278.68 1754.41 2277.41 1755.92 2276.47 1757.65 2275.86 1759.61 2275.24 1761.57 2274.93 1763.62 2274.93 1765.77 2274.93 1770.55 2276.29 1774.31 2279 1777.05 2281.71 1779.79 2285.51 1781.16 2290.4 1781.16 2293.03 1781.16 2295.31 1780.74 2297.25 1779.91 2299.18 1779.08 2300.78 1777.92 2302.04 1776.45 2303.3 1774.97 2304.24 1773.26 2304.86 1771.33 2305.48 1769.4 2305.79 1767.38 2305.79 1765.29 2305.79 1760.35 2304.43 1756.49 2301.72 1753.73 2299.01 1750.96 2295.15 1749.58 2290.16 1749.58ZM2234.59 1740.39C2235.94 1740.39 2237.04 1740.45 2237.9 1740.55 2238.76 1740.66 2239.43 1740.82 2239.91 1741.04 2240.39 1741.25 2240.74 1741.52 2240.96 1741.84 2241.17 1742.17 2241.28 1742.51 2241.28 1742.89L2241.28 1815.4C2241.28 1815.83 2241.17 1816.19 2240.96 1816.49 2240.74 1816.78 2240.39 1817.04 2239.91 1817.25 2239.43 1817.47 2238.76 1817.63 2237.9 1817.74 2237.04 1817.84 2235.94 1817.9 2234.59 1817.9 2233.3 1817.9 2232.23 1817.84 2231.37 1817.74 2230.51 1817.63 2229.83 1817.47 2229.32 1817.25 2228.81 1817.04 2228.46 1816.78 2228.27 1816.49 2228.08 1816.19 2227.99 1815.83 2227.99 1815.4L2227.99 1742.89C2227.99 1742.51 2228.08 1742.17 2228.27 1741.84 2228.46 1741.52 2228.81 1741.25 2229.32 1741.04 2229.83 1740.82 2230.51 1740.66 2231.37 1740.55 2232.23 1740.45 2233.3 1740.39 2234.59 1740.39ZM2290.4 1739.43C2292.6 1739.43 2294.66 1739.55 2296.56 1739.79 2298.47 1740.03 2300.25 1740.37 2301.92 1740.8L2323.83 1740.8C2324.75 1740.8 2325.43 1741.24 2325.89 1742.12 2326.34 1743.01 2326.57 1744.37 2326.57 1746.19 2326.57 1748.07 2326.32 1749.43 2325.81 1750.26 2325.3 1751.09 2324.64 1751.51 2323.83 1751.51L2313.44 1751.51C2315.32 1753.44 2316.64 1755.58 2317.39 1757.92 2318.14 1760.25 2318.52 1762.68 2318.52 1765.21 2318.52 1769.4 2317.85 1773.1 2316.5 1776.33 2315.16 1779.55 2313.24 1782.27 2310.74 1784.5 2308.24 1786.73 2305.28 1788.44 2301.84 1789.62 2298.4 1790.8 2294.59 1791.39 2290.4 1791.39 2287.44 1791.39 2284.64 1791 2281.98 1790.22 2279.32 1789.44 2277.27 1788.46 2275.82 1787.28 2274.85 1788.25 2274.06 1789.35 2273.44 1790.59 2272.82 1791.82 2272.51 1793.24 2272.51 1794.86 2272.51 1796.74 2273.39 1798.29 2275.13 1799.53 2276.88 1800.76 2279.2 1801.44 2282.1 1801.54L2301.03 1802.35C2304.63 1802.46 2307.94 1802.95 2310.94 1803.84 2313.95 1804.73 2316.56 1805.99 2318.76 1807.63 2320.96 1809.26 2322.68 1811.28 2323.91 1813.67 2325.15 1816.06 2325.77 1818.84 2325.77 1822.01 2325.77 1825.34 2325.07 1828.51 2323.67 1831.51 2322.28 1834.52 2320.14 1837.17 2317.27 1839.45 2314.39 1841.73 2310.73 1843.53 2306.27 1844.85 2301.81 1846.16 2296.55 1846.82 2290.48 1846.82 2284.62 1846.82 2279.64 1846.32 2275.53 1845.33 2271.43 1844.34 2268.06 1842.98 2265.42 1841.26 2262.79 1839.54 2260.88 1837.49 2259.7 1835.1 2258.52 1832.71 2257.93 1830.12 2257.93 1827.32 2257.93 1825.55 2258.15 1823.83 2258.58 1822.17 2259 1820.5 2259.66 1818.92 2260.55 1817.41 2261.44 1815.91 2262.54 1814.47 2263.85 1813.1 2265.17 1811.73 2266.69 1810.38 2268.4 1809.04 2265.77 1807.69 2263.83 1806 2262.56 1803.96 2261.3 1801.92 2260.67 1799.72 2260.67 1797.35 2260.67 1794.08 2261.34 1791.15 2262.68 1788.57 2264.03 1785.99 2265.69 1783.68 2267.68 1781.64 2266.01 1779.66 2264.7 1777.41 2263.73 1774.92 2262.76 1772.42 2262.28 1769.4 2262.28 1765.85 2262.28 1761.72 2262.98 1758.01 2264.38 1754.73 2265.77 1751.46 2267.71 1748.69 2270.18 1746.44 2272.65 1744.18 2275.61 1742.45 2279.08 1741.24 2282.54 1740.03 2286.32 1739.43 2290.4 1739.43ZM2380.48 1739.26C2385.32 1739.26 2389.39 1740.08 2392.69 1741.72 2395.99 1743.36 2398.67 1745.55 2400.71 1748.29 2402.75 1751.03 2404.21 1754.24 2405.1 1757.92 2405.98 1761.6 2406.43 1766.01 2406.43 1771.17L2406.43 1815.4C2406.43 1815.83 2406.32 1816.19 2406.1 1816.49 2405.89 1816.78 2405.54 1817.04 2405.06 1817.25 2404.57 1817.47 2403.9 1817.63 2403.04 1817.74 2402.18 1817.84 2401.11 1817.9 2399.82 1817.9 2398.48 1817.9 2397.38 1817.84 2396.52 1817.74 2395.66 1817.63 2394.99 1817.47 2394.5 1817.25 2394.02 1817.04 2393.67 1816.78 2393.46 1816.49 2393.24 1816.19 2393.13 1815.83 2393.13 1815.4L2393.13 1772.94C2393.13 1768.81 2392.81 1765.48 2392.17 1762.95 2391.52 1760.43 2390.58 1758.25 2389.35 1756.43 2388.11 1754.6 2386.51 1753.2 2384.55 1752.24 2382.59 1751.27 2380.32 1750.79 2377.74 1750.79 2374.41 1750.79 2371.08 1751.97 2367.75 1754.33 2364.42 1756.69 2360.93 1760.16 2357.28 1764.72L2357.28 1815.4C2357.28 1815.83 2357.17 1816.19 2356.96 1816.49 2356.74 1816.78 2356.39 1817.04 2355.91 1817.25 2355.43 1817.47 2354.76 1817.63 2353.9 1817.74 2353.04 1817.84 2351.94 1817.9 2350.59 1817.9 2349.3 1817.9 2348.23 1817.84 2347.37 1817.74 2346.51 1817.63 2345.83 1817.47 2345.32 1817.25 2344.81 1817.04 2344.46 1816.78 2344.27 1816.49 2344.08 1816.19 2343.99 1815.83 2343.99 1815.4L2343.99 1742.89C2343.99 1742.46 2344.07 1742.1 2344.23 1741.8 2344.39 1741.51 2344.71 1741.24 2345.2 1741 2345.68 1740.76 2346.3 1740.59 2347.05 1740.51 2347.8 1740.43 2348.79 1740.39 2350.03 1740.39 2351.21 1740.39 2352.19 1740.43 2352.97 1740.51 2353.75 1740.59 2354.35 1740.76 2354.78 1741 2355.21 1741.24 2355.52 1741.51 2355.71 1741.8 2355.9 1742.1 2355.99 1742.46 2355.99 1742.89L2355.99 1752.48C2360.07 1747.91 2364.14 1744.57 2368.2 1742.45 2372.25 1740.33 2376.35 1739.26 2380.48 1739.26ZM2185.38 1739.26C2187.32 1739.26 2189.25 1739.43 2191.19 1739.75 2193.12 1740.07 2194.86 1740.47 2196.42 1740.96 2197.98 1741.44 2199.31 1741.96 2200.41 1742.53 2201.51 1743.09 2202.34 1743.59 2202.91 1744.02 2203.47 1744.45 2203.85 1744.82 2204.04 1745.15 2204.22 1745.47 2204.36 1745.83 2204.44 1746.23 2204.52 1746.64 2204.6 1747.13 2204.68 1747.72 2204.76 1748.32 2204.8 1749.04 2204.8 1749.9 2204.8 1750.81 2204.76 1751.6 2204.68 1752.28 2204.6 1752.95 2204.47 1753.5 2204.28 1753.93 2204.09 1754.36 2203.86 1754.67 2203.59 1754.85 2203.32 1755.04 2203.03 1755.14 2202.71 1755.14 2202.22 1755.14 2201.52 1754.84 2200.61 1754.25 2199.7 1753.66 2198.52 1753.03 2197.07 1752.36 2195.62 1751.69 2193.91 1751.05 2191.95 1750.46 2189.99 1749.87 2187.75 1749.58 2185.22 1749.58 2182.97 1749.58 2180.98 1749.83 2179.26 1750.34 2177.54 1750.85 2176.13 1751.58 2175.03 1752.52 2173.93 1753.46 2173.1 1754.57 2172.53 1755.86 2171.97 1757.15 2171.69 1758.55 2171.69 1760.05 2171.69 1762.15 2172.23 1763.9 2173.3 1765.33 2174.37 1766.75 2175.77 1768 2177.49 1769.07 2179.21 1770.15 2181.17 1771.12 2183.37 1771.97 2185.57 1772.83 2187.82 1773.72 2190.1 1774.63 2192.38 1775.55 2194.64 1776.57 2196.87 1777.7 2199.09 1778.82 2201.07 1780.19 2202.79 1781.8 2204.51 1783.42 2205.89 1785.35 2206.94 1787.6 2207.98 1789.86 2208.51 1792.55 2208.51 1795.66 2208.51 1799.37 2207.82 1802.67 2206.45 1805.57 2205.08 1808.47 2203.14 1810.92 2200.61 1812.9 2198.09 1814.89 2195.08 1816.39 2191.59 1817.41 2188.1 1818.43 2184.26 1818.95 2180.07 1818.95 2177.49 1818.95 2175.03 1818.74 2172.7 1818.34 2170.36 1817.94 2168.26 1817.43 2166.41 1816.81 2164.56 1816.19 2162.99 1815.55 2161.7 1814.88 2160.41 1814.21 2159.47 1813.6 2158.88 1813.06 2158.29 1812.53 2157.86 1811.77 2157.59 1810.81 2157.32 1809.84 2157.19 1808.53 2157.19 1806.86 2157.19 1805.84 2157.24 1804.98 2157.35 1804.28 2157.46 1803.58 2157.59 1803.02 2157.75 1802.59 2157.91 1802.16 2158.14 1801.85 2158.44 1801.66 2158.73 1801.48 2159.07 1801.38 2159.44 1801.38 2160.03 1801.38 2160.91 1801.74 2162.06 1802.47 2163.22 1803.19 2164.64 1803.99 2166.33 1804.85 2168.02 1805.71 2170.02 1806.5 2172.33 1807.22 2174.64 1807.95 2177.3 1808.31 2180.31 1808.31 2182.56 1808.31 2184.61 1808.07 2186.43 1807.59 2188.26 1807.1 2189.84 1806.39 2191.19 1805.45 2192.53 1804.51 2193.56 1803.32 2194.29 1801.86 2195.01 1800.41 2195.38 1798.7 2195.38 1796.71 2195.38 1794.67 2194.85 1792.95 2193.8 1791.55 2192.76 1790.16 2191.37 1788.92 2189.65 1787.85 2187.94 1786.77 2186 1785.82 2183.85 1784.99 2181.71 1784.15 2179.49 1783.28 2177.21 1782.37 2174.92 1781.45 2172.7 1780.42 2170.52 1779.27 2168.34 1778.11 2166.4 1776.7 2164.68 1775.04 2162.96 1773.37 2161.58 1771.38 2160.53 1769.07 2159.48 1766.76 2158.96 1764 2158.96 1760.78 2158.96 1757.93 2159.51 1755.2 2160.61 1752.6 2161.71 1749.99 2163.36 1747.71 2165.57 1745.75 2167.77 1743.79 2170.52 1742.22 2173.82 1741.04 2177.13 1739.86 2180.98 1739.26 2185.38 1739.26ZM2110.96 1739.26C2116.65 1739.26 2121.5 1740.18 2125.5 1742 2129.5 1743.83 2132.79 1746.29 2135.37 1749.38 2137.95 1752.46 2139.84 1756.09 2141.05 1760.25 2142.26 1764.42 2142.86 1768.86 2142.86 1773.59L2142.86 1776C2142.86 1778.1 2142.34 1779.59 2141.28 1780.47 2140.23 1781.36 2139.03 1781.8 2137.68 1781.8L2089.93 1781.8C2089.93 1785.83 2090.33 1789.46 2091.14 1792.68 2091.95 1795.9 2093.3 1798.67 2095.19 1800.98 2097.08 1803.29 2099.54 1805.06 2102.56 1806.3 2105.58 1807.53 2109.28 1808.15 2113.65 1808.15 2117.1 1808.15 2120.18 1807.87 2122.88 1807.3 2125.58 1806.74 2127.91 1806.11 2129.88 1805.41 2131.85 1804.71 2133.47 1804.08 2134.74 1803.52 2136.01 1802.95 2136.97 1802.67 2137.62 1802.67 2137.99 1802.67 2138.33 1802.76 2138.63 1802.95 2138.92 1803.14 2139.15 1803.42 2139.31 1803.8 2139.48 1804.17 2139.6 1804.7 2139.68 1805.37 2139.76 1806.04 2139.8 1806.86 2139.8 1807.83 2139.8 1808.53 2139.77 1809.13 2139.72 1809.64 2139.67 1810.15 2139.6 1810.61 2139.52 1811.01 2139.44 1811.41 2139.3 1811.77 2139.12 1812.1 2138.93 1812.42 2138.69 1812.73 2138.39 1813.02 2138.1 1813.32 2137.22 1813.8 2135.77 1814.47 2134.32 1815.15 2132.44 1815.8 2130.13 1816.45 2127.82 1817.09 2125.15 1817.67 2122.12 1818.18 2119.08 1818.69 2115.85 1818.95 2112.41 1818.95 2106.45 1818.95 2101.22 1818.11 2096.74 1816.45 2092.25 1814.78 2088.48 1812.31 2085.42 1809.04 2082.36 1805.76 2080.05 1801.65 2078.49 1796.71 2076.93 1791.77 2076.15 1786.02 2076.15 1779.47 2076.15 1773.24 2076.96 1767.64 2078.57 1762.67 2080.18 1757.7 2082.5 1753.48 2085.54 1750.02 2088.57 1746.56 2092.24 1743.9 2096.54 1742.04 2100.83 1740.19 2105.64 1739.26 2110.96 1739.26ZM1995.38 1724.68 1995.38 1805.81 2009.64 1805.81C2016.3 1805.81 2021.91 1804.98 2026.47 1803.32 2031.04 1801.65 2034.85 1799.1 2037.91 1795.66 2040.98 1792.22 2043.27 1787.91 2044.8 1782.73 2046.33 1777.55 2047.1 1771.41 2047.1 1764.32 2047.1 1758.68 2046.4 1753.43 2045 1748.57 2043.61 1743.71 2041.42 1739.51 2038.44 1735.96 2035.46 1732.42 2031.68 1729.65 2027.12 1727.66 2022.55 1725.68 2016.67 1724.68 2009.47 1724.68ZM1986.67 1713.16 2010.28 1713.16C2019.3 1713.16 2026.93 1714.33 2033.16 1716.67 2039.39 1719 2044.61 1722.36 2048.83 1726.74 2053.05 1731.11 2056.24 1736.42 2058.42 1742.65 2060.59 1748.88 2061.68 1755.92 2061.68 1763.76 2061.68 1772.78 2060.53 1780.66 2058.22 1787.4 2055.91 1794.14 2052.54 1799.73 2048.11 1804.16 2043.68 1808.59 2038.24 1811.91 2031.79 1814.11 2025.35 1816.31 2017.67 1817.41 2008.75 1817.41L1986.67 1817.41C1985.44 1817.41 1984.27 1817 1983.17 1816.17 1982.07 1815.33 1981.52 1813.87 1981.52 1811.77L1981.52 1718.8C1981.52 1716.71 1982.07 1715.24 1983.17 1714.41 1984.27 1713.58 1985.44 1713.16 1986.67 1713.16ZM2234.67 1710.5C2237.79 1710.5 2239.92 1711.05 2241.08 1712.15 2242.23 1713.26 2242.81 1715.34 2242.81 1718.4 2242.81 1721.51 2242.22 1723.64 2241.04 1724.76 2239.86 1725.89 2237.68 1726.45 2234.51 1726.45 2231.4 1726.45 2229.26 1725.9 2228.11 1724.8 2226.95 1723.7 2226.38 1721.62 2226.38 1718.56 2226.38 1715.44 2226.97 1713.32 2228.15 1712.19 2229.33 1711.07 2231.51 1710.5 2234.67 1710.5Z" fill="#FFFFFF" fill-rule="evenodd"/><text fill="#000000" fill-opacity="0" font-family="Arial,Arial_MSFontService,sans-serif" font-size="136.318" x="1981.52" y="1829.78">Design</text><path d="M2242.19 1952.65C2238.9 1952.65 2236.01 1953.27 2233.52 1954.51 2231.03 1955.74 2228.95 1957.38 2227.28 1959.42 2225.6 1961.46 2224.31 1963.84 2223.39 1966.55 2222.47 1969.26 2221.96 1972.1 2221.85 1975.05L2261.4 1975.05C2261.57 1968.07 2260.01 1962.59 2256.74 1958.62 2253.47 1954.64 2248.62 1952.65 2242.19 1952.65ZM2135.84 1943.39C2137.4 1943.39 2138.65 1943.43 2139.59 1943.51 2140.53 1943.59 2141.25 1943.74 2141.76 1943.95 2142.27 1944.17 2142.65 1944.44 2142.89 1944.76 2143.13 1945.08 2143.36 1945.48 2143.58 1945.97L2164.04 2005.75 2164.36 2006.71 2164.6 2005.75 2184.83 1945.97C2184.93 1945.48 2185.12 1945.08 2185.39 1944.76 2185.66 1944.44 2186.05 1944.17 2186.56 1943.95 2187.07 1943.74 2187.77 1943.59 2188.65 1943.51 2189.54 1943.43 2190.71 1943.39 2192.16 1943.39 2193.39 1943.39 2194.41 1943.42 2195.22 1943.47 2196.03 1943.52 2196.66 1943.66 2197.11 1943.87 2197.57 1944.09 2197.89 1944.34 2198.08 1944.64 2198.27 1944.93 2198.36 1945.3 2198.36 1945.72 2198.36 1945.94 2198.35 1946.17 2198.32 1946.41 2198.29 1946.65 2198.25 1946.91 2198.2 1947.18 2198.15 1947.44 2198.08 1947.74 2198 1948.06 2197.92 1948.38 2197.82 1948.73 2197.72 1949.11L2172.98 2017.99C2172.77 2018.58 2172.49 2019.07 2172.14 2019.44 2171.79 2019.82 2171.26 2020.11 2170.57 2020.33 2169.87 2020.54 2168.98 2020.69 2167.91 2020.77 2166.83 2020.85 2165.49 2020.89 2163.88 2020.89 2162.27 2020.89 2160.93 2020.84 2159.85 2020.73 2158.78 2020.62 2157.9 2020.46 2157.23 2020.25 2156.56 2020.03 2156.04 2019.74 2155.66 2019.36 2155.29 2018.99 2154.99 2018.53 2154.78 2017.99L2130.12 1949.11C2129.91 1948.46 2129.73 1947.9 2129.6 1947.42 2129.46 1946.93 2129.38 1946.57 2129.36 1946.33 2129.33 1946.09 2129.32 1945.89 2129.32 1945.72 2129.32 1945.3 2129.42 1944.92 2129.64 1944.6 2129.85 1944.27 2130.22 1944.02 2130.73 1943.83 2131.24 1943.64 2131.91 1943.52 2132.74 1943.47 2133.57 1943.42 2134.61 1943.39 2135.84 1943.39ZM2326.73 1942.26C2327.43 1942.26 2328.22 1942.3 2329.1 1942.38 2329.99 1942.46 2330.92 1942.61 2331.88 1942.82 2332.85 1943.04 2333.72 1943.28 2334.5 1943.55 2335.28 1943.82 2335.83 1944.09 2336.15 1944.36 2336.48 1944.62 2336.69 1944.88 2336.8 1945.12 2336.91 1945.36 2337 1945.67 2337.08 1946.05 2337.16 1946.42 2337.21 1946.97 2337.24 1947.7 2337.27 1948.42 2337.28 1949.4 2337.28 1950.64 2337.28 1951.82 2337.25 1952.81 2337.2 1953.62 2337.15 1954.43 2337.04 1955.06 2336.88 1955.51 2336.72 1955.97 2336.52 1956.32 2336.27 1956.56 2336.03 1956.8 2335.7 1956.92 2335.27 1956.92 2334.84 1956.92 2334.31 1956.8 2333.7 1956.56 2333.08 1956.32 2332.38 1956.08 2331.6 1955.84 2330.82 1955.59 2329.95 1955.37 2328.98 1955.15 2328.02 1954.94 2326.97 1954.83 2325.84 1954.83 2324.5 1954.83 2323.18 1955.1 2321.89 1955.63 2320.6 1956.17 2319.25 1957.06 2317.82 1958.29 2316.4 1959.53 2314.91 1961.17 2313.35 1963.21 2311.8 1965.25 2310.08 1967.75 2308.2 1970.7L2308.2 2018.4C2308.2 2018.83 2308.09 2019.19 2307.88 2019.48 2307.66 2019.78 2307.31 2020.03 2306.83 2020.25 2306.34 2020.46 2305.67 2020.62 2304.81 2020.73 2303.95 2020.84 2302.85 2020.89 2301.51 2020.89 2300.22 2020.89 2299.15 2020.84 2298.29 2020.73 2297.43 2020.62 2296.74 2020.46 2296.23 2020.25 2295.72 2020.03 2295.37 2019.78 2295.19 2019.48 2295 2019.19 2294.9 2018.83 2294.9 2018.4L2294.9 1945.89C2294.9 1945.46 2294.98 1945.09 2295.15 1944.8 2295.31 1944.5 2295.63 1944.23 2296.11 1943.99 2296.6 1943.75 2297.21 1943.59 2297.97 1943.51 2298.72 1943.43 2299.71 1943.39 2300.95 1943.39 2302.13 1943.39 2303.11 1943.43 2303.89 1943.51 2304.67 1943.59 2305.27 1943.75 2305.7 1943.99 2306.13 1944.23 2306.44 1944.5 2306.63 1944.8 2306.81 1945.09 2306.91 1945.46 2306.91 1945.89L2306.91 1956.44C2308.9 1953.54 2310.76 1951.18 2312.51 1949.35 2314.25 1947.52 2315.9 1946.09 2317.46 1945.04 2319.02 1943.99 2320.56 1943.27 2322.09 1942.86 2323.63 1942.46 2325.17 1942.26 2326.73 1942.26ZM2242.87 1942.26C2248.57 1942.26 2253.42 1943.17 2257.42 1945 2261.42 1946.83 2264.71 1949.28 2267.29 1952.37 2269.86 1955.46 2271.76 1959.09 2272.97 1963.25 2274.17 1967.41 2274.78 1971.86 2274.78 1976.58L2274.78 1979C2274.78 1981.09 2274.25 1982.58 2273.2 1983.47 2272.15 1984.36 2270.95 1984.8 2269.6 1984.8L2221.85 1984.8C2221.85 1988.83 2222.25 1992.45 2223.06 1995.68 2223.87 1998.9 2225.22 2001.66 2227.11 2003.97 2229 2006.28 2231.45 2008.06 2234.48 2009.29 2237.5 2010.53 2241.2 2011.14 2245.57 2011.14 2249.02 2011.14 2252.1 2010.86 2254.8 2010.3 2257.5 2009.73 2259.83 2009.1 2261.8 2008.41 2263.77 2007.71 2265.39 2007.08 2266.66 2006.51 2267.93 2005.95 2268.88 2005.67 2269.53 2005.67 2269.91 2005.67 2270.25 2005.76 2270.54 2005.95 2270.84 2006.14 2271.07 2006.42 2271.23 2006.79 2271.39 2007.17 2271.51 2007.69 2271.6 2008.37 2271.68 2009.04 2271.72 2009.86 2271.72 2010.82 2271.72 2011.52 2271.69 2012.13 2271.64 2012.64 2271.58 2013.15 2271.52 2013.6 2271.44 2014.01 2271.35 2014.41 2271.22 2014.77 2271.03 2015.09 2270.84 2015.41 2270.6 2015.72 2270.31 2016.02 2270.01 2016.31 2269.14 2016.8 2267.69 2017.47 2266.24 2018.14 2264.36 2018.8 2262.05 2019.44 2259.74 2020.09 2257.07 2020.67 2254.03 2021.18 2251 2021.69 2247.76 2021.94 2244.32 2021.94 2238.36 2021.94 2233.14 2021.11 2228.65 2019.44 2224.17 2017.78 2220.4 2015.31 2217.33 2012.03 2214.27 2008.75 2211.96 2004.65 2210.41 1999.7 2208.85 1994.76 2208.07 1989.02 2208.07 1982.46 2208.07 1976.23 2208.88 1970.63 2210.49 1965.67 2212.1 1960.7 2214.42 1956.48 2217.46 1953.02 2220.49 1949.55 2224.16 1946.89 2228.45 1945.04 2232.75 1943.19 2237.56 1942.26 2242.87 1942.26ZM2064.59 1916.16 2114.06 1916.16C2114.49 1916.16 2114.88 1916.26 2115.23 1916.48 2115.58 1916.69 2115.86 1917.04 2116.07 1917.53 2116.29 1918.01 2116.46 1918.61 2116.6 1919.34 2116.73 1920.06 2116.8 1920.96 2116.8 1922.04 2116.8 1923.01 2116.73 1923.85 2116.6 1924.58 2116.46 1925.3 2116.29 1925.89 2116.07 1926.35 2115.86 1926.81 2115.58 1927.14 2115.23 1927.36 2114.88 1927.57 2114.49 1927.68 2114.06 1927.68L2073.29 1927.68 2073.29 1960.39 2108.26 1960.39C2108.69 1960.39 2109.08 1960.51 2109.43 1960.75 2109.78 1960.99 2110.07 1961.33 2110.31 1961.76 2110.55 1962.19 2110.73 1962.78 2110.84 1963.53 2110.94 1964.28 2111 1965.17 2111 1966.19 2111 1967.16 2110.94 1967.99 2110.84 1968.69 2110.73 1969.38 2110.55 1969.95 2110.31 1970.38 2110.07 1970.81 2109.78 1971.12 2109.43 1971.3 2109.08 1971.49 2108.69 1971.59 2108.26 1971.59L2073.29 1971.59 2073.29 2008.89 2114.62 2008.89C2115.05 2008.89 2115.44 2009 2115.79 2009.21 2116.14 2009.43 2116.45 2009.76 2116.72 2010.22 2116.99 2010.67 2117.17 2011.27 2117.28 2011.99 2117.39 2012.72 2117.44 2013.62 2117.44 2014.69 2117.44 2015.66 2117.39 2016.5 2117.28 2017.23 2117.17 2017.95 2116.99 2018.56 2116.72 2019.04 2116.45 2019.52 2116.14 2019.87 2115.79 2020.09 2115.44 2020.3 2115.05 2020.41 2114.62 2020.41L2064.59 2020.41C2063.36 2020.41 2062.19 2019.99 2061.09 2019.16 2059.99 2018.33 2059.43 2016.87 2059.43 2014.77L2059.43 1921.8C2059.43 1919.7 2059.99 1918.24 2061.09 1917.41 2062.19 1916.57 2063.36 1916.16 2064.59 1916.16Z" fill="#FFFFFF" fill-rule="evenodd"/><text fill="#000000" fill-opacity="0" font-family="Arial,Arial_MSFontService,sans-serif" font-size="105.784" x="2059.43" y="2008.72">Ever</text></g></svg>