<svg width="654" height="1410" xmlns="http://www.w3.org/2000/svg" xmlns:xlink="http://www.w3.org/1999/xlink" xml:space="preserve" overflow="hidden"><defs><filter id="fx0" x="-10%" y="-10%" width="120%" height="120%" filterUnits="userSpaceOnUse" primitiveUnits="userSpaceOnUse"><feComponentTransfer color-interpolation-filters="sRGB"><feFuncR type="discrete" tableValues="0 0"/><feFuncG type="discrete" tableValues="0 0"/><feFuncB type="discrete" tableValues="0 0"/><feFuncA type="linear" slope="0.309804" intercept="0"/></feComponentTransfer><feGaussianBlur stdDeviation="7.63889 7.63889"/></filter><filter id="fx1" x="-10%" y="-10%" width="120%" height="120%" filterUnits="userSpaceOnUse" primitiveUnits="userSpaceOnUse"><feComponentTransfer color-interpolation-filters="sRGB"><feFuncR type="discrete" tableValues="0 0"/><feFuncG type="discrete" tableValues="0 0"/><feFuncB type="discrete" tableValues="0 0"/><feFuncA type="linear" slope="0.309804" intercept="0"/></feComponentTransfer><feGaussianBlur stdDeviation="7.63889 7.63889"/></filter><filter id="fx2" x="-10%" y="-10%" width="120%" height="120%" filterUnits="userSpaceOnUse" primitiveUnits="userSpaceOnUse"><feComponentTransfer color-interpolation-filters="sRGB"><feFuncR type="discrete" tableValues="0 0"/><feFuncG type="discrete" tableValues="0 0"/><feFuncB type="discrete" tableValues="0 0"/><feFuncA type="linear" slope="0.4" intercept="0"/></feComponentTransfer><feGaussianBlur stdDeviation="6.11111 6.11111"/></filter><clipPath id="clip3"><rect x="1866" y="433" width="654" height="1410"/></clipPath><clipPath id="clip4"><rect x="-7" y="-7" width="279" height="255"/></clipPath><clipPath id="clip5"><rect x="0" y="0" width="264" height="242"/></clipPath><clipPath id="clip6"><rect x="-7" y="-7" width="279" height="255"/></clipPath><clipPath id="clip7"><rect x="0" y="0" width="264" height="242"/></clipPath><clipPath id="clip8"><rect x="-3" y="-3" width="262" height="1411"/></clipPath><clipPath id="clip9"><rect x="0" y="0" width="256" height="1404"/></clipPath></defs><g clip-path="url(#clip3)" transform="translate(-1866 -433)"><path d="M2076.44 651.226 2076.44 1624.98 2197.18 1624.98C2231.55 1625.53 2258.25 1615.63 2277.27 1595.27 2296.3 1574.9 2305.96 1540.66 2306.24 1492.53L2306.24 783.652C2305.96 735.538 2296.3 701.299 2277.27 680.917 2258.25 660.554 2231.55 650.651 2197.18 651.226L2076.44 651.226ZM2076 456C2121.77 457.145 2116.8 455.545 2201.08 456.763 2322.03 458.512 2387.63 487.228 2440.78 543.333 2493.94 599.438 2520.08 683.991 2520 793.393L2520 1482.81C2520.08 1592.21 2493.68 1675.55 2440.78 1732.87 2387.89 1790.17 2307.99 1819.03 2201.08 1819.43L2076.95 1820C2076.06 1365.14 2076.89 910.858 2076 456Z" fill="#C00000" fill-rule="evenodd"/><g clip-path="url(#clip4)" filter="url(#fx0)" transform="translate(1884 432)"><g clip-path="url(#clip5)"><rect x="23.6667" y="24.0002" width="216" height="194" fill="#E50914"/></g></g><rect x="1871" y="456" width="216" height="194" fill="#E50914"/><g clip-path="url(#clip6)" filter="url(#fx1)" transform="translate(1884 1602)"><g clip-path="url(#clip7)"><rect x="23.6667" y="23.9999" width="216" height="194" fill="#E50914"/></g></g><rect x="1871" y="1626" width="216" height="194" fill="#E50914"/><g clip-path="url(#clip8)" filter="url(#fx2)" transform="translate(1865 436)"><g clip-path="url(#clip9)"><rect x="19.75" y="20.0002" width="216" height="1364" fill="#E50914"/></g></g><rect x="1871" y="456" width="216" height="1364" fill="#E50914"/></g></svg>