<svg width="2842" height="758" xmlns="http://www.w3.org/2000/svg" xmlns:xlink="http://www.w3.org/1999/xlink" xml:space="preserve" overflow="hidden"><defs><clipPath id="clip0"><rect x="779" y="274" width="2842" height="758"/></clipPath></defs><g clip-path="url(#clip0)" transform="translate(-779 -274)"><path d="M1341.84 402.938C1325.01 518.472 1308.25 634.471 1291.49 750.939 1325.16 748.993 1358.83 747.148 1392.51 745.417 1376.21 631.665 1359.98 517.498 1343.75 402.909 1343.11 402.919 1342.47 402.928 1341.84 402.938ZM883.728 386.446C883.601 559.885 883.474 733.325 883.346 906.765 902.994 904.706 922.649 902.689 942.305 900.721 959.09 899.342 972.127 892.842 981.453 881.242 990.762 869.664 995.509 851.261 995.683 825.995 995.852 701.98 996.022 577.966 996.191 453.952 996.086 428.701 991.379 410.83 982.076 400.311 972.757 389.776 959.698 384.775 942.866 385.373 923.153 385.722 903.44 386.08 883.728 386.446ZM3247.33 282.205C3283.55 282.245 3319.77 282.287 3355.99 282.331 3382.26 369.905 3408.38 458.221 3434.43 547.272 3435.07 547.3 3435.7 547.327 3436.34 547.354 3463.03 459.87 3489.58 371.593 3516.11 282.537 3548.52 282.582 3580.92 282.628 3613.33 282.676 3576.99 401.77 3540.6 519.366 3503.97 635.458 3543.35 763.076 3582.27 892.55 3620.87 1023.9 3584.23 1019.07 3547.56 1014.42 3510.88 1009.96 3482.78 911.022 3454.54 813.052 3426.06 716.053 3425.43 716.009 3424.79 715.966 3424.16 715.922 3395.81 808.201 3367.45 899.706 3338.98 990.426 3306.34 986.978 3273.69 983.676 3241.02 980.521 3279.98 864.052 3318.75 746.304 3357.45 627.248 3320.93 510.951 3284.25 395.945 3247.33 282.205ZM3056.82 282.015C3091.74 282.046 3126.66 282.08 3161.58 282.115 3162.05 512.5 3162.53 742.885 3163.01 973.269 3128.12 970.153 3093.23 967.205 3058.32 964.425 3057.82 736.955 3057.32 509.485 3056.82 282.015ZM2708.51 281.765C2743.43 281.784 2778.35 281.804 2813.27 281.827 2813.67 472.132 2814.06 662.438 2814.46 852.743 2872.04 855.562 2929.61 858.782 2987.14 862.39 2987.21 894.596 2987.29 926.802 2987.36 959.008 2894.89 952.255 2802.34 946.684 2709.74 942.305 2709.33 722.125 2708.92 501.945 2708.51 281.765ZM2353.93 281.641C2446.38 281.656 2538.83 281.685 2631.28 281.727 2631.33 312.988 2631.38 344.25 2631.43 375.511 2573.89 375.16 2516.34 374.877 2458.79 374.666 2458.86 440.197 2458.93 505.729 2459 571.261 2504.18 571.75 2549.36 572.371 2594.53 573.117 2594.58 604.312 2594.63 635.506 2594.68 666.7 2549.49 665.72 2504.29 664.906 2459.09 664.262 2459.19 753.966 2459.28 843.669 2459.37 933.373 2424.36 932.53 2389.35 931.858 2354.33 931.357 2354.2 714.785 2354.07 498.213 2353.93 281.641ZM1958.82 281.659C2066.84 281.632 2174.86 281.623 2282.88 281.632 2282.89 312.501 2282.9 343.37 2282.91 374.239 2246.35 374.196 2209.78 374.181 2173.22 374.195 2173.19 559.559 2173.15 744.922 2173.12 930.286 2138.1 930.373 2103.08 930.631 2068.06 931.059 2068.18 745.477 2068.29 559.895 2068.41 374.313 2031.85 374.381 1995.28 374.479 1958.72 374.604 1958.75 343.622 1958.79 312.641 1958.82 281.659ZM1271.59 282.082C1322.74 282.032 1373.89 281.986 1425.04 281.945 1459.97 506.537 1495.06 729.536 1530.27 951.058 1494.98 953.251 1459.69 955.617 1424.41 958.155 1418.47 917.664 1412.53 877.122 1406.59 836.531 1363.69 839.121 1320.81 841.926 1277.95 844.933 1271.81 886.981 1265.69 929.095 1259.57 971.276 1227.51 974.073 1195.47 977.012 1163.44 980.092 1199.25 745.178 1235.33 512.549 1271.59 282.082ZM779.05 282.687C834.329 282.605 889.607 282.528 944.886 282.456 997.279 282.599 1036.35 297.653 1062.29 327.29 1088.1 356.798 1101.01 399.675 1100.87 456.209 1100.65 574.954 1100.44 693.7 1100.22 812.445 1100.16 868.973 1087.11 913.177 1061.26 945.429 1035.28 977.846 996.285 997.123 944.095 1003.41 889.029 1009.83 834.012 1016.66 779.05 1023.91 779.05 776.833 779.05 529.76 779.05 282.687ZM1747 274.215C1798.07 274.525 1836.52 288.872 1862.4 317.151 1888.25 345.397 1901.2 385.737 1901.19 438.26 1901.18 445.102 1901.17 451.943 1901.16 458.784 1868.13 459.04 1835.09 459.341 1802.06 459.683 1802.07 450.621 1802.09 441.559 1802.1 432.497 1802.04 409.297 1797.49 392.69 1788.46 382.665 1779.42 372.635 1766.5 367.775 1749.7 368.109 1732.89 367.973 1719.95 372.999 1710.88 383.196 1701.8 393.401 1697.2 410.193 1697.06 433.549 1696.45 456.871 1702.77 479.278 1716.03 500.721 1729.27 522.141 1752.78 547.015 1786.59 575.246 1829.69 611.592 1859.86 645.291 1877.03 676.447 1894.19 707.579 1902.43 741.354 1901.7 777.806 1901.56 830.33 1888.26 871.034 1861.92 900.094 1835.5 929.228 1796.49 944.868 1744.83 947.385 1693.16 949.28 1654.19 936.846 1627.94 909.444 1601.67 882.015 1588.58 841.465 1588.62 787.895 1588.65 774.256 1588.68 760.618 1588.71 746.979 1621.76 745.663 1654.81 744.451 1687.86 743.348 1687.83 759.085 1687.8 774.821 1687.77 790.558 1687.9 813.881 1692.76 830.293 1702.36 839.782 1711.96 849.268 1725.22 853.532 1742.13 852.633 1759.04 852.283 1772.31 847.051 1781.96 836.916 1791.59 826.79 1796.53 810.152 1796.74 786.979 1797.34 763.795 1791 741.62 1777.74 720.428 1764.46 699.22 1740.92 674.616 1707.15 646.54 1664 610.319 1633.91 576.332 1616.79 544.757 1599.65 513.124 1591.49 478.671 1592.24 441.5 1592.42 387.938 1605.46 346.639 1631.46 317.784 1657.4 288.997 1695.94 274.525 1747 274.215Z" fill="#E50914" fill-rule="evenodd"/><text fill="#000000" fill-opacity="0" font-family="Arial,Arial_MSFontService,sans-serif" font-size="749.692" x="779.05" y="930.195">DASTFLIX</text></g></svg>