<svg width="367" height="759" xmlns="http://www.w3.org/2000/svg" xmlns:xlink="http://www.w3.org/1999/xlink" xml:space="preserve" overflow="hidden"><defs><clipPath id="clip0"><rect x="589" y="977" width="367" height="759"/></clipPath></defs><g clip-path="url(#clip0)" transform="translate(-589 -977)"><path d="M708.753 1085.83C708.753 1266.42 708.753 1447.01 708.753 1627.61 731.133 1627.61 753.513 1627.61 775.894 1627.61 795.003 1627.92 809.848 1622.41 820.429 1611.08 831.01 1599.75 836.38 1580.7 836.538 1553.92 836.538 1422.45 836.538 1290.98 836.538 1159.51 836.38 1132.74 831.01 1113.69 820.429 1102.35 809.848 1091.02 795.003 1085.51 775.894 1085.83 753.513 1085.83 731.133 1085.83 708.753 1085.83ZM589.892 977.634C652.615 977.634 715.337 977.634 778.06 977.634 837.507 977.857 881.937 993.911 911.35 1025.8 940.763 1057.68 955.446 1104.06 955.399 1164.93 955.399 1292.79 955.399 1420.65 955.399 1548.51 955.446 1609.38 940.763 1655.75 911.35 1687.64 881.937 1719.52 837.507 1735.58 778.06 1735.8 715.337 1735.8 652.615 1735.8 589.892 1735.8 589.892 1483.08 589.892 1230.36 589.892 977.634Z" fill="#E50914" fill-rule="evenodd"/><text fill="#000000" fill-opacity="0" font-family="Arial,Arial_MSFontService,sans-serif" font-size="758.164" x="589.892" y="1641.03">D</text></g></svg>