<svg width="2880" height="796" xmlns="http://www.w3.org/2000/svg" xmlns:xlink="http://www.w3.org/1999/xlink" xml:space="preserve" overflow="hidden"><defs><filter id="fx0" x="-10%" y="-10%" width="120%" height="120%" filterUnits="userSpaceOnUse" primitiveUnits="userSpaceOnUse"><feComponentTransfer color-interpolation-filters="sRGB"><feFuncR type="discrete" tableValues="0 0"/><feFuncG type="discrete" tableValues="0 0"/><feFuncB type="discrete" tableValues="0 0"/><feFuncA type="linear" slope="0.4" intercept="0"/></feComponentTransfer><feGaussianBlur stdDeviation="6.11111 6.11111"/></filter><clipPath id="clip1"><rect x="770" y="1356" width="2880" height="796"/></clipPath><clipPath id="clip2"><rect x="-3" y="-3" width="2887" height="795"/></clipPath><clipPath id="clip3"><rect x="0" y="0" width="2882" height="790"/></clipPath></defs><g clip-path="url(#clip1)" transform="translate(-770 -1356)"><g clip-path="url(#clip2)" filter="url(#fx0)" transform="translate(769 1355)"><g clip-path="url(#clip3)"><path d="M582.562 148.609C565.736 264.143 548.971 380.143 532.216 496.611 565.88 494.665 599.548 492.82 633.228 491.088 616.936 377.337 600.7 263.17 584.468 148.581 583.833 148.591 583.198 148.6 582.562 148.609ZM124.451 132.117C124.324 305.557 124.196 478.997 124.069 652.437 143.716 650.378 163.371 648.361 183.028 646.393 199.813 645.013 212.85 638.513 222.176 626.914 231.485 615.336 236.232 596.933 236.406 571.666 236.575 447.652 236.744 323.638 236.914 199.624 236.809 174.373 232.102 156.501 222.798 145.983 213.479 135.448 200.421 130.447 183.588 131.045 163.875 131.394 144.163 131.752 124.451 132.117ZM2488.05 27.877C2524.27 27.9167 2560.49 27.9586 2596.71 28.0024 2622.98 115.577 2649.1 203.893 2675.16 292.944 2675.79 292.971 2676.43 292.999 2677.06 293.026 2703.76 205.541 2730.31 117.265 2756.83 28.2092 2789.24 28.2537 2821.64 28.2999 2854.05 28.3476 2817.72 147.442 2781.33 265.038 2744.69 381.13 2784.07 508.748 2823 638.222 2861.59 769.568 2824.95 764.738 2788.28 760.092 2751.6 755.631 2723.51 656.693 2695.27 558.724 2666.78 461.725 2666.15 461.681 2665.52 461.637 2664.88 461.594 2636.53 553.873 2608.18 645.378 2579.7 736.098 2547.06 732.649 2514.41 729.348 2481.74 726.193 2520.7 609.724 2559.47 491.976 2598.17 372.92 2561.65 256.623 2524.97 141.617 2488.05 27.877ZM2297.54 27.6868C2332.46 27.7181 2367.38 27.7516 2402.3 27.7867 2402.78 258.172 2403.25 488.556 2403.73 718.941 2368.85 715.825 2333.95 712.877 2299.04 710.097 2298.54 482.627 2298.04 255.157 2297.54 27.6868ZM1949.23 27.4368C1984.15 27.4554 2019.07 27.4762 2054 27.4986 2054.39 217.804 2054.79 408.109 2055.18 598.415 2112.77 601.234 2170.33 604.454 2227.86 608.062 2227.94 640.268 2228.01 672.474 2228.08 704.68 2135.62 697.926 2043.06 692.356 1950.46 687.976 1950.05 467.797 1949.64 247.617 1949.23 27.4368ZM1594.66 27.3131C1687.1 27.328 1779.55 27.3567 1872 27.3986 1872.05 58.6601 1872.1 89.9217 1872.15 121.183 1814.61 120.832 1757.06 120.548 1699.52 120.337 1699.58 185.869 1699.65 251.401 1699.72 316.932 1744.9 317.422 1790.08 318.043 1835.26 318.789 1835.3 349.983 1835.35 381.178 1835.4 412.372 1790.21 411.392 1745.02 410.577 1699.82 409.934 1699.91 499.637 1700 589.341 1700.1 679.044 1665.08 678.202 1630.07 677.53 1595.05 677.029 1594.92 460.457 1594.79 243.885 1594.66 27.3131ZM1199.54 27.3313C1307.56 27.3039 1415.59 27.2948 1523.61 27.3042 1523.62 58.173 1523.63 89.0418 1523.64 119.911 1487.07 119.868 1450.51 119.853 1413.94 119.867 1413.91 305.23 1413.87 490.594 1413.84 675.957 1378.82 676.045 1343.8 676.303 1308.78 676.731 1308.9 491.149 1309.02 305.567 1309.14 119.985 1272.57 120.053 1236.01 120.15 1199.44 120.275 1199.48 89.294 1199.51 58.3126 1199.54 27.3313ZM512.31 27.7539C563.462 27.7042 614.614 27.6583 665.765 27.6167 700.697 252.209 735.78 475.207 770.997 696.73 735.701 698.923 700.412 701.289 665.136 703.827 659.19 663.335 653.251 622.794 647.31 582.203 604.414 584.793 561.535 587.598 518.67 590.605 512.536 632.653 506.415 674.767 500.296 716.948 468.237 719.744 436.19 722.683 404.159 725.763 439.976 490.849 476.054 258.221 512.31 27.7539ZM19.7732 28.359C75.0514 28.2771 130.33 28.1999 185.609 28.1274 238.001 28.2707 277.076 43.3244 303.008 72.9614 328.827 102.47 341.735 145.347 341.59 201.881 341.376 320.626 341.162 439.371 340.947 558.117 340.887 614.645 327.829 658.849 301.981 691.1 276.001 723.517 237.007 742.795 184.817 749.087 129.752 755.501 74.735 762.334 19.7732 769.578 19.7732 522.505 19.7732 275.432 19.7732 28.359ZM987.726 19.8865C1038.79 20.1973 1077.24 34.5433 1103.12 62.8227 1128.98 91.069 1141.93 131.409 1141.91 183.932 1141.9 190.773 1141.9 197.614 1141.89 204.455 1108.85 204.712 1075.82 205.013 1042.78 205.354 1042.8 196.293 1042.81 187.231 1042.83 178.169 1042.77 154.969 1038.22 138.362 1029.18 128.337 1020.15 118.306 1007.23 113.446 990.419 113.781 973.611 113.645 960.67 118.671 951.602 128.868 942.528 139.073 937.924 155.864 937.779 179.22 937.176 202.543 943.489 224.949 956.75 246.393 969.996 267.813 993.5 292.687 1027.31 320.918 1070.42 357.264 1100.58 390.963 1117.76 422.118 1134.92 453.251 1143.15 487.026 1142.43 523.478 1142.28 576.002 1128.99 616.706 1102.64 645.766 1076.22 674.9 1037.22 690.539 985.551 693.056 933.882 694.952 894.911 682.518 868.666 655.116 842.394 627.687 829.306 587.137 829.347 533.567 829.377 519.928 829.407 506.29 829.436 492.651 862.481 491.335 895.528 490.122 928.582 489.019 928.551 504.756 928.519 520.493 928.488 536.23 928.622 559.553 933.484 575.965 943.086 585.454 952.685 594.94 965.941 599.203 982.851 598.305 999.763 597.955 1013.04 592.723 1022.68 582.587 1032.32 572.461 1037.25 555.824 1037.47 532.65 1038.06 509.467 1031.72 487.292 1018.46 466.099 1005.19 444.892 981.648 420.288 947.872 392.212 904.721 355.991 874.633 322.003 857.518 290.429 840.37 258.795 832.209 224.343 832.965 187.172 833.14 133.61 846.181 92.3112 872.181 63.4556 898.119 34.6686 936.661 20.1973 987.726 19.8865Z" fill="#E50914" fill-rule="evenodd"/></g></g><path d="M1341.84 1493.89C1325.01 1609.42 1308.25 1725.42 1291.49 1841.89 1325.16 1839.94 1358.83 1838.1 1392.51 1836.37 1376.21 1722.61 1359.98 1608.45 1343.75 1493.86 1343.11 1493.87 1342.47 1493.88 1341.84 1493.89ZM883.728 1477.39C883.601 1650.83 883.474 1824.27 883.346 1997.71 902.994 1995.66 922.649 1993.64 942.305 1991.67 959.09 1990.29 972.127 1983.79 981.453 1972.19 990.762 1960.61 995.509 1942.21 995.683 1916.94 995.852 1792.93 996.022 1668.92 996.191 1544.9 996.086 1519.65 991.379 1501.78 982.076 1491.26 972.757 1480.73 959.698 1475.72 942.866 1476.32 923.153 1476.67 903.44 1477.03 883.728 1477.39ZM3247.33 1373.15C3283.55 1373.19 3319.77 1373.24 3355.99 1373.28 3382.26 1460.85 3408.38 1549.17 3434.43 1638.22 3435.07 1638.25 3435.7 1638.28 3436.34 1638.3 3463.03 1550.82 3489.58 1462.54 3516.11 1373.49 3548.52 1373.53 3580.92 1373.58 3613.33 1373.62 3576.99 1492.72 3540.6 1610.32 3503.97 1726.41 3543.35 1854.02 3582.27 1983.5 3620.87 2114.84 3584.23 2110.02 3547.56 2105.37 3510.88 2100.91 3482.78 2001.97 3454.54 1904 3426.06 1807 3425.43 1806.96 3424.79 1806.91 3424.16 1806.87 3395.81 1899.15 3367.45 1990.66 3338.98 2081.38 3306.34 2077.93 3273.69 2074.62 3241.02 2071.47 3279.98 1955 3318.75 1837.25 3357.45 1718.2 3320.93 1601.9 3284.25 1486.89 3247.33 1373.15ZM3056.82 1372.96C3091.74 1373 3126.66 1373.03 3161.58 1373.06 3162.05 1603.45 3162.53 1833.83 3163.01 2064.22 3128.12 2061.1 3093.23 2058.15 3058.32 2055.37 3057.82 1827.9 3057.32 1600.43 3056.82 1372.96ZM2708.51 1372.71C2743.43 1372.73 2778.35 1372.75 2813.27 1372.78 2813.67 1563.08 2814.06 1753.39 2814.46 1943.69 2872.04 1946.51 2929.61 1949.73 2987.14 1953.34 2987.21 1985.55 2987.29 2017.75 2987.36 2049.96 2894.89 2043.2 2802.34 2037.63 2709.74 2033.25 2709.33 1813.07 2708.92 1592.89 2708.51 1372.71ZM2353.93 1372.59C2446.38 1372.61 2538.83 1372.63 2631.28 1372.68 2631.33 1403.94 2631.38 1435.2 2631.43 1466.46 2573.89 1466.11 2516.34 1465.83 2458.79 1465.61 2458.86 1531.15 2458.93 1596.68 2459 1662.21 2504.18 1662.7 2549.36 1663.32 2594.53 1664.07 2594.58 1695.26 2594.63 1726.45 2594.68 1757.65 2549.49 1756.67 2504.29 1755.85 2459.09 1755.21 2459.19 1844.91 2459.28 1934.62 2459.37 2024.32 2424.36 2023.48 2389.35 2022.81 2354.33 2022.31 2354.2 1805.73 2354.07 1589.16 2353.93 1372.59ZM1958.82 1372.61C2066.84 1372.58 2174.86 1372.57 2282.88 1372.58 2282.89 1403.45 2282.9 1434.32 2282.91 1465.19 2246.35 1465.15 2209.78 1465.13 2173.22 1465.14 2173.19 1650.51 2173.15 1835.87 2173.12 2021.23 2138.1 2021.32 2103.08 2021.58 2068.06 2022.01 2068.18 1836.43 2068.29 1650.84 2068.41 1465.26 2031.85 1465.33 1995.28 1465.43 1958.72 1465.55 1958.75 1434.57 1958.79 1403.59 1958.82 1372.61ZM1271.59 1373.03C1322.74 1372.98 1373.89 1372.94 1425.04 1372.89 1459.97 1597.49 1495.06 1820.48 1530.27 2042.01 1494.98 2044.2 1459.69 2046.57 1424.41 2049.1 1418.47 2008.61 1412.53 1968.07 1406.59 1927.48 1363.69 1930.07 1320.81 1932.88 1277.95 1935.88 1271.81 1977.93 1265.69 2020.04 1259.57 2062.22 1227.51 2065.02 1195.47 2067.96 1163.44 2071.04 1199.25 1836.13 1235.33 1603.5 1271.59 1373.03ZM779.05 1373.64C834.329 1373.55 889.607 1373.48 944.886 1373.4 997.279 1373.55 1036.35 1388.6 1062.29 1418.24 1088.1 1447.75 1101.01 1490.62 1100.87 1547.16 1100.65 1665.9 1100.44 1784.65 1100.22 1903.39 1100.16 1959.92 1087.11 2004.13 1061.26 2036.38 1035.28 2068.79 996.285 2088.07 944.095 2094.36 889.029 2100.78 834.012 2107.61 779.05 2114.86 779.05 1867.78 779.05 1620.71 779.05 1373.64ZM1747 1365.16C1798.07 1365.47 1836.52 1379.82 1862.4 1408.1 1888.25 1436.35 1901.2 1476.69 1901.19 1529.21 1901.18 1536.05 1901.17 1542.89 1901.16 1549.73 1868.13 1549.99 1835.09 1550.29 1802.06 1550.63 1802.07 1541.57 1802.09 1532.51 1802.1 1523.45 1802.04 1500.25 1797.49 1483.64 1788.46 1473.61 1779.42 1463.58 1766.5 1458.72 1749.7 1459.06 1732.89 1458.92 1719.95 1463.95 1710.88 1474.15 1701.8 1484.35 1697.2 1501.14 1697.06 1524.5 1696.45 1547.82 1702.77 1570.23 1716.03 1591.67 1729.27 1613.09 1752.78 1637.96 1786.59 1666.2 1829.69 1702.54 1859.86 1736.24 1877.03 1767.4 1894.19 1798.53 1902.43 1832.3 1901.7 1868.76 1901.56 1921.28 1888.26 1961.98 1861.92 1991.04 1835.5 2020.18 1796.49 2035.82 1744.83 2038.33 1693.16 2040.23 1654.19 2027.79 1627.94 2000.39 1601.67 1972.96 1588.58 1932.41 1588.62 1878.84 1588.65 1865.21 1588.68 1851.57 1588.71 1837.93 1621.76 1836.61 1654.81 1835.4 1687.86 1834.3 1687.83 1850.03 1687.8 1865.77 1687.77 1881.51 1687.9 1904.83 1692.76 1921.24 1702.36 1930.73 1711.96 1940.22 1725.22 1944.48 1742.13 1943.58 1759.04 1943.23 1772.31 1938 1781.96 1927.86 1791.59 1917.74 1796.53 1901.1 1796.74 1877.93 1797.34 1854.74 1791 1832.57 1777.74 1811.38 1764.46 1790.17 1740.92 1765.56 1707.15 1737.49 1664 1701.27 1633.91 1667.28 1616.79 1635.71 1599.65 1604.07 1591.49 1569.62 1592.24 1532.45 1592.42 1478.89 1605.46 1437.59 1631.46 1408.73 1657.4 1379.95 1695.94 1365.47 1747 1365.16Z" fill="#E50914" fill-rule="evenodd"/><text fill="#000000" fill-opacity="0" font-family="Arial,Arial_MSFontService,sans-serif" font-size="749.692" x="779.05" y="2021.14">DASTFLIX</text></g></svg>